<?xml version="1.0" encoding="UTF-8"?>
<!-- Generator: Adobe Illustrator 24.1.0, SVG Export Plug-In . SVG Version: 6.00 Build 0)  -->
<svg version="1.1" id="Layer_1" xmlns="http://www.w3.org/2000/svg" xmlns:xlink="http://www.w3.org/1999/xlink" x="0px" y="0px" viewBox="0 0 110 110" style="enable-background:new 0 0 110 110;" xml:space="preserve">
<style type="text/css">
	.st0{fill:#FFFFFF;}
	.st1{fill:none;}
</style>
<g>
	<path class="st0" d="M47.2,66.8L46.9,66c-3.6-9.5,1.1-20.1,10.6-23.7c9.5-3.6,20.1,1.1,23.7,10.6c1.8,4.2,1.9,8.9,0.4,13.1   l-0.2,0.7H47.2V66.8z M79.8,64.6v-0.2c2.4-8.6-2.6-17.5-11.2-19.9s-17.5,2.6-19.9,11.2c-0.8,2.9-0.8,5.9,0,8.7v0.2H79.8z"/>
	<path class="st0" d="M50.2,74.6c-0.6,0-1.1-0.5-1.1-1.1s0.5-1.1,1.1-1.1h28.3c0.6,0,1.1,0.5,1.1,1.1s-0.5,1.1-1.1,1.1H50.2z"/>
	<path class="st0" d="M85.3,66.8c-0.6,0-1.1-0.5-1.1-1.1s0.5-1.1,1.1-1.1h13.4c0.6,0,1.1,0.5,1.1,1.1s-0.5,1.1-1.1,1.1H85.3z"/>
	<path class="st0" d="M50.2,82.5c-0.6-0.1-1-0.6-1-1.2c0.1-0.5,0.5-0.9,1-1h28.3c0.6,0.1,1,0.6,1,1.2c-0.1,0.5-0.5,0.9-1,1H50.2z"/>
	<path class="st0" d="M85.3,74.6c-0.6,0-1.1-0.5-1.1-1.1s0.5-1.1,1.1-1.1H87c0.6,0,1.1,0.5,1.1,1.1s-0.5,1.1-1.1,1.1H85.3z"/>
	<path class="st0" d="M85.3,82.5c-0.6-0.1-1-0.6-1-1.2c0.1-0.5,0.5-0.9,1-1H87c0.6,0.1,1,0.6,1,1.2c-0.1,0.5-0.5,0.9-1,1H85.3z"/>
	<path class="st0" d="M92.2,74.6c-0.6,0-1.1-0.5-1.1-1.1s0.5-1.1,1.1-1.1l0,0h6.5c0.6,0,1.1,0.5,1.1,1.1s-0.5,1.1-1.1,1.1H92.2z"/>
	<path class="st0" d="M92.2,82.5c-0.6,0.1-1.1-0.4-1.2-1s0.4-1.1,1-1.2c0.1,0,0.1,0,0.2,0h6.5c0.6,0.1,1,0.6,1,1.2   c-0.1,0.5-0.5,0.9-1,1H92.2z"/>
	<rect x="63.2" y="43" class="st0" width="2.2" height="3.8"/>
	<rect x="47.3" y="56.7" class="st0" width="3.8" height="2.2"/>
	<rect x="77.6" y="56.7" class="st0" width="3.8" height="2.2"/>
	<rect x="73.2" y="47.2" transform="matrix(0.7071 -0.7071 0.7071 0.7071 -12.1546 67.229)" class="st0" width="3.8" height="2.2"/>
	
		<rect x="52.5" y="46.4" transform="matrix(0.7069 -0.7074 0.7074 0.7069 -18.4653 52.0714)" class="st0" width="2.2" height="3.8"/>
	<path class="st0" d="M64.3,60.1c-1.3,0-2.4-1.1-2.4-2.4s1.1-2.4,2.4-2.4s2.4,1.1,2.4,2.4C66.7,59.1,65.7,60.1,64.3,60.1   C64.4,60.1,64.3,60.1,64.3,60.1z"/>
	<polygon class="st0" points="62.7,56.7 68.8,48.6 69.1,48.7 66.2,58.4  "/>
	<path class="st0" d="M87,65.5c-0.6,0-1.1-0.5-1.1-1.1V48.9c0-0.6,0.5-1.1,1.1-1.1s1.1,0.5,1.1,1.1l0,0v15.5   C88.1,65,87.6,65.5,87,65.5L87,65.5z"/>
	<path class="st0" d="M92,65.5c-0.6,0-1.1-0.5-1.1-1.1V58c0-0.6,0.5-1.1,1.1-1.1s1.1,0.5,1.1,1.1v6.4C93.1,65,92.6,65.5,92,65.5   L92,65.5z"/>
	<path class="st0" d="M97,65.5c-0.6,0-1.1-0.5-1.1-1.1V44.1c0-0.6,0.5-1.1,1.1-1.1s1.1,0.5,1.1,1.1v20.3C98.1,65,97.6,65.5,97,65.5   L97,65.5z"/>
	<path class="st1" d="M100.6,15.8H24.1c-3,0-5.4,2.4-5.4,5.4l0,0v5.7H106v-5.7C106.1,18.2,103.7,15.8,100.6,15.8   C100.7,15.8,100.6,15.8,100.6,15.8z M27.6,22.9h-4.9v-3.2h4.9V22.9z M39,22.9h-6.5v-3.2H39V22.9z M50.3,22.9h-6.5v-3.2h6.5V22.9z"/>
	<path class="st0" d="M100.6,12.8H24.1c-4.6,0-8.4,3.8-8.4,10.4v14h3v-7.4H106v59c0,3-2.4,5.4-5.4,5.4l0,0H24.1   c-3,0-5.4-2.4-5.4-5.4v-5.5h-3v7.5c0,2.6,3.8,6.4,8.4,6.4h76.5c4.6,0,8.4-3.8,8.4-6.4V23.2C109,16.6,105.3,12.8,100.6,12.8z    M106,26.9H18.7v-5.7c0-3,2.4-5.4,5.4-5.4h76.5c3,0,5.4,2.4,5.4,5.4V26.9z"/>
	<rect x="22.8" y="19.7" class="st0" width="4.9" height="3.2"/>
	<rect x="32.5" y="19.7" class="st0" width="6.5" height="3.2"/>
	<rect x="43.9" y="19.7" class="st0" width="6.5" height="3.2"/>
	<g>
		<path class="st0" d="M21.2,61.7c-3.2,0-5.8-3.1-5.8-6.7s2.6-6.4,5.8-6.4c3.4,0.2,6,3,5.8,6.4C27,58.6,24.4,61.7,21.2,61.7z     M21.2,50.8c-2.2,0.2-3.8,2-3.7,4.2c0,2.4,1.7,4.5,3.7,4.5s3.7-2.1,3.7-4.5C25,52.8,23.4,51,21.2,50.8z"/>
		<path class="st0" d="M30.7,71.9c-0.5,0-1-0.4-1.1-0.9c-0.8-4.7-5.2-7.8-9.8-7.1c-3.6,0.6-6.5,3.4-7.1,7.1    c-0.1,0.5-0.5,0.9-1.1,0.9h-0.2c-0.3,0-0.5-0.2-0.7-0.4c-0.2-0.2-0.2-0.5-0.2-0.8c0.9-5.8,6.4-9.8,12.3-8.9    c4.6,0.7,8.2,4.3,8.9,8.9c0,0.3,0,0.6-0.2,0.8C31.3,71.7,31.1,71.9,30.7,71.9L30.7,71.9z"/>
		<path class="st0" d="M21.2,80.5C10,80.5,1,71.4,1,60.3s9-20.2,20.2-20.2s20.2,9,20.2,20.2l0,0C41.4,71.4,32.3,80.5,21.2,80.5z     M21.2,42.8c-9.7,0-17.5,7.9-17.5,17.5s7.9,17.5,17.5,17.5c9.7,0,17.5-7.8,17.5-17.5S30.9,42.8,21.2,42.8z"/>
	</g>
</g>
</svg>