<?xml version="1.0" encoding="UTF-8"?>
<!-- Generator: Adobe Illustrator 24.1.0, SVG Export Plug-In . SVG Version: 6.00 Build 0)  -->
<svg version="1.1" id="Layer_1" xmlns="http://www.w3.org/2000/svg" xmlns:xlink="http://www.w3.org/1999/xlink" x="0px" y="0px" viewBox="0 0 110 110" style="enable-background:new 0 0 110 110;" xml:space="preserve">
<style type="text/css">
	.st0{fill:#FFFFFF;}
</style>
<g>
	<path class="st0" d="M55,108.9c-4.3,0-7.8-3.5-7.8-7.8s3.5-7.8,7.8-7.8s7.8,3.5,7.8,7.8S59.3,108.9,55,108.9z M55,96.3   c-2.7,0-4.8,2.2-4.8,4.8s2.2,4.8,4.8,4.8c2.7,0,4.8-2.2,4.8-4.8l0,0C59.8,98.5,57.7,96.3,55,96.3z"/>
	<path class="st0" d="M55,16.6c-4.3,0-7.8-3.5-7.8-7.7s3.5-7.8,7.8-7.8s7.8,3.5,7.8,7.8S59.3,16.6,55,16.6z M55,4.1   c-2.7,0-4.8,2.2-4.8,4.8s2.2,4.8,4.8,4.8c2.7,0,4.8-2.2,4.8-4.8C59.8,6.2,57.7,4.1,55,4.1z"/>
	<path class="st0" d="M54.9,33.8c-0.8,0-1.5-0.7-1.5-1.5l0,0V15.2c-0.1-0.8,0.5-1.5,1.3-1.6s1.5,0.5,1.6,1.3c0,0.1,0,0.2,0,0.2v17.1   C56.4,33.2,55.7,33.8,54.9,33.8L54.9,33.8z"/>
	<path class="st0" d="M54.9,96.1c-0.8,0-1.5-0.7-1.5-1.5l0,0V79.8c-0.1-0.8,0.5-1.5,1.3-1.6s1.5,0.5,1.6,1.3c0,0.1,0,0.2,0,0.2v14.9   C56.4,95.5,55.7,96.1,54.9,96.1z"/>
	<path class="st0" d="M101.1,62.7c-4.3,0-7.8-3.5-7.8-7.8s3.5-7.8,7.8-7.8s7.8,3.5,7.8,7.8l0,0C108.9,59.3,105.4,62.7,101.1,62.7z    M101.1,50.2c-2.7,0-4.8,2.1-4.8,4.8s2.1,4.8,4.8,4.8c2.7,0,4.8-2.1,4.8-4.8l0,0C105.9,52.3,103.8,50.2,101.1,50.2z"/>
	<path class="st0" d="M8.9,62.7c-4.3,0-7.7-3.5-7.7-7.8s3.5-7.8,7.8-7.8s7.7,3.5,7.7,7.8C16.6,59.3,13.1,62.7,8.9,62.7z M8.9,50.2   C6.2,50.2,4,52.3,4,55s2.1,4.8,4.8,4.8s4.8-2.1,4.8-4.8l0,0C13.7,52.3,11.5,50.2,8.9,50.2z"/>
	<path class="st0" d="M15.2,56.6c-0.8,0.1-1.5-0.5-1.6-1.3s0.5-1.5,1.3-1.6c0.1,0,0.2,0,0.2,0h15.4c0.8-0.1,1.5,0.5,1.6,1.3   s-0.5,1.5-1.3,1.6c-0.1,0-0.2,0-0.2,0H15.2z"/>
	<path class="st0" d="M79.7,56.6c-0.8,0.1-1.5-0.5-1.6-1.3s0.5-1.5,1.3-1.6c0.1,0,0.2,0,0.2,0h14.9c0.8-0.1,1.5,0.5,1.6,1.3   s-0.5,1.5-1.3,1.6c-0.1,0-0.2,0-0.2,0H79.7z"/>
	<path class="st0" d="M85.7,29.2c-2.7,0-4.8-2.2-4.8-4.9s2.2-4.8,4.9-4.8c2.7,0,4.8,2.2,4.8,4.9c0,1.3-0.5,2.5-1.4,3.4   C88.3,28.7,87,29.2,85.7,29.2z M85.7,22.3c-1.1,0-2,0.9-2,2s0.9,2,2,2s2-0.9,2-2c0-0.5-0.2-1-0.6-1.4   C86.7,22.6,86.2,22.3,85.7,22.3z"/>
	<path class="st0" d="M55,60.3c-2.7,0-4.9-2.2-4.9-4.9s2.2-4.9,4.9-4.9s4.9,2.2,4.9,4.9c0,1.3-0.5,2.5-1.4,3.4   C57.5,59.8,56.3,60.3,55,60.3z M55,53.5c-1.1-0.1-2,0.8-2.1,1.9c-0.1,1.1,0.8,2,1.9,2.1c0.6,0,1.2-0.2,1.6-0.7   c0.4-0.4,0.6-0.9,0.6-1.4C57,54.3,56.1,53.4,55,53.5L55,53.5z"/>
	<path class="st0" d="M72.6,39.1c-0.4,0-0.7-0.2-1-0.4c-0.6-0.6-0.6-1.5,0-2.1l10.5-10.5c0.6-0.6,1.5-0.6,2.1,0l0,0   c0.3,0.3,0.4,0.6,0.4,1s-0.2,0.7-0.4,1L73.6,38.7C73.4,39,73,39.1,72.6,39.1z"/>
	<path class="st0" d="M22.6,92.3c-2.7,0-4.9-2.2-4.9-4.9c0-1.3,0.5-2.5,1.4-3.4c1.9-1.9,5-2,6.9-0.1s2,5,0.1,6.9L26,90.9   C25.1,91.8,23.9,92.3,22.6,92.3z M22.6,85.4c-1.1,0-2,0.8-2,1.9s0.8,2,1.9,2s2-0.8,2-1.9l0,0c0-0.5-0.2-1-0.6-1.4   C23.6,85.7,23.1,85.5,22.6,85.4z"/>
	<path class="st0" d="M25.2,86c-0.8,0-1.4-0.7-1.5-1.5c0-0.4,0.2-0.7,0.4-1l10.5-10.6c0.3-0.3,0.6-0.4,1-0.4c0.8,0,1.5,0.6,1.5,1.4   V74c0,0.4-0.2,0.7-0.4,1L26.2,85.6C26,85.9,25.6,86,25.2,86z"/>
	<path class="st0" d="M22.6,29.2c-1.3,0-2.5-0.5-3.5-1.4c-1.9-1.9-1.9-5,0-6.9s5-1.9,6.9,0s1.9,5,0,6.9   C25.1,28.6,23.9,29.2,22.6,29.2z M22.6,22.3c-1.1,0-2,0.9-2,2s0.9,2,2,2s2-0.9,2-2c0-0.5-0.2-1.1-0.6-1.4   C23.6,22.5,23.1,22.3,22.6,22.3z"/>
	<path class="st0" d="M36,38.9c-0.4,0-0.7-0.2-1-0.4L24.4,27.9c-0.6-0.6-0.6-1.5,0-2.1s1.5-0.6,2.1,0L37,36.4c0.6,0.6,0.6,1.5,0,2.1   C36.7,38.7,36.4,38.9,36,38.9z"/>
	<path class="st0" d="M85.7,92.3c-2.7,0-4.9-2.2-4.8-4.9c0-2.7,2.2-4.9,4.9-4.8c2.7,0,4.9,2.2,4.8,4.9c0,1.3-0.5,2.5-1.4,3.4   C88.3,91.8,87,92.3,85.7,92.3z M85.7,85.5c-1.1,0-2,0.9-2,2s0.9,2,2,2s2-0.9,2-2c0-0.5-0.2-1.1-0.6-1.4   C86.7,85.7,86.2,85.5,85.7,85.5z"/>
	<path class="st0" d="M82.9,86.3c-0.4,0-0.7-0.2-1-0.4L71.3,75.3c-0.6-0.6-0.6-1.5,0-2.1l0,0c0.6-0.6,1.5-0.6,2.1,0l0,0l10.5,10.5   c0.6,0.6,0.6,1.5,0,2.1C83.6,86.1,83.3,86.3,82.9,86.3L82.9,86.3z"/>
	<path class="st0" d="M55,73.7c-10.1,0-18.3-8.2-18.3-18.3S44.9,37.1,55,37.1s18.3,8.2,18.3,18.3l0,0C73.3,65.5,65.1,73.7,55,73.7z    M55,40.4c-8.3,0-15,6.7-15,15s6.7,15,15,15s15-6.7,15-15l0,0C70,47.1,63.3,40.4,55,40.4z"/>
</g>
</svg>