<?xml version="1.0" encoding="utf-8"?>
<!-- Generator: Adobe Illustrator 24.1.0, SVG Export Plug-In . SVG Version: 6.00 Build 0)  -->
<svg version="1.1" id="Layer_1" xmlns="http://www.w3.org/2000/svg" xmlns:xlink="http://www.w3.org/1999/xlink" x="0px" y="0px"
	 viewBox="0 0 312 305" style="enable-background:new 0 0 312 305;" xml:space="preserve">
<style type="text/css">
	.st0{fill:#333E48;}
	.st1{fill-rule:evenodd;clip-rule:evenodd;fill:#841D80;}
	.st2{fill:#841D80;}
</style>
<g>
	<path class="st0" d="M155.9,187.7c-1.1,0-2.2-0.4-3-1.2s-1.3-1.9-1.3-3c0-2.4,1.9-4.3,4.2-4.3l0,0c2.4,0,4.3,1.9,4.3,4.2v0.4l0,0
		C159.9,186,158.1,187.7,155.9,187.7L155.9,187.7z M155.9,181.4c-1.1,0-2.1,0.9-2.1,2.1c0,0.6,0.2,1.1,0.6,1.5
		c0.4,0.4,0.9,0.6,1.4,0.6h0.1c0.6,0,1.1-0.2,1.5-0.6s0.6-0.9,0.6-1.5v-0.2C157.9,182.2,157,181.4,155.9,181.4v-0.2V181.4z"/>
	<path class="st0" d="M131.2,177.5c-2.8-7.7-5.5-24.1-4.7-33.7v-0.2l2.2,0.2v0.2c-0.8,9.3,1.8,25.3,4.5,32.8l0.1,0.2l-2,0.8
		L131.2,177.5z"/>
	<path class="st0" d="M120,143.9c-0.1-3.4,0.2-12.8,0.5-14.6c1.1-9.2,5.3-16.9,12.2-22.2c6.1-4.7,14.2-7.2,23.2-7.2
		c2.6,0,5.4,0.2,8.1,0.6h0.2l-0.3,2.2h-0.2c-2.6-0.4-5.3-0.6-7.8-0.6c-8.6,0-16.2,2.3-21.9,6.7c-6.4,4.9-10.3,12-11.3,20.7
		c-0.2,1.6-0.5,10.8-0.5,14.2v0.2L120,143.9L120,143.9z"/>
	<path class="st0" d="M128.7,183.8c-5.5-0.1-6.4-9.2-7.1-15.8v-0.4l2.2-0.2v0.4c0.6,5.5,1.4,13.8,5,13.9l24.3,0.8l-0.1,2.2
		L128.7,183.8z"/>
	<path class="st0" d="M122.4,169c-4.1-0.6-5.8-10.3-5.6-17.1c0.2-5.5,1.7-8.6,4.2-8.7l7.6-0.5l0.1,2.2l-7.6,0.5
		c-0.8,0.1-1.9,1.9-2.2,6.7c-0.3,7.5,1.8,14.5,3.7,14.8l8.2,1.3l-0.3,2.1L122.4,169z"/>
	<path class="st0" d="M159.3,202c-3.3,0-6.5-1.6-10.6-4.2c-7.6-4.9-12.4-9.6-15.6-15.4l-0.1-0.2l1.9-0.3h0.5
		c3,5.4,7.2,9.4,14.4,14.1c3.8,2.4,6.6,3.9,9.4,3.9c2.6,0,5.5-1.3,9.1-3.3c12.4-6.9,18.9-15.2,21.8-27.8
		c3.9-16.5-4.3-18.8-16.8-22.2c-8.8-2.5-19.8-5.5-28.6-15c-1.2-1.4-2.9-2.3-4.4-2.3c-0.2,0-0.4,0-0.7,0.1c-1.2,0.2-2.1,1.1-2.6,2.5
		c-0.9,2.3-1.3,4.1-1.7,5.6c-1,4.2-1.7,6-8,6.8h-0.2l-0.3-2.2h0.2c5.1-0.6,5.3-1.4,6.2-5.1c0.4-1.5,0.8-3.4,1.8-5.8
		c0.7-2.1,2.2-3.5,4.3-3.9c0.3-0.1,0.7-0.1,1-0.1c2.2,0,4.5,1.2,6.1,3.1c8.3,9,18.6,11.8,27.6,14.3c12.6,3.5,22.6,6.3,18.3,24.8
		c-3.1,13.2-9.9,21.9-22.9,29.2C165.7,200.5,162.4,202,159.3,202z"/>
	<path class="st0" d="M122.2,212.6l0.2-0.1c4.5-1.3,8.2-2.4,11.3-3.5c5.5-2.1,6.8-8.6,8-14.9c0.2-1,0.4-2,0.6-3v-0.2l2,1l-0.1,0.2
		c-0.2,0.9-0.3,1.4-0.5,2.4c-1.3,6.6-2.7,14-9.3,16.5c-3.2,1.2-6.9,2.3-11.4,3.6l-0.2,0.1L122.2,212.6z"/>
	<path class="st0" d="M195.2,216.2c-3.6-1.2-7.7-2.6-11.1-4c-6.4-2.8-7.4-9.9-8.2-16.1c-0.1-1-0.3-1.9-0.4-2.9V193l2.1-0.4v0.2
		c0.1,0.9,0.3,1.9,0.4,2.9c0.8,6,1.7,12.2,6.9,14.5c3.3,1.4,7.4,3.2,10.9,4.4l0.2,0.1l-0.7,1.7L195.2,216.2z"/>
	<path class="st0" d="M211,222.1c-3.6-1.4-7.7-2.4-11.8-3.8l-4-1.3l0.7-2.1l4,1.3c3.2,1.1,6.6,2.2,9.7,3.3
		c-3.4-11.9-0.6-46.4,1.2-54.7c6.6-30,1-53.2-15.7-65.2c-6.1-4.4-11.6-7.1-20.3-7.1c-2.3,0-4.8,0.2-7.6,0.6H167l-0.3-0.1
		c-4.8-1.4-9.4-2.1-13.8-2.1c-9.1,0-17.5,3-24.9,8.9c-12.8,10.2-18.4,28.4-16.9,55.6c0.4,7.5,1.9,47.3-0.6,56
		c-0.6,1.9-1.2,3.6-1.9,5c3.2-1,6.7-1.9,10.1-2.8l3.9-1.1l0.6,2.1l-3.9,1.1c-4.2,1.1-8.5,1.9-12.2,3.1l-2.2,0.7l0.8-1.7
		c0.2-0.7,0.5-1.3,0.8-2.1c0.6-1.5,1.3-3.1,1.8-4.9c2.2-7.7,1.1-43.8,0.5-55.3c-1.5-28,4.3-46.8,17.7-57.4
		c7.8-6.2,16.7-9.3,26.4-9.3c4.6,0,9.3,0.7,14.1,2.1c2.8-0.4,5.3-0.6,7.7-0.6c9.2,0,15,2.9,21.4,7.5c17.4,12.5,23.3,36.5,16.6,67.4
		c-1.9,8.7-4.7,46.8-0.6,55.3l1.5,2.3L211,222.1z"/>
	<path class="st0" d="M75.9,304.8l4.4-34.4l4.3-25.1c1.6-9.5,4.2-19.1,12.9-24.6c4.3-2.7,12.5-4.9,21.2-7.2l5.1-1.3v1.4
		c2.4,14.3,13.3,25.6,27.7,28.9c2.7,0.6,5.4,0.9,8.1,0.9c17,0,31.6-11.4,35.4-27.7v-1.3l1.4,0.4l3.6,1.2c8.6,2.8,16.6,5.4,20.7,8.4
		c8.4,6,10.4,15.8,11.4,25.4l2,25.3L236,305h-2.2l-1.9-29.7l-2-25.2c-0.9-9.1-2.8-18.2-10.5-23.8c-3.8-2.8-12.1-5.5-20.1-8.1
		l-2.5-0.8c-4.4,16.7-19.7,28.4-37.3,28.4c-2.9,0-5.8-0.3-8.6-1c-14.8-3.4-26.3-15-29.2-29.6l-2.6,0.7c-8.2,2.2-16.6,4.4-20.6,6.9
		c-8.4,5.3-10.6,14.8-12,23.2l-4.3,25.1L78,304.8H75.9L75.9,304.8z"/>
	<path class="st0" d="M203.6,304.8l5-45.7l-102.2-1.6c0.3,5.5,0.8,14,1.4,22.3l0.1,1.2c0.5,8.5,1.3,18.2,1.5,23.5v0.3h-2.2v-0.2
		c-0.3-5.5-1.1-16.1-1.6-24.6l-0.1-0.8c-0.6-8.6-1.1-17.5-1.4-22.8l-0.1-1.2l106.9,1.7l-5.2,47.8L203.6,304.8L203.6,304.8z"/>
	<path class="st1" d="M84.9,225.5c-0.6-1.1-0.9-2.3-0.8-3.5l0.4-7.6l-1.2-0.5c-2.6-1-5.1-2.2-7.5-3.6l-1.2-0.7l-5.6,5.1
		c-1.2,1.1-2.7,1.6-4.2,1.6c-0.1,0-0.2,0-0.4,0c-1.7-0.1-3.3-0.8-4.4-2.1L47.3,200c-2.3-2.6-2.1-6.6,0.5-9l5.5-5l-0.5-1.2
		c-1.1-2.6-2.1-5.2-2.8-7.9l-0.3-1.2l-7.5-0.4c-3.5-0.2-6.2-3.2-6-6.7l1-19.1c0.2-3.4,3-6,6.3-6c0.1,0,0.2,0,0.3,0l7.5,0.4l0.5-1.2
		c1-2.6,2.2-5.2,3.6-7.6l0.6-1.3l-5-5.6c-2.3-2.6-2.1-6.6,0.5-9l14.2-12.8c1.2-1.1,2.7-1.6,4.2-1.6c0.1,0,0.2,0,0.3,0
		c1.7,0.1,3.2,0.8,4.4,2.1l5,5.6l1.2-0.5c2.5-1.1,5.2-2.1,7.9-2.8l1.3-0.4l0.4-7.6c0.2-3.4,3-6,6.3-6c0.1,0,0.2,0,0.3,0l19.1,1.1
		c0.4,0,0.7,0.1,1.1,0.2l0.3,0.1l-1.4,1.8l-19.1-1h-0.2c-2.3,0-4.1,1.8-4.3,4l-0.4,8.4c0,0.5-0.4,0.9-0.8,1c-3.9,0.9-7.8,2.2-11.4,4
		c-0.1,0.1-0.3,0.1-0.4,0.1c-0.4,0-0.6-0.1-0.8-0.3l-5.6-6.2c-0.7-0.8-1.8-1.4-2.9-1.4c-0.1,0-0.2,0-0.2,0c-1.1,0-2.1,0.4-2.8,1.1
		L53,120.9c-1.7,1.6-1.9,4.3-0.3,6l5.5,6.2c0.3,0.3,0.4,0.9,0.1,1.2c-2.2,3.4-3.9,7.1-5.2,11c-0.1,0.4-0.5,0.7-1,0.7l-8.3-0.4h-0.2
		c-2.3,0-4.1,1.8-4.3,4l-1,19.1c-0.1,2.4,1.7,4.4,4,4.5l8.2,0.4c0.5,0,0.8,0.4,1,0.8c0.9,4,2.3,7.8,4,11.5c0.2,0.4,0.1,0.9-0.2,1.2
		l-6.1,5.5c-1.7,1.6-1.9,4.3-0.3,6l12.8,14.2c0.8,0.8,1.8,1.4,2.9,1.4c0.1,0,0.1,0,0.2,0c1.1,0,2.1-0.4,2.8-1.1l6.1-5.6
		c0.2-0.2,0.4-0.2,0.7-0.2h0.2l0.4,0.1c3.5,2.1,7.1,3.9,11,5.2c0.4,0.1,0.7,0.6,0.7,1l-0.4,8.4c0,0.5,0,1,0.2,1.5v0.1l-1.3,2
		L84.9,225.5z"/>
	<path class="st1" d="M25.2,136.6c-2.9-0.2-5.1-2.7-4.9-5.6l0.8-15.4c0.1-2.8,2.5-5.1,5.3-5.1h0.2l6,0.3l0.5-1.2
		c0.7-1.8,1.5-3.6,2.5-5.3l0.6-1.1l-4-4.6c-1.9-2.2-1.8-5.5,0.4-7.5l11.2-10.4c1-0.9,2.2-1.4,3.5-1.4c0.1,0,0.2,0,0.3,0
		c1.4,0.1,2.7,0.7,3.6,1.8l4,4.5l1.2-0.5c1.8-0.8,3.6-1.5,5.5-2l1.2-0.4l0.3-6.1c0.1-2.8,2.4-5.1,5.2-5.1h0.2l15,0.8
		c2.9,0.2,5.1,2.7,4.9,5.6l-0.2,6.9c0,0.5-0.5,1-1,1c-0.6,0-1.1-0.5-1-1.1l0.4-6.9c0.1-1.8-1.2-3.3-3-3.4l-15-0.8h-0.1
		c-1.7,0-3.1,1.3-3.2,3.1l-0.4,6.9c0,0.5-0.3,0.8-0.8,1c-3.1,0.7-6,1.8-8.9,3.2c-0.2,0.1-0.3,0.1-0.5,0.1c-0.3,0-0.5-0.1-0.7-0.3
		l-4.5-5.1c-0.6-0.6-1.4-1-2.2-1.1c-0.1,0-0.1,0-0.2,0c-0.8,0-1.5,0.3-2.1,0.8L34,92.5c-1.3,1.2-1.4,3.2-0.2,4.6l4.6,5.2
		c0.3,0.3,0.3,0.9,0.1,1.3c-1.7,2.7-3,5.6-4.1,8.7c-0.1,0.4-0.5,0.7-1,0.7l-6.9-0.4h-0.1c-1.7,0-3.1,1.3-3.2,3.1l-0.8,15.4
		c-0.1,1.8,1.2,3.3,3,3.4l6.8,0.4c0.6,0.1,1,0.6,0.9,1.2c-0.1,0.5-0.5,0.8-1,0.9l0,0L25.2,136.6z"/>
	<path class="st2" d="M246.5,143.8c-3.4,0-6.1-2.7-6.1-6.1v-20.1c0-3.4,2.7-6.1,6.1-6.1h39.1c3.4,0,6.1,2.7,6.1,6.1v20.1
		c0,3.4-2.7,6.1-6.1,6.1H246.5z M246.5,113.7c-2.2,0-3.9,1.8-3.9,3.9v20.1c0,2.2,1.8,3.9,3.9,3.9h39.1c2.2,0,3.9-1.8,3.9-3.9v-20.1
		c0-2.2-1.8-3.9-3.9-3.9C285.6,113.7,246.5,113.7,246.5,113.7z"/>
	<rect x="265" y="122.6" class="st2" width="19.9" height="2.2"/>
	<rect x="265" y="127.4" class="st2" width="14.9" height="2.2"/>
	<rect x="265" y="132.1" class="st2" width="11.1" height="2.2"/>
	<path class="st2" d="M252.5,138.8c-1.7,0-3.4-0.9-5-2.6l-0.5-0.6l0.6-0.6c0.3-0.3,0.6-0.7,0.7-1.1c-0.4-0.6-0.8-1.1-1-1.7H247
		l-0.2-0.4c-0.7-1.1-0.9-2.8-0.9-3.5c-0.6-1-0.6-3.7,0-5.5l0.1-0.4l0,0c0.7-2.1,1-2.7,3-3.7c0.6-0.4,1.7-0.6,2.7-0.6
		c0.6,0,1.2,0.1,1.6,0.3c0.1,0.1,0.2,0.1,0.2,0.1c0.1,0,0.4-0.1,0.7-0.1c1.8,0,3.5,1,4.3,2.4c0.5,0.8,0.7,1.6,0.9,2.4l0.1,0.5
		c0.4,1.4,0.4,3.7-0.2,4.6c0,0.2,0,0.4,0,0.6c0,0.8-0.1,1.7-0.7,2.2c-0.1,0.2-0.2,0.5-0.4,0.8l-0.2,0.4h-0.1c-0.2,0.6-0.6,1.2-1,1.7
		c0.2,0.4,0.4,0.7,0.7,1.1l0.6,0.6l-0.5,0.6C255.9,137.9,254.2,138.8,252.5,138.8L252.5,138.8z M249.3,135.6
		c1.1,1.1,2.2,1.6,3.3,1.6s2.2-0.5,3.3-1.6c-0.1-0.1-0.1-0.2-0.2-0.3c-0.5,0.5-1.1,0.8-1.6,1.1c-0.6,0.1-1.1,0.2-1.5,0.2
		s-0.8,0-1.2-0.1c-0.6-0.3-1.2-0.6-1.8-1.1C249.4,135.4,249.4,135.5,249.3,135.6z M248.4,130.2c0.1,0.3,0.1,0.7,0.3,1l0.1,0.4
		c0.5,1.2,1.7,2.7,2.9,3.3c0.2,0,0.4,0,0.7,0l0,0c0.4,0,0.8,0,1.1-0.1c1-0.5,2.1-1.9,2.6-3l0.1-0.5c0.1-0.4,0.2-0.8,0.2-1.2
		l-0.1-0.3c-0.3-0.7-0.4-1.6-0.4-2.7c0-0.5,0-0.8-0.1-1.1l-0.2,0.1c-0.3,0.1-1,0.2-1.9,0.2c-0.2,0-0.3,0-0.5,0c-0.1,0-0.1,0-0.2,0
		l-0.9,0.2c-0.5,0.1-0.9,0.1-1.2,0.1c-0.6,0-1.1-0.1-1.6-0.3c-0.1,0.5-0.3,0.8-0.6,1.1l-0.1,0.2c0.1,1.3,0,2.1-0.2,2.5L248.4,130.2z
		 M258,126.5l0.1-0.9c0-0.5-0.1-1-0.2-1.4l-0.1-0.5c-0.2-0.7-0.3-1.4-0.7-1.9c-0.6-1-1.8-1.6-2.9-1.6l0,0c-0.2,0-0.3,0-0.3,0
		c-0.1,0.1-0.3,0.1-0.4,0.1c-0.2,0-0.5-0.1-0.9-0.2c-0.2-0.1-0.6-0.2-1-0.2c-0.7,0-1.5,0.2-1.9,0.4c-1.4,0.8-1.6,0.9-2.1,2.6
		l1.4,1.2c0.1,0.1,0.2,0.2,0.3,0.2h1.9c0.4,0,0.8,0.1,1.1,0.2s0.6,0.2,1,0.2c0.1,0,0.3,0,0.4,0l0,0l-0.6-0.7h1.8
		c2,0,2.5,1.4,2.6,2.4L258,126.5z M247.4,123.2c-0.2,0.6-0.3,1.4-0.4,2.1l0.3-1.8l0.2,0.2L247.4,123.2z"/>
	<g>
		<path class="st2" d="M92.1,38.8c-3.4,0-6.1-2.7-6.1-6.1V12.6c0-3.4,2.7-6.1,6.1-6.1h39.1c3.4,0,6.1,2.7,6.1,6.1v20.1
			c0,3.4-2.7,6.1-6.1,6.1H92.1z M92.1,8.7c-2.2,0-3.9,1.8-3.9,3.9v20.1c0,2.2,1.8,3.9,3.9,3.9h39.1c2.2,0,3.9-1.8,3.9-3.9V12.6
			c0-2.2-1.8-3.9-3.9-3.9H92.1z"/>
		<rect x="110.7" y="19.2" class="st2" width="19.8" height="2.2"/>
		<rect x="110.7" y="23.9" class="st2" width="14.9" height="2.2"/>
		<rect x="110.7" y="28.7" class="st2" width="11.1" height="2.2"/>
		<path class="st2" d="M99.8,35.3c-1.4,0-2.7-0.5-3.7-1.4l-0.8,0.6l-2.2-5.6l1.3-1.1c-0.2-0.4-0.3-0.7-0.4-1.1v-0.1l-0.5-0.3
			L93.4,26c-0.4-1.2-0.7-2.4-0.7-3.5v-0.4l0.2-0.2c0-1.1-0.1-2.1-0.1-2.9c-0.1-1.1-0.1-1.6,0-1.9c0.1-0.5,0.6-1,1-1.5l0,0l0.2-0.4
			c0.3-0.6,1.8-1.5,3.3-1.6c0.7-0.3,1.6-0.5,2.6-0.5s2.1,0.2,3.1,0.6c0.2,0.1,0.6,0.2,0.7,0.5c0.8,0.4,2.1,1.1,2.8,2.2
			c0.3,0.6,0.4,1,0.3,1.4c0,0.1,0,0.2-0.1,0.4c-0.1,0.9-0.1,2.6-0.1,3.7l0.3,0.2v0.4c0,1.2-0.2,2.3-0.7,3.5l-0.1,0.3l-0.5,0.3v0.1
			c-0.1,0.4-0.2,0.7-0.5,1.1l1.3,1.1l-2.2,5.6l-0.8-0.6C102.5,34.8,101.2,35.3,99.8,35.3L99.8,35.3z M100.5,33.6
			c0.6-0.1,1.1-0.3,1.6-0.7l-1-0.7L100.5,33.6z M97.4,33c0.4,0.3,1,0.6,1.6,0.7l-0.6-1.4L97.4,33z M103.5,32l1-2.6l-0.2-0.2
			c-0.6,0.8-1.3,1.4-2.1,1.9L103.5,32z M96,32l1.2-0.9c-0.7-0.5-1.4-1.1-2.1-1.9L95,29.4L96,32z M95.3,25.5l0.2,0.7
			c0.4,1.3,1.9,3.2,3.3,3.8c0.2,0,0.5,0.1,0.8,0.1c0.4,0,0.8,0,1.2-0.1h0.1c0.4-0.2,0.9-0.6,1.3-1c0.8-0.8,1.6-1.9,1.8-2.8l0.2-0.7
			l0.6-0.3c0.1-0.4,0.2-0.8,0.3-1.2l-1.3-0.4l0.1-0.2c0.2-0.8-0.5-2.2-0.8-2.9l-0.1-0.3c-1,0.7-1.6,1.1-2,1.1
			c-0.3,0.1-1,0.2-1.9,0.2c-0.2,0-0.4,0-0.7,0c-0.9-0.1-1.5-0.6-2-1l-0.1,0.7c-0.5,3-0.5,3.3-1.3,3.3h-0.4c0.1,0.2,0.1,0.5,0.2,0.7
			L95.3,25.5z M95.7,16.1c-0.1,0.2-0.2,0.3-0.4,0.5c-0.2,0.2-0.8,0.8-0.9,1.1c0,0.1,0,0.8,0.1,1.3c0.1,0.7,0.1,1.5,0.1,2.5l0.1-0.5
			c0.4-2.4,0.4-2.5,0.9-2.7l0.5-0.1l0.3,0.4c0.2,0.1,0.5,0.4,0.8,0.7c0.4,0.4,0.8,0.8,1.3,0.8c0.2,0,0.4,0,0.5,0
			c0.8,0,1.4-0.1,1.6-0.2h0.2c0.1,0,0.3-0.1,1.5-1c0.5-0.3,0.7-0.5,1-0.5c0.1,0,0.2,0,0.2,0c0.4,0.1,0.6,0.4,1,1.3l0.1,0.2
			c0.2,0.3,0.3,0.7,0.5,1.1c0-1,0.1-2,0.1-2.8c0-0.2,0.1-0.4,0.1-0.5s0-0.1-0.1-0.4c-0.4-0.8-1.5-1.3-2.1-1.6
			c-0.3-0.1-0.6-0.3-0.7-0.5c-0.8-0.3-1.6-0.4-2.4-0.4s-1.5,0.1-2,0.4l-0.3,0.1c-0.8,0-1.5,0.4-1.8,0.6L95.7,16.1z"/>
	</g>
	<path class="st2" d="M232.2,189.8c-3.4,0-6.1-2.7-6.1-6.1v-20.1c0-3.4,2.7-6.1,6.1-6.1h39.1c3.4,0,6.1,2.7,6.1,6.1v20.1
		c0,3.4-2.7,6.1-6.1,6.1H232.2z M232.2,159.7c-2.2,0-3.9,1.8-3.9,3.9v20.1c0,2.2,1.8,3.9,3.9,3.9h39.1c2.2,0,3.9-1.8,3.9-3.9v-20.1
		c0-2.2-1.8-3.9-3.9-3.9H232.2z"/>
	<rect x="250.8" y="170.2" class="st2" width="19.9" height="2.2"/>
	<rect x="250.8" y="175" class="st2" width="14.9" height="2.2"/>
	<rect x="250.8" y="179.7" class="st2" width="11.1" height="2.2"/>
	<path class="st2" d="M247.4,183.2c-1.4,0-2.9-1-3.8-2c-0.2,0.1-0.4,0.3-0.6,0.4c-0.9,0.6-1.6,0.8-2.3,0.8s-1.4-0.2-2.4-0.8
		c-0.2-0.1-0.4-0.3-0.6-0.4c-0.9,1-2.4,2-3.8,2c-0.1,0-0.2,0-0.3,0c-0.8-0.1-1.9-0.6-2.5-2.3l-0.4-1.4l1.5,0.4
		c-0.1-0.2-0.2-0.5-0.3-0.8l-0.4-1.4l1.4,0.4c0.1,0,0.2,0.1,0.3,0.1h0.1c0,0,0,0,0-0.1c0-0.3,0-0.6-0.1-0.9v-0.4
		c-0.2-1.9-0.2-3.8-0.1-5.3c0.3-3.7,2.4-6.4,5.2-6.7c0.8-0.4,1.8-0.6,2.8-0.6c1.2,0,2.4,0.3,3.5,0.9c2.2,1.2,3.6,3.6,3.8,6.4
		c0.1,1.4,0,2.6-0.1,3.8c0,0.5-0.1,1-0.1,1.4c-0.1,1.3,0.2,2,0.3,2.1l1.7-0.5l0.6-0.2l-1.2,1.6l1-0.2l-0.4,1.4
		c-0.5,1.6-1.5,2.2-2.2,2.3C247.8,183.2,247.6,183.2,247.4,183.2z M244.2,179.1c0.1,0.3,0.3,0.6,0.4,0.8c0.7,0.8,1.9,1.7,2.8,1.7
		c0.1,0,0.1,0,0.2,0c0.1,0,0.2-0.1,0.3-0.1c-0.4-0.1-0.7-0.2-1-0.5l-1.6-1.4h1.6c-0.5-0.9-0.5-2.2-0.4-3c0-0.4,0.1-0.9,0.1-1.4
		c0.1-1.2,0.2-2.4,0.1-3.6c-0.2-2.3-1.2-4.1-3-5.1c-0.8-0.5-1.7-0.7-2.7-0.7c-0.8,0-1.6,0.2-2.2,0.5l-0.3,0.1
		c-2.1,0.1-3.7,2.3-3.9,5.2c-0.1,1.4-0.1,3.3,0.1,5v0.3c0,0.4,0.1,0.7,0.1,1.1c0,0.6-0.2,0.9-0.4,1.2l1.1-0.2l-0.8,1.4
		c-0.3,0.5-0.8,0.8-1.4,0.9c0.1,0.1,0.3,0.1,0.4,0.1h0.1c1,0,2.6-1.2,3.2-2.3l0.1-0.1c-0.7-0.7-1.1-1.6-1.3-2.6v-0.2l1.1-0.2
		c-0.2-0.1-0.4-0.3-0.6-0.5c-0.4-0.8-0.4-2-0.4-2.2v-0.2l-0.2-0.6h-0.1v-0.2v-0.1l0,0c0-0.3,0-0.6,0-0.9c0-0.8,0.5-1.2,0.9-1.2
		c0.1,0,0.1,0,0.2,0c0.1,0,0.2,0,0.3,0.1c0.2-0.3,0.4-0.5,0.7-0.6c0.1,0,0.2-0.1,0.4-0.1c0.3,0,0.6,0.1,0.8,0.3c0,0,0.6,0.4,0.8,0.6
		l-0.5-1.3l1.9,1c0.9,0.5,2,1,3.4,1.4l0.2,0.1l-0.1,0.5c0.3,0,0.6,0.1,0.9,0.2l0.2,0.1l-0.3,1v0.1c0,0.2,0.1,1.5-0.3,2.1
		c-0.1,0.1-0.2,0.2-0.2,0.3l0.6,0.2l-0.1,0.2C245.1,177.3,244.7,178.2,244.2,179.1C244.2,179,244.2,179.1,244.2,179.1z M237.5,176.4
		c0.3,1.1,0.9,1.9,2.2,2.7c0.4,0.3,0.7,0.4,0.9,0.4s0.5-0.1,0.9-0.4c1-0.6,1.7-1.5,2.2-2.6c-0.2,0.1-0.5,0.1-0.8,0.1
		c-0.5,0-0.9-0.1-1.3-0.3c-0.7-0.3-0.9-1.1-1-1.9c-0.1,0.7-0.3,1.5-1,1.9c-0.4,0.2-0.8,0.3-1.3,0.3
		C238.1,176.6,237.8,176.5,237.5,176.4z M242.3,173.8c0.1,0.9,0.2,1.1,0.2,1.1s0.2,0,0.4,0c0.4,0,0.8-0.1,0.9-0.3
		c0-0.1,0.1-0.6,0.1-1.1c-0.1,0-0.1,0-0.1,0C243.3,173.6,242.8,173.7,242.3,173.8z M237.6,173.6c0,0.5,0.1,1,0.1,1.1
		c0.1,0.1,0.4,0.2,0.8,0.2c0.2,0,0.5,0,0.6-0.1l0,0c0,0,0-0.2,0.1-1.1l0,0c-0.5-0.1-0.9-0.2-1.4-0.2
		C237.7,173.6,237.7,173.6,237.6,173.6z M241.5,172.3c0.1,0,0.2-0.1,0.3-0.1c-0.1,0-0.1-0.1-0.2-0.1L241.5,172.3z M238.3,172
		c0.4,0,0.9,0.1,1.3,0.2c-0.4-0.2-0.7-0.5-1.1-0.8v0.1C238.4,171.8,238.4,171.9,238.3,172z"/>
	<path class="st2" d="M240.7,184.8c-1.5,0-3-0.7-4.5-2l-0.7-0.6l0.7-0.6c0.3-0.3,0.6-0.6,0.7-1l0.1-0.2l1.5,0.6l-0.1,0.2
		c-0.1,0.4-0.3,0.7-0.5,1c0.9,0.7,1.9,1.1,2.8,1.1s1.8-0.4,2.8-1.1c-0.2-0.3-0.4-0.7-0.6-1l-0.1-0.2l1.5-0.6l0.1,0.2
		c0.1,0.4,0.4,0.7,0.7,1l0.7,0.6l-0.7,0.6C243.7,184.1,242.2,184.8,240.7,184.8z"/>
	<path class="st1" d="M104.4,194c-0.5,0-1,0-1.5,0c-16.6-1-29.7-13.8-30.3-29.8c-0.3-8.1,2.5-15.9,8.1-21.9
		c5.9-6.4,14-10.1,22.8-10.4l0,0c0.7,0,1.1,0.5,1.1,1c0,0.3-0.1,0.5-0.3,0.7c-0.2,0.2-0.5,0.3-0.8,0.3c-8.3,0.3-15.9,3.7-21.5,9.6
		c-5.2,5.6-8,12.9-7.7,20.4c0.6,15.1,12.9,27.1,28.5,28h2.7c0.3,0,0.6,0,0.8,0c0.3,0,0.6,0,0.9,0h0.4l0.1,2h-0.2
		C106.6,193.9,105.5,194,104.4,194z"/>
	<g>
		<path class="st2" d="M225.4,95l-0.2-47.8l52.7-0.2l0.2,38.6l-43.5,0.2L225.4,95z M275.8,83.4l-0.2-34.3l-48.3,0.2l0.2,40.4
			l6.1-6.2L275.8,83.4z"/>
		<path class="st2" d="M212.2,80.4l-10.7-10.9L150,69.2l0.2-46.4l62.2,0.3L212.2,80.4z M210.2,25.2l-57.8-0.3L152.2,67l50.2,0.2
			L210,75L210.2,25.2z"/>
		<path class="st2" d="M264.7,71.5c-3.2,0-5.8-2.6-5.8-5.8c0-3.2,2.6-5.8,5.8-5.8c3.2,0,5.8,2.6,5.8,5.8c0,1.6-0.6,3-1.7,4.1
			C267.7,70.9,266.3,71.5,264.7,71.5L264.7,71.5z M262,63c-0.7,0.7-1.1,1.7-1.1,2.7c0,2.1,1.7,3.7,3.8,3.7c1,0,1.9-0.4,2.6-1.1
			s1.1-1.7,1.1-2.7c0-2-1.7-3.7-3.8-3.7C263.7,61.9,262.7,62.3,262,63z"/>
		<path class="st2" d="M250.8,71.5c-3.2,0-5.8-2.6-5.8-5.8c0-3.2,2.6-5.8,5.8-5.8s5.8,2.6,5.8,5.8c0,1.6-0.6,3-1.7,4.1
			C253.9,70.9,252.4,71.5,250.8,71.5L250.8,71.5z M248.2,63c-0.7,0.7-1.1,1.7-1.1,2.7c0,2.1,1.7,3.7,3.8,3.7c1,0,1.9-0.4,2.6-1.1
			s1.1-1.7,1.1-2.7c0-2-1.7-3.7-3.8-3.7C249.8,61.9,248.9,62.3,248.2,63z"/>
		<path class="st2" d="M236.9,71.5c-3.2,0-5.8-2.6-5.8-5.8c0-3.2,2.6-5.8,5.8-5.8s5.8,2.6,5.8,5.8c0,1.6-0.6,3-1.7,4.1
			C240,70.9,238.5,71.5,236.9,71.5L236.9,71.5z M234.3,63c-0.7,0.7-1.1,1.7-1.1,2.7c0,2.1,1.7,3.7,3.8,3.7c1,0,1.9-0.4,2.6-1.1
			s1.1-1.7,1.1-2.7c0-2-1.7-3.7-3.8-3.7C235.9,61.9,235,62.3,234.3,63z"/>
		<path class="st2" d="M194.6,50.9c-3.2,0-5.8-2.6-5.8-5.8s2.6-5.8,5.8-5.8s5.8,2.6,5.8,5.8c0,1.5-0.6,3-1.7,4.1
			C197.6,50.3,196.2,50.9,194.6,50.9L194.6,50.9z M191.9,42.4c-0.7,0.7-1.1,1.7-1.1,2.7c0,2.1,1.7,3.7,3.8,3.7c1,0,1.9-0.4,2.6-1.1
			s1.1-1.7,1.1-2.7c0-2-1.7-3.7-3.8-3.7C193.6,41.3,192.6,41.7,191.9,42.4z"/>
		<path class="st2" d="M180.7,50.9c-3.2,0-5.8-2.6-5.8-5.8s2.6-5.8,5.8-5.8s5.8,2.6,5.8,5.8c0,1.5-0.6,3-1.7,4.1
			C183.7,50.3,182.3,50.9,180.7,50.9L180.7,50.9z M178,42.4c-0.7,0.7-1.1,1.7-1.1,2.7c0,2.1,1.7,3.7,3.8,3.7c1,0,1.9-0.4,2.6-1.1
			s1.1-1.7,1.1-2.7c0-2-1.7-3.7-3.8-3.7C179.7,41.3,178.7,41.7,178,42.4z"/>
		<path class="st2" d="M166.8,50.9c-3.2,0-5.8-2.6-5.8-5.8s2.6-5.8,5.8-5.8s5.8,2.6,5.8,5.8c0,1.5-0.6,3-1.7,4.1
			C169.9,50.3,168.4,50.9,166.8,50.9L166.8,50.9z M164.2,42.4c-0.7,0.7-1.1,1.7-1.1,2.7c0,2.1,1.7,3.7,3.8,3.7c1,0,1.9-0.4,2.6-1.1
			s1.1-1.7,1.1-2.7c0-2-1.7-3.7-3.8-3.7C165.8,41.3,164.9,41.7,164.2,42.4z"/>
	</g>
</g>
</svg>
