<?xml version="1.0" encoding="UTF-8"?>
<!-- Generator: Adobe Illustrator 24.1.0, SVG Export Plug-In . SVG Version: 6.00 Build 0)  -->
<svg version="1.1" id="Layer_1" xmlns="http://www.w3.org/2000/svg" xmlns:xlink="http://www.w3.org/1999/xlink" x="0px" y="0px" viewBox="0 0 115 115" style="enable-background:new 0 0 115 115;" xml:space="preserve">
<style type="text/css">
	.st0{fill-rule:evenodd;clip-rule:evenodd;fill:#FFFFFF;}
</style>
<g>
	<path class="st0" d="M21.8,104.9c-10.6,0-19.1-8.6-19.1-19.1s8.6-19.1,19.1-19.1s19.1,8.6,19.1,19.1S32.3,104.9,21.8,104.9z    M21.8,69.4c-9,0-16.4,7.3-16.4,16.4s7.3,16.4,16.4,16.4c9,0,16.4-7.4,16.4-16.4C38.1,76.8,30.8,69.4,21.8,69.4z"/>
	<path class="st0" d="M41.3,74.9c-0.4-0.7-0.8-1.3-1.2-2L40,72.8L56,63V44.4h1.3c0.4,0,0.8,0,1.2,0h0.2V63L75,72v0.1   c-0.4,0.7-0.8,1.3-1.1,2l-0.1,0.1l-16.4-9l-16,9.7L41.3,74.9z"/>
	<path class="st0" d="M57.5,40.9c-10.5,0-19.1-8.3-19.1-18.4S47,4.1,57.5,4.1s19.1,8.2,19.1,18.4S68,40.9,57.5,40.9L57.5,40.9z    M57.5,6.8c-9,0-16.4,7.1-16.4,15.7c0,8.7,7.3,15.8,16.4,15.8c9,0,16.4-7.1,16.4-15.8S66.5,6.8,57.5,6.8L57.5,6.8z"/>
	<path class="st0" d="M93.2,103.4c-10.6,0-19.1-8.6-19.1-19.1s8.6-19.1,19.1-19.1s19.1,8.6,19.1,19.1   C112.4,94.9,103.8,103.4,93.2,103.4z M93.3,68.1c-8.9,0-16.2,7.3-16.3,16.2c0,4.3,1.6,8.4,4.7,11.5c3,3,7,4.8,11.3,4.8l0.2,0.1   c9,0,16.3-7.3,16.4-16.3C109.6,75.4,102.3,68.1,93.3,68.1L93.3,68.1L93.3,68.1z"/>
	<path class="st0" d="M57.5,110.9c-3.6,0-6.6-2.7-7.1-6.2v-0.2h-0.2c-4-0.7-7.9-2.1-11.5-4.1l-0.2-0.1l0.1-0.1c0.5-0.6,1-1.3,1.5-2   l0.1-0.1l0.1,0.1c3.2,1.7,6.5,2.9,10.1,3.6h0.2l0.1-0.2c1-3,3.7-5,6.9-5c3.3,0,6.2,2.2,7,5.4l0.1,0.2h0.2c4.5-0.7,8.7-2.1,12.7-4   l0.1-0.1l0.1,0.1c0.5,0.6,1.1,1.2,1.7,1.7l0.2,0.1l-0.2,0.1c-4.5,2.3-9.3,3.8-14.4,4.6h-0.2v0.2C64.1,108.3,61.1,110.9,57.5,110.9   L57.5,110.9z M57.5,99c-2.6,0-4.7,2.1-4.7,4.7s2.1,4.7,4.7,4.7c2.6,0,4.7-2.1,4.7-4.7S60.1,99,57.5,99L57.5,99L57.5,99L57.5,99z"/>
	<path class="st0" d="M100.3,63.1c-0.7-0.2-1.5-0.4-2.2-0.6H98V62c0-4.2-0.7-8.3-1.9-12.3L96,49.5h-0.2c-0.6,0.2-1.2,0.2-1.8,0.2   c-4,0-7.2-3.2-7.2-7.2c0-2,0.8-3.8,2.2-5.2l0.2-0.2l-0.1-0.2c-2.9-3.6-6.3-6.6-10.2-9L78.6,28v-0.1c0.2-0.8,0.4-1.7,0.5-2.6v-0.2   l0.2,0.1c4.6,2.7,8.6,6.2,12,10.5l0.1,0.1h0.2c0.8-0.3,1.6-0.4,2.4-0.4c4,0,7.2,3.2,7.2,7.2c0,2.2-1,4.3-2.8,5.7l-0.1,0.1l0.1,0.2   c1.4,4.4,2.2,9,2.2,13.5v1.1L100.3,63.1z M93.9,37.9c-1.2,0-2.4,0.5-3.3,1.4s-1.4,2.1-1.4,3.3c0,2.6,2.1,4.7,4.7,4.7   c0.3,0,0.5,0,0.9-0.1l0.3-0.1l0.1-0.1h0.2c1.9-0.7,3.2-2.4,3.2-4.4C98.6,40,96.5,37.9,93.9,37.9L93.9,37.9L93.9,37.9L93.9,37.9z"/>
	<path class="st0" d="M21.8,93c-4,0-7.2-3.2-7.2-7.2s3.2-7.2,7.2-7.2s7.2,3.2,7.2,7.2S25.7,93,21.8,93z M21.8,81.1   c-2.6,0-4.7,2.1-4.7,4.7s2.1,4.7,4.7,4.7s4.7-2.1,4.7-4.7C26.4,83.2,24.3,81.1,21.8,81.1L21.8,81.1L21.8,81.1z"/>
	<path class="st0" d="M94,91.5c-4,0-7.2-3.2-7.2-7.2c0-1.9,0.7-3.7,2.1-5.1s3.2-2.1,5.1-2.1c4,0,7.2,3.2,7.2,7.2S97.9,91.5,94,91.5   L94,91.5z M94,79.6c-2.6,0-4.7,2.1-4.7,4.7S91.4,89,94,89s4.7-2.1,4.7-4.7S96.6,79.6,94,79.6z"/>
	<path class="st0" d="M57.5,29.7c-4,0-7.2-3.2-7.2-7.2s3.2-7.2,7.2-7.2s7.2,3.2,7.2,7.2S61.5,29.7,57.5,29.7L57.5,29.7z M57.5,17.8   c-2.6,0-4.7,2.1-4.7,4.7s2.1,4.7,4.7,4.7s4.7-2.1,4.7-4.7S60.1,17.8,57.5,17.8z"/>
	<path class="st0" d="M14.6,65.9c-0.1-1-0.1-2.1-0.1-3.2c0-4.8,0.7-9.6,2.2-14.2l0.1-0.2l-0.1-0.1c-1.8-1.4-2.9-3.5-2.9-5.7   c0-4,3.2-7.2,7.2-7.2c0.8,0,1.6,0.1,2.4,0.4h0.2l0.1-0.1c3.3-4.2,7.4-7.8,12-10.5l0.2-0.1v0.2c0.1,0.9,0.3,1.7,0.5,2.5v0.1L36.3,28   c-3.9,2.4-7.3,5.5-10.2,9.1L26,37.3l0.1,0.2c1.4,1.4,2.2,3.2,2.2,5.1c0,4-3.2,7.2-7.2,7.2c-0.5,0-1.1-0.1-1.7-0.2h-0.2l-0.1,0.2   c-1.3,4.2-2,8.6-2,13c0,0.4,0,0.8,0,1.3v0.1c0,0.4,0,0.7,0,1v0.1H17c-0.8,0.2-1.5,0.4-2.2,0.7l-0.2,0.1L14.6,65.9z M21,37.9   c-2.6,0-4.7,2.1-4.7,4.7c0,2.6,2.1,4.7,4.7,4.7s4.7-2.1,4.7-4.7S23.6,37.9,21,37.9L21,37.9L21,37.9L21,37.9z"/>
</g>
</svg>