<?xml version="1.0" encoding="utf-8"?>
<!-- Generator: Adobe Illustrator 24.1.0, SVG Export Plug-In . SVG Version: 6.00 Build 0)  -->
<svg version="1.1" id="Layer_1" xmlns="http://www.w3.org/2000/svg" xmlns:xlink="http://www.w3.org/1999/xlink" x="0px" y="0px"
	 viewBox="0 0 312 305" style="enable-background:new 0 0 312 305;" xml:space="preserve">
<style type="text/css">
	.st0{fill:#333E48;}
	.st1{fill-rule:evenodd;clip-rule:evenodd;fill:#333E48;}
	.st2{fill-rule:evenodd;clip-rule:evenodd;fill:#841D80;}
</style>
<g>
	<g>
		<g>
			<g>
				<path class="st0" d="M167.6,12.1c0,0.2,0,0.4-0.1,0.6s-0.1,0.4-0.2,0.5c-0.1,0.1-0.2,0.3-0.4,0.4s-0.4,0.2-0.6,0.3V14
					c0.2,0,0.4,0.1,0.6,0.2s0.4,0.2,0.5,0.4c0.1,0.1,0.2,0.3,0.3,0.5s0.1,0.5,0.1,0.8c0,0.4-0.1,0.7-0.2,1s-0.4,0.5-0.6,0.7
					c-0.3,0.2-0.6,0.3-0.9,0.4s-0.7,0.1-1.1,0.1c-0.1,0-0.3,0-0.5,0s-0.4,0-0.6,0s-0.4,0-0.6,0c-0.2,0-0.4,0-0.6-0.1v-7.3
					c0.1,0,0.3,0,0.5-0.1c0.2,0,0.4,0,0.6-0.1c0.2,0,0.4,0,0.6,0c0.2,0,0.4,0,0.6,0c0.3,0,0.7,0,1,0.1s0.6,0.1,0.9,0.3
					c0.3,0.1,0.5,0.3,0.6,0.6C167.5,11.4,167.6,11.7,167.6,12.1z M164.5,13.4c0.1,0,0.2,0,0.3,0s0.2,0,0.3,0
					c0.3-0.1,0.5-0.2,0.7-0.4s0.3-0.4,0.3-0.7c0-0.2,0-0.3-0.1-0.4s-0.2-0.2-0.3-0.3s-0.2-0.1-0.4-0.1s-0.3,0-0.5,0s-0.4,0-0.5,0
					s-0.3,0-0.4,0v1.9H164.5L164.5,13.4z M164.9,16.6c0.2,0,0.3,0,0.5-0.1s0.3-0.1,0.4-0.2c0.1-0.1,0.2-0.2,0.3-0.3
					c0.1-0.1,0.1-0.3,0.1-0.5s0-0.4-0.1-0.5s-0.2-0.2-0.4-0.3c-0.1-0.1-0.3-0.1-0.5-0.1s-0.4,0-0.5,0H164v2c0,0,0.1,0,0.2,0
					c0.1,0,0.2,0,0.2,0c0.1,0,0.2,0,0.3,0C164.8,16.6,164.9,16.6,164.9,16.6z"/>
				<path class="st0" d="M173,17.3c-0.2,0.2-0.5,0.3-0.9,0.4s-0.8,0.2-1.1,0.2c-0.9,0-1.5-0.2-1.9-0.7s-0.6-1.2-0.6-2
					c0-0.9,0.2-1.6,0.7-2.1c0.4-0.5,1.1-0.7,1.9-0.7c0.3,0,0.5,0,0.8,0.1s0.5,0.2,0.7,0.4s0.4,0.4,0.5,0.6c0.1,0.3,0.2,0.6,0.2,1
					c0,0.1,0,0.3,0,0.5s0,0.3-0.1,0.5h-3.1c0,0.4,0.1,0.8,0.3,1s0.5,0.3,1,0.3c0.3,0,0.5,0,0.8-0.1s0.4-0.2,0.5-0.3L173,17.3z
					 M171.1,13.4c-0.4,0-0.6,0.1-0.8,0.3s-0.3,0.5-0.3,0.9h1.9c0-0.4,0-0.7-0.2-0.9C171.6,13.5,171.4,13.4,171.1,13.4z"/>
				<path class="st0" d="M176.3,16.3c0-0.1-0.1-0.2-0.2-0.3c-0.1-0.1-0.3-0.2-0.4-0.2s-0.4-0.1-0.6-0.2s-0.4-0.2-0.6-0.3
					c-0.2-0.1-0.3-0.3-0.4-0.5s-0.2-0.5-0.2-0.8c0-0.5,0.1-0.9,0.5-1.2c0.3-0.3,0.8-0.4,1.3-0.4c0.4,0,0.8,0,1.1,0.1
					s0.6,0.2,0.8,0.3l-0.3,1c-0.2-0.1-0.4-0.1-0.6-0.2s-0.5-0.1-0.8-0.1c-0.4,0-0.6,0.2-0.6,0.5c0,0.1,0.1,0.2,0.2,0.3
					c0.1,0.1,0.3,0.1,0.4,0.2c0.2,0.1,0.4,0.1,0.6,0.2s0.4,0.2,0.6,0.3s0.3,0.3,0.4,0.5s0.2,0.4,0.2,0.8c0,0.5-0.2,1-0.5,1.3
					s-0.9,0.5-1.5,0.5c-0.4,0-0.7,0-1.1-0.1c-0.3-0.1-0.6-0.2-0.8-0.3l0.4-1c0.2,0.1,0.4,0.2,0.6,0.3c0.3,0.1,0.5,0.1,0.8,0.1
					c0.2,0,0.4,0,0.5-0.1C176.3,16.6,176.3,16.5,176.3,16.3z"/>
				<path class="st0" d="M178.1,12.4h0.7v-1l1.4-0.4v1.4h1.3v1.2h-1.3v2c0,0.4,0,0.6,0.1,0.8s0.2,0.2,0.4,0.2c0.1,0,0.3,0,0.4,0
					s0.2-0.1,0.3-0.1l0.2,1.1c-0.2,0.1-0.4,0.2-0.7,0.2s-0.5,0.1-0.8,0.1c-0.5,0-0.8-0.1-1.1-0.4s-0.3-0.7-0.3-1.2v-2.7H178
					L178.1,12.4L178.1,12.4z"/>
				<path class="st0" d="M190.2,11.6h-2.1v6.1h-1.4v-6.1h-2.2v-1.3h5.8L190.2,11.6L190.2,11.6z"/>
				<path class="st0" d="M190.9,11c0-0.2,0.1-0.4,0.2-0.5c0.1-0.1,0.4-0.2,0.6-0.2s0.5,0.1,0.6,0.2c0.2,0.1,0.2,0.3,0.2,0.5
					s-0.1,0.4-0.2,0.5s-0.4,0.2-0.6,0.2s-0.5-0.1-0.6-0.2S190.9,11.2,190.9,11z M191.1,12.4h1.4v5.3h-1.4V12.4z"/>
				<path class="st0" d="M196.8,17.7v-2.9c0-0.5-0.1-0.8-0.1-1s-0.3-0.3-0.6-0.3c-0.2,0-0.4,0.1-0.6,0.2c-0.1,0.1-0.3,0.3-0.3,0.5
					v3.5h-1.4v-5.3h1.1l0.2,0.7l0,0c0.2-0.2,0.4-0.4,0.6-0.6s0.6-0.2,1-0.2c0.3,0,0.6,0.1,0.8,0.2c0.2,0.1,0.4,0.4,0.5,0.7
					c0.2-0.3,0.4-0.5,0.6-0.6s0.6-0.2,0.9-0.2c0.3,0,0.6,0,0.8,0.1s0.4,0.2,0.5,0.4s0.2,0.4,0.3,0.7s0.1,0.6,0.1,1.1v3.2h-1.4v-3
					c0-0.4,0-0.7-0.1-0.9s-0.3-0.3-0.6-0.3c-0.2,0-0.4,0.1-0.6,0.2s-0.2,0.3-0.3,0.6V18L196.8,17.7L196.8,17.7z"/>
				<path class="st0" d="M206.5,17.3c-0.2,0.2-0.5,0.3-0.9,0.4s-0.8,0.2-1.1,0.2c-0.9,0-1.5-0.2-1.9-0.7s-0.6-1.2-0.6-2
					c0-0.9,0.2-1.6,0.7-2.1c0.4-0.5,1.1-0.7,1.9-0.7c0.3,0,0.5,0,0.8,0.1s0.5,0.2,0.7,0.4s0.4,0.4,0.5,0.6c0.1,0.3,0.2,0.6,0.2,1
					c0,0.1,0,0.3,0,0.5s0,0.3-0.1,0.5h-3.1c0,0.4,0.1,0.8,0.3,1s0.5,0.3,1,0.3c0.3,0,0.5,0,0.8-0.1s0.4-0.2,0.5-0.3L206.5,17.3z
					 M204.5,13.4c-0.4,0-0.6,0.1-0.8,0.3s-0.3,0.5-0.3,0.9h1.9c0-0.4,0-0.7-0.2-0.9C205.1,13.5,204.8,13.4,204.5,13.4z"/>
				<path class="st0" d="M210.5,10.2l1,0.5l-3.8,8.5l-1-0.5L210.5,10.2z"/>
				<path class="st0" d="M213.8,13.9l-0.6-1.2h-0.1l0.2,1.2v3.8H212v-7.4h1.1l2.8,3.9l0.6,1.1h0.1l-0.2-1.1v-3.9h1.4v7.4h-1.1
					L213.8,13.9z"/>
				<path class="st0" d="M220.2,12.4v3c0,0.4,0.1,0.7,0.1,0.9c0.1,0.2,0.3,0.3,0.6,0.3s0.5-0.1,0.6-0.2s0.3-0.3,0.4-0.6v-3.4h1.4
					v3.7c0,0.3,0,0.6,0,0.9s0.1,0.5,0.1,0.8h-1l-0.2-0.8l0,0c-0.2,0.3-0.4,0.5-0.7,0.7s-0.6,0.3-1,0.3c-0.3,0-0.5,0-0.7-0.1
					s-0.4-0.2-0.5-0.4s-0.2-0.4-0.3-0.6s-0.1-0.6-0.1-1v-3.3h1.3V12.4z"/>
				<path class="st0" d="M227.5,17.7v-2.9c0-0.5-0.1-0.8-0.1-1s-0.3-0.3-0.6-0.3c-0.2,0-0.4,0.1-0.6,0.2c-0.1,0.1-0.3,0.3-0.3,0.5
					v3.5h-1.4v-5.3h1.1l0.2,0.7l0,0c0.2-0.2,0.4-0.4,0.6-0.6s0.6-0.2,1-0.2c0.3,0,0.6,0.1,0.8,0.2c0.2,0.1,0.4,0.4,0.5,0.7
					c0.2-0.3,0.4-0.5,0.6-0.6s0.6-0.2,0.9-0.2c0.3,0,0.6,0,0.8,0.1s0.4,0.2,0.5,0.4s0.2,0.4,0.3,0.7s0.1,0.6,0.1,1.1v3.2h-1.4v-3
					c0-0.4,0-0.7-0.1-0.9s-0.3-0.3-0.6-0.3c-0.2,0-0.4,0.1-0.6,0.2s-0.2,0.3-0.3,0.6V18L227.5,17.7L227.5,17.7z"/>
				<path class="st0" d="M233,10.3h1.4v2.5l0,0c0.1-0.2,0.3-0.3,0.6-0.4c0.2-0.1,0.5-0.1,0.8-0.1c0.6,0,1.1,0.2,1.4,0.6
					c0.3,0.4,0.5,1.1,0.5,2s-0.2,1.7-0.7,2.2s-1.1,0.7-1.9,0.7c-0.4,0-0.9,0-1.2-0.1s-0.6-0.2-0.8-0.2L233,10.3L233,10.3z
					 M235.4,13.5c-0.2,0-0.5,0.1-0.6,0.2c-0.2,0.1-0.3,0.3-0.4,0.6v2.3c0.1,0.1,0.2,0.1,0.4,0.1c0.1,0,0.3,0,0.4,0
					c0.4,0,0.7-0.1,0.9-0.4s0.3-0.7,0.3-1.3C236.3,14,236,13.5,235.4,13.5z"/>
				<path class="st0" d="M242.9,17.3c-0.2,0.2-0.5,0.3-0.9,0.4s-0.8,0.2-1.1,0.2c-0.9,0-1.5-0.2-1.9-0.7s-0.6-1.2-0.6-2
					c0-0.9,0.2-1.6,0.7-2.1c0.4-0.5,1.1-0.7,1.9-0.7c0.3,0,0.5,0,0.8,0.1s0.5,0.2,0.7,0.4s0.4,0.4,0.5,0.6c0.1,0.3,0.2,0.6,0.2,1
					c0,0.1,0,0.3,0,0.5s0,0.3-0.1,0.5H240c0,0.4,0.1,0.8,0.3,1s0.5,0.3,1,0.3c0.3,0,0.5,0,0.8-0.1s0.4-0.2,0.5-0.3L242.9,17.3z
					 M240.9,13.4c-0.4,0-0.6,0.1-0.8,0.3s-0.3,0.5-0.3,0.9h1.9c0-0.4,0-0.7-0.2-0.9C241.5,13.5,241.2,13.4,240.9,13.4z"/>
				<path class="st0" d="M246.9,13.7c-0.2-0.1-0.4-0.1-0.6-0.1c-0.2,0-0.4,0.1-0.6,0.2c-0.2,0.1-0.3,0.3-0.3,0.5v3.4H244v-5.3h1.1
					l0.2,0.7l0,0c0.1-0.3,0.3-0.5,0.5-0.6s0.4-0.2,0.7-0.2c0.2,0,0.4,0,0.6,0.1L246.9,13.7z"/>
				<path class="st0" d="M255.7,11.6h-2.1v6.1h-1.4v-6.1H250v-1.3h5.8L255.7,11.6L255.7,11.6z"/>
				<path class="st0" d="M256.1,15.1c0-0.9,0.2-1.6,0.7-2.1c0.4-0.5,1-0.7,1.8-0.7c0.4,0,0.8,0.1,1.1,0.2s0.6,0.3,0.8,0.6
					c0.2,0.2,0.4,0.5,0.5,0.9s0.1,0.7,0.1,1.1c0,0.9-0.2,1.6-0.6,2.1s-1,0.7-1.8,0.7c-0.4,0-0.8-0.1-1.1-0.2s-0.6-0.3-0.8-0.6
					s-0.4-0.5-0.5-0.9C256.2,15.9,256.1,15.5,256.1,15.1z M257.6,15.1c0,0.2,0,0.4,0.1,0.6c0,0.2,0.1,0.4,0.2,0.5s0.2,0.3,0.3,0.3
					c0.1,0.1,0.3,0.1,0.5,0.1c0.4,0,0.6-0.1,0.8-0.4c0.2-0.3,0.3-0.7,0.3-1.2s-0.1-0.9-0.2-1.2s-0.4-0.4-0.8-0.4
					c-0.3,0-0.6,0.1-0.8,0.4C257.6,14.1,257.6,14.5,257.6,15.1z"/>
				<path class="st0" d="M269.8,17.4c-0.2,0.2-0.5,0.3-0.9,0.4s-0.7,0.1-1.1,0.1s-0.9-0.1-1.3-0.2s-0.8-0.4-1-0.7
					c-0.3-0.3-0.5-0.7-0.7-1.2c-0.2-0.5-0.3-1.1-0.3-1.8s0.1-1.3,0.3-1.8c0.2-0.5,0.5-0.9,0.8-1.2s0.7-0.5,1.1-0.6s0.8-0.2,1.2-0.2
					c0.4,0,0.8,0,1.1,0.1s0.5,0.1,0.7,0.2l-0.3,1.2c-0.2-0.1-0.4-0.1-0.6-0.2s-0.5-0.1-0.8-0.1c-0.6,0-1,0.2-1.4,0.6
					c-0.4,0.4-0.5,1.1-0.5,1.9c0,0.4,0,0.7,0.1,1s0.2,0.6,0.4,0.8s0.4,0.4,0.6,0.5c0.3,0.1,0.5,0.2,0.9,0.2c0.3,0,0.6,0,0.8-0.1
					s0.4-0.1,0.6-0.2L269.8,17.4z"/>
				<path class="st0" d="M270.6,12.8c0.3-0.1,0.6-0.2,1-0.3s0.8-0.1,1.2-0.1c0.4,0,0.7,0,0.9,0.1s0.4,0.2,0.6,0.4s0.2,0.4,0.3,0.6
					s0.1,0.5,0.1,0.8s0,0.6,0,0.9s0,0.6,0,0.9c0,0.3,0,0.6,0,0.9s0.1,0.5,0.2,0.8h-1.1l-0.2-0.7l0,0c-0.1,0.2-0.3,0.4-0.6,0.6
					c-0.2,0.2-0.6,0.2-1,0.2c-0.2,0-0.5,0-0.7-0.1s-0.4-0.2-0.5-0.3s-0.2-0.3-0.3-0.5c-0.1-0.2-0.1-0.4-0.1-0.6
					c0-0.3,0.1-0.6,0.2-0.8s0.4-0.4,0.6-0.5s0.6-0.2,1-0.3s0.8-0.1,1.3-0.1c0-0.4,0-0.7-0.1-0.9s-0.3-0.3-0.7-0.3
					c-0.3,0-0.6,0-0.9,0.1s-0.6,0.1-0.8,0.2L270.6,12.8z M272.3,16.7c0.3,0,0.5-0.1,0.6-0.2s0.3-0.2,0.4-0.4v-0.7
					c-0.2,0-0.4,0-0.6,0s-0.4,0.1-0.5,0.1c-0.1,0.1-0.3,0.1-0.4,0.2s-0.1,0.2-0.1,0.4c0,0.2,0.1,0.4,0.2,0.5
					C272,16.6,272.1,16.7,272.3,16.7z"/>
				<path class="st0" d="M277.3,15.9c0,0.3,0,0.4,0.1,0.5s0.2,0.2,0.3,0.2c0.1,0,0.2,0,0.2,0s0.2,0,0.3-0.1l0.1,1.1
					c-0.1,0.1-0.3,0.1-0.5,0.2s-0.5,0.1-0.7,0.1c-0.4,0-0.7-0.1-0.9-0.3s-0.3-0.5-0.3-0.9v-6.3h1.4V15.9L277.3,15.9z"/>
				<path class="st0" d="M280.4,15.9c0,0.3,0,0.4,0.1,0.5s0.2,0.2,0.3,0.2c0.1,0,0.2,0,0.2,0s0.2,0,0.3-0.1l0.1,1.1
					c-0.1,0.1-0.3,0.1-0.5,0.2s-0.5,0.1-0.7,0.1c-0.4,0-0.7-0.1-0.9-0.3s-0.3-0.5-0.3-0.9v-6.3h1.4V15.9L280.4,15.9z"/>
			</g>
		</g>
		<g>
			<g>
				<path class="st0" d="M173.1,46.5c0.3-0.1,0.6-0.1,1-0.1s0.7,0,1.1,0c0.4,0,0.7,0,1.1,0.1s0.7,0.2,1,0.4s0.5,0.4,0.7,0.8
					s0.3,0.7,0.3,1.2s-0.1,0.9-0.2,1.2s-0.4,0.6-0.6,0.8c-0.3,0.2-0.6,0.3-0.9,0.4s-0.7,0.1-1.1,0.1c0,0-0.1,0-0.2,0s-0.2,0-0.2,0
					c-0.1,0-0.2,0-0.2,0c-0.1,0-0.1,0-0.2,0v2.5h-1.4L173.1,46.5L173.1,46.5z M175.3,47.5c-0.1,0-0.3,0-0.4,0c-0.1,0-0.2,0-0.3,0V50
					h0.1c0.1,0,0.1,0,0.2,0s0.1,0,0.2,0s0.1,0,0.1,0c0.2,0,0.4,0,0.6,0c0.2,0,0.4-0.1,0.5-0.2c0.1-0.1,0.3-0.2,0.4-0.4
					s0.1-0.4,0.1-0.7c0-0.2,0-0.4-0.1-0.6c-0.1-0.2-0.2-0.3-0.3-0.4c-0.1-0.1-0.3-0.2-0.5-0.2S175.5,47.5,175.3,47.5z"/>
				<path class="st0" d="M180.5,48.5v3c0,0.4,0.1,0.7,0.1,0.9s0.3,0.3,0.6,0.3s0.5-0.1,0.6-0.2c0.2-0.2,0.3-0.3,0.4-0.6v-3.4h1.4
					v3.7c0,0.3,0,0.6,0,0.8s0.1,0.5,0.1,0.8h-1l-0.2-0.8l0,0c-0.2,0.3-0.4,0.5-0.7,0.7s-0.6,0.3-1,0.3c-0.3,0-0.5,0-0.7-0.1
					s-0.4-0.2-0.5-0.3s-0.2-0.4-0.3-0.7s-0.1-0.6-0.1-1v-3.3L180.5,48.5L180.5,48.5z"/>
				<path class="st0" d="M187.7,49.8c-0.2-0.1-0.4-0.1-0.6-0.1c-0.2,0-0.4,0.1-0.6,0.2c-0.2,0.1-0.3,0.3-0.3,0.5v3.4h-1.4v-5.3h1.1
					l0.2,0.7l0,0c0.1-0.3,0.3-0.5,0.5-0.6s0.4-0.2,0.7-0.2c0.2,0,0.4,0,0.6,0.1L187.7,49.8z"/>
				<path class="st0" d="M192.2,53.4c-0.2,0.2-0.5,0.3-0.8,0.3s-0.6,0.1-0.9,0.1c-0.4,0-0.8-0.1-1.1-0.2c-0.3-0.1-0.5-0.3-0.7-0.6
					c-0.2-0.2-0.3-0.5-0.4-0.9c-0.1-0.3-0.1-0.7-0.1-1.1c0-0.9,0.2-1.6,0.6-2.1c0.4-0.5,1-0.7,1.8-0.7c0.4,0,0.7,0,0.9,0.1
					s0.4,0.1,0.6,0.2l-0.3,1.1c-0.2-0.1-0.3-0.1-0.5-0.2c-0.2,0-0.3-0.1-0.5-0.1c-0.4,0-0.7,0.1-0.9,0.4s-0.3,0.7-0.3,1.2
					c0,0.2,0,0.4,0.1,0.6s0.1,0.4,0.2,0.5s0.2,0.2,0.4,0.3s0.3,0.1,0.6,0.1c0.2,0,0.4,0,0.6-0.1s0.3-0.1,0.4-0.2L192.2,53.4z"/>
				<path class="st0" d="M196.3,53.8v-3c0-0.4-0.1-0.7-0.2-0.9s-0.3-0.3-0.6-0.3c-0.2,0-0.4,0.1-0.6,0.2s-0.3,0.4-0.4,0.6v3.4h-1.4
					v-7.4h1.4v2.7l0,0c0.2-0.2,0.4-0.4,0.6-0.5c0.2-0.1,0.6-0.2,0.9-0.2c0.3,0,0.5,0,0.7,0.1s0.4,0.2,0.5,0.3s0.2,0.4,0.3,0.7
					s0.1,0.6,0.1,1v3.3L196.3,53.8L196.3,53.8z"/>
				<path class="st0" d="M198.8,48.8c0.3-0.1,0.6-0.2,1-0.3s0.8-0.1,1.2-0.1s0.7,0,0.9,0.1s0.4,0.2,0.6,0.4s0.2,0.3,0.3,0.6
					s0.1,0.5,0.1,0.8s0,0.6,0,0.9s0,0.6,0,0.9c0,0.3,0,0.6,0,0.9s0.1,0.5,0.2,0.8H202l-0.2-0.7h-0.1c-0.1,0.2-0.3,0.4-0.6,0.6
					c-0.2,0.2-0.6,0.2-1,0.2c-0.2,0-0.5,0-0.7-0.1s-0.4-0.2-0.5-0.3s-0.2-0.3-0.3-0.5s-0.1-0.4-0.1-0.6c0-0.3,0.1-0.6,0.2-0.8
					c0.1-0.2,0.4-0.4,0.6-0.5c0.3-0.1,0.6-0.2,1-0.3s0.8-0.1,1.3,0c0.1-0.4,0-0.7-0.1-0.8s-0.3-0.3-0.7-0.3c-0.3,0-0.6,0-0.9,0.1
					c-0.3,0.1-0.6,0.1-0.8,0.2L198.8,48.8z M200.5,52.7c0.3,0,0.5-0.1,0.6-0.2c0.2-0.1,0.3-0.2,0.4-0.4v-0.7c-0.2,0-0.4,0-0.6,0
					c-0.2,0-0.4,0-0.5,0.1c-0.1,0-0.3,0.1-0.4,0.2s-0.1,0.2-0.1,0.3c0,0.2,0.1,0.3,0.2,0.5S200.3,52.7,200.5,52.7z"/>
				<path class="st0" d="M206.2,52.3c0-0.1-0.1-0.2-0.2-0.3c-0.1-0.1-0.3-0.2-0.4-0.2s-0.4-0.1-0.6-0.2s-0.4-0.2-0.6-0.3
					c-0.2-0.1-0.3-0.3-0.4-0.5s-0.2-0.5-0.2-0.8c0-0.5,0.1-0.9,0.5-1.2c0.3-0.3,0.8-0.4,1.3-0.4c0.4,0,0.8,0,1.1,0.1
					s0.6,0.2,0.8,0.3l-0.3,1c-0.2-0.1-0.4-0.1-0.6-0.2s-0.5-0.1-0.8-0.1c-0.4,0-0.6,0.2-0.6,0.5c0,0.1,0.1,0.2,0.2,0.3
					s0.3,0.2,0.4,0.2c0.2,0.1,0.4,0.1,0.6,0.2s0.4,0.2,0.6,0.3s0.3,0.3,0.4,0.5s0.2,0.5,0.2,0.8c0,0.5-0.2,1-0.5,1.3
					s-0.9,0.5-1.5,0.5c-0.4,0-0.7,0-1.1-0.1c-0.3-0.1-0.6-0.2-0.8-0.3l0.4-1c0.2,0.1,0.4,0.2,0.6,0.3c0.3,0.1,0.5,0.1,0.8,0.1
					c0.2,0,0.4,0,0.5-0.1C206.2,52.6,206.2,52.5,206.2,52.3z"/>
				<path class="st0" d="M212.7,53.3c-0.2,0.2-0.5,0.3-0.9,0.4s-0.8,0.2-1.1,0.2c-0.9,0-1.5-0.2-1.9-0.7s-0.6-1.2-0.6-2
					c0-0.9,0.2-1.6,0.7-2.1c0.4-0.5,1.1-0.7,1.9-0.7c0.3,0,0.5,0,0.8,0.1s0.5,0.2,0.7,0.3c0.2,0.2,0.4,0.4,0.5,0.7s0.2,0.6,0.2,1
					c0,0.2,0,0.3,0,0.5s0,0.3-0.1,0.5h-3.1c0,0.4,0.1,0.8,0.3,1s0.5,0.3,1,0.3c0.3,0,0.5,0,0.8-0.1s0.4-0.2,0.5-0.3L212.7,53.3z
					 M210.8,49.4c-0.4,0-0.6,0.1-0.8,0.3s-0.3,0.5-0.3,0.9h1.9c0-0.4,0-0.7-0.2-0.9C211.3,49.5,211.1,49.4,210.8,49.4z"/>
				<path class="st0" d="M216.9,51.7c0-0.3,0-0.5,0.1-0.8c0.1-0.2,0.2-0.5,0.4-0.7s0.4-0.4,0.6-0.6c0.2-0.2,0.4-0.3,0.7-0.5
					c-0.2-0.2-0.3-0.5-0.4-0.7c-0.1-0.2-0.2-0.5-0.2-0.8c0-0.2,0-0.3,0.1-0.5s0.2-0.3,0.3-0.5c0.1-0.1,0.3-0.3,0.6-0.3
					s0.5-0.1,0.8-0.1s0.6,0,0.8,0.1s0.4,0.2,0.6,0.3s0.2,0.3,0.3,0.4c0.1,0.2,0.1,0.3,0.1,0.5c0,0.3-0.1,0.6-0.3,0.9
					c-0.2,0.3-0.6,0.6-1,0.9c0.2,0.4,0.5,0.7,0.7,1s0.5,0.6,0.8,0.9c0.2-0.2,0.3-0.4,0.4-0.7s0.2-0.5,0.3-0.8l1,0.5
					c0,0.1-0.1,0.3-0.2,0.4s-0.1,0.3-0.2,0.5c-0.1,0.2-0.2,0.3-0.3,0.4c-0.1,0.1-0.2,0.2-0.2,0.3c0.2,0.2,0.4,0.4,0.6,0.5
					s0.3,0.2,0.5,0.3l-0.7,1c-0.2-0.1-0.4-0.2-0.6-0.4s-0.4-0.3-0.6-0.5c-0.2,0.2-0.6,0.4-0.9,0.6c-0.4,0.2-0.9,0.3-1.4,0.3
					c-0.4,0-0.7,0-1-0.2c-0.3-0.1-0.6-0.2-0.8-0.4s-0.4-0.4-0.6-0.7C217,52.4,216.9,52.1,216.9,51.7z M221.1,52.2
					c-0.4-0.4-0.7-0.7-1-1.1s-0.6-0.7-0.8-1c-0.3,0.3-0.6,0.5-0.8,0.8c-0.2,0.2-0.3,0.5-0.3,0.8c0,0.4,0.1,0.6,0.4,0.8
					c0.3,0.2,0.6,0.3,1,0.3c0.3,0,0.5-0.1,0.8-0.2S220.9,52.3,221.1,52.2z M219.4,47.8c0,0.3,0.1,0.6,0.4,1c0.3-0.2,0.5-0.3,0.6-0.5
					s0.2-0.3,0.2-0.4c0-0.2-0.1-0.3-0.1-0.4c-0.1-0.1-0.2-0.2-0.5-0.2c-0.2,0-0.3,0-0.4,0.2C219.5,47.5,219.4,47.6,219.4,47.8z"/>
				<path class="st0" d="M227.8,46.5c0.3-0.1,0.6-0.1,1-0.1s0.7,0,1.1,0c0.4,0,0.7,0,1.1,0.1s0.7,0.2,1,0.4s0.5,0.4,0.7,0.8
					s0.3,0.7,0.3,1.2s-0.1,0.9-0.2,1.2s-0.4,0.6-0.6,0.8c-0.3,0.2-0.6,0.3-0.9,0.4s-0.7,0.1-1.1,0.1c0,0-0.1,0-0.2,0s-0.2,0-0.2,0
					c-0.1,0-0.2,0-0.2,0c-0.1,0-0.1,0-0.2,0v2.5H228L227.8,46.5L227.8,46.5z M230,47.5c-0.1,0-0.3,0-0.4,0c-0.1,0-0.2,0-0.3,0V50
					h0.1c0.1,0,0.1,0,0.2,0s0.1,0,0.2,0s0.1,0,0.1,0c0.2,0,0.4,0,0.6,0c0.2,0,0.4-0.1,0.5-0.2c0.1-0.1,0.3-0.2,0.4-0.4
					s0.1-0.4,0.1-0.7c0-0.2,0-0.4-0.1-0.6c-0.1-0.2-0.2-0.3-0.3-0.4c-0.1-0.1-0.3-0.2-0.5-0.2S230.2,47.5,230,47.5z"/>
				<path class="st0" d="M233.8,48.8c0.3-0.1,0.6-0.2,1-0.3s0.8-0.1,1.2-0.1s0.7,0,0.9,0.1s0.4,0.2,0.6,0.4s0.2,0.3,0.3,0.6
					s0.1,0.5,0.1,0.8s0,0.6,0,0.9s0,0.6,0,0.9c0,0.3,0,0.6,0,0.9s0.1,0.5,0.2,0.8H237l-0.2-0.7h-0.1c-0.1,0.2-0.3,0.4-0.6,0.6
					c-0.2,0.2-0.6,0.2-1,0.2c-0.2,0-0.5,0-0.7-0.1s-0.4-0.2-0.5-0.3s-0.2-0.3-0.3-0.5s-0.1-0.4-0.1-0.6c0-0.3,0.1-0.6,0.2-0.8
					c0.1-0.2,0.4-0.4,0.6-0.5c0.3-0.1,0.6-0.2,1-0.3s0.8-0.1,1.3,0c0.1-0.4,0-0.7-0.1-0.8s-0.3-0.3-0.7-0.3c-0.3,0-0.6,0-0.9,0.1
					c-0.3,0.1-0.6,0.1-0.8,0.2L233.8,48.8z M235.5,52.7c0.3,0,0.5-0.1,0.6-0.2c0.2-0.1,0.3-0.2,0.4-0.4v-0.7c-0.2,0-0.4,0-0.6,0
					c-0.2,0-0.4,0-0.5,0.1c-0.1,0-0.3,0.1-0.4,0.2s-0.1,0.2-0.1,0.3c0,0.2,0.1,0.3,0.2,0.5S235.3,52.7,235.5,52.7z"/>
				<path class="st0" d="M241,51.5l0.2,0.8h0.1l0.1-0.8l0.8-3h1.4l-1.6,4.8c-0.1,0.4-0.3,0.8-0.4,1.1c-0.1,0.3-0.3,0.6-0.4,0.8
					c-0.1,0.2-0.3,0.4-0.5,0.5s-0.4,0.2-0.6,0.2c-0.4,0-0.7-0.1-0.9-0.2l0.2-1.1c0.1,0,0.2,0.1,0.3,0.1c0.2,0,0.3-0.1,0.5-0.2
					s0.3-0.4,0.3-0.7l-2.2-5.3h1.6L241,51.5z"/>
				<path class="st0" d="M247.1,53.8v-2.9c0-0.5-0.1-0.8-0.1-1c-0.1-0.2-0.3-0.3-0.6-0.3c-0.2,0-0.4,0.1-0.6,0.2
					c-0.1,0.1-0.3,0.3-0.3,0.5v3.5h-1.4v-5.3h1.1l0.2,0.7l0,0c0.2-0.2,0.4-0.4,0.6-0.6c0.2-0.2,0.6-0.2,1-0.2c0.3,0,0.6,0.1,0.8,0.2
					c0.2,0.1,0.4,0.4,0.5,0.7c0.2-0.3,0.4-0.5,0.6-0.7s0.6-0.2,0.9-0.2c0.3,0,0.6,0,0.8,0.1s0.4,0.2,0.5,0.4s0.2,0.4,0.3,0.7
					s0.1,0.7,0.1,1.1v3.2h-1.4v-3c0-0.4,0-0.7-0.1-0.9s-0.3-0.3-0.6-0.3c-0.2,0-0.4,0.1-0.6,0.2s-0.2,0.3-0.3,0.5v3.5L247.1,53.8
					L247.1,53.8z"/>
				<path class="st0" d="M256.8,53.3c-0.2,0.2-0.5,0.3-0.9,0.4c-0.4,0.1-0.8,0.2-1.1,0.2c-0.9,0-1.5-0.2-1.9-0.7s-0.6-1.2-0.6-2
					c0-0.9,0.2-1.6,0.7-2.1c0.4-0.5,1.1-0.7,1.9-0.7c0.3,0,0.5,0,0.8,0.1s0.5,0.2,0.7,0.3c0.2,0.2,0.4,0.4,0.5,0.7s0.2,0.6,0.2,1
					c0,0.2,0,0.3,0,0.5s0,0.3-0.1,0.5h-3.2c0,0.4,0.1,0.8,0.3,1s0.5,0.3,1,0.3c0.3,0,0.5,0,0.8-0.1s0.4-0.2,0.5-0.3L256.8,53.3z
					 M254.8,49.4c-0.4,0-0.6,0.1-0.8,0.3s-0.3,0.5-0.3,0.9h1.9c0-0.4,0-0.7-0.2-0.9C255.4,49.5,255.2,49.4,254.8,49.4z"/>
				<path class="st0" d="M261.2,53.8v-3c0-0.4-0.1-0.7-0.2-0.9s-0.3-0.3-0.6-0.3c-0.3,0-0.5,0.1-0.7,0.2c-0.2,0.2-0.3,0.3-0.4,0.6
					v3.4H258v-5.3h1.1l0.2,0.7l0,0c0.2-0.2,0.4-0.4,0.6-0.6c0.3-0.2,0.6-0.2,1-0.2c0.3,0,0.5,0,0.7,0.1s0.4,0.2,0.5,0.3
					c0.1,0.2,0.2,0.4,0.3,0.7s0.1,0.6,0.1,1v3.3H261.2L261.2,53.8z"/>
				<path class="st0" d="M263.1,48.5h0.7v-1l1.4-0.4v1.4h1.3v1.2h-1.3v2c0,0.4,0,0.6,0.1,0.8s0.2,0.2,0.4,0.2c0.1,0,0.3,0,0.4,0
					s0.2-0.1,0.3-0.1l0.2,1c-0.2,0.1-0.4,0.2-0.7,0.2s-0.5,0.1-0.8,0.1c-0.5,0-0.8-0.1-1.1-0.4s-0.3-0.7-0.3-1.2v-2.7H263
					L263.1,48.5L263.1,48.5z"/>
				<path class="st0" d="M274.2,50.7h-2.7v3.1H270v-7.4h1.5v3h2.7v-3h1.5v7.4h-1.5V50.7z"/>
				<path class="st0" d="M276.8,47c0-0.2,0.1-0.4,0.2-0.5s0.4-0.2,0.6-0.2s0.5,0.1,0.6,0.2c0.2,0.1,0.2,0.3,0.2,0.5
					s-0.1,0.4-0.2,0.5s-0.4,0.2-0.6,0.2s-0.5-0.1-0.6-0.2S276.8,47.2,276.8,47z M277,48.5h1.4v5.3H277V48.5z"/>
				<path class="st0" d="M281.9,52.3c0-0.1-0.1-0.2-0.2-0.3s-0.3-0.2-0.4-0.2s-0.4-0.1-0.6-0.2s-0.4-0.2-0.6-0.3s-0.3-0.3-0.4-0.5
					s-0.2-0.5-0.2-0.8c0-0.5,0.1-0.9,0.5-1.2s0.8-0.4,1.3-0.4c0.4,0,0.8,0,1.1,0.1s0.6,0.2,0.8,0.3l-0.3,1c-0.2-0.1-0.4-0.1-0.6-0.2
					s-0.5-0.1-0.8-0.1c-0.4,0-0.6,0.2-0.6,0.5c0,0.1,0.1,0.2,0.2,0.3s0.3,0.2,0.4,0.2c0.2,0.1,0.4,0.1,0.6,0.2s0.4,0.2,0.6,0.3
					s0.3,0.3,0.4,0.5s0.2,0.5,0.2,0.8c0,0.5-0.2,1-0.5,1.3s-0.9,0.5-1.5,0.5c-0.4,0-0.7,0-1-0.1s-0.6-0.2-0.8-0.3l0.4-1
					c0.2,0.1,0.4,0.2,0.6,0.3c0.3,0.1,0.5,0.1,0.8,0.1c0.2,0,0.4,0,0.5-0.1C281.9,52.6,281.9,52.5,281.9,52.3z"/>
				<path class="st0" d="M283.6,48.5h0.7v-1l1.4-0.4v1.4h1.3v1.2h-1.3v2c0,0.4,0,0.6,0.1,0.8s0.2,0.2,0.4,0.2c0.1,0,0.3,0,0.4,0
					s0.2-0.1,0.3-0.1l0.2,1c-0.2,0.1-0.4,0.2-0.7,0.2s-0.5,0.1-0.8,0.1c-0.5,0-0.8-0.1-1.1-0.4s-0.3-0.7-0.3-1.2v-2.7h-0.7
					L283.6,48.5L283.6,48.5z"/>
				<path class="st0" d="M287.6,51.1c0-0.9,0.2-1.6,0.6-2.1s1-0.7,1.8-0.7c0.4,0,0.8,0.1,1.1,0.2s0.6,0.3,0.8,0.6
					c0.2,0.2,0.4,0.5,0.5,0.9s0.1,0.7,0.1,1.1c0,0.9-0.2,1.6-0.6,2.1s-1,0.7-1.8,0.7c-0.4,0-0.8-0.1-1.1-0.2s-0.6-0.3-0.8-0.6
					s-0.4-0.5-0.5-0.9S287.6,51.5,287.6,51.1z M289,51.1c0,0.2,0,0.5,0.1,0.6c0,0.2,0.1,0.4,0.2,0.5c0.1,0.2,0.2,0.3,0.3,0.3
					c0.1,0.1,0.3,0.1,0.5,0.1c0.4,0,0.6-0.1,0.8-0.4c0.2-0.3,0.3-0.7,0.3-1.2s-0.1-0.9-0.2-1.2s-0.4-0.5-0.8-0.5
					c-0.3,0-0.6,0.1-0.8,0.4C289.1,50.1,289,50.5,289,51.1z"/>
				<path class="st0" d="M296.5,49.8c-0.2-0.1-0.4-0.1-0.6-0.1s-0.5,0.1-0.6,0.2c-0.2,0.1-0.3,0.3-0.3,0.5v3.4h-1.4v-5.3h1.1
					l0.2,0.7l0,0c0.1-0.3,0.3-0.5,0.5-0.6s0.4-0.2,0.7-0.2c0.2,0,0.4,0,0.6,0.1L296.5,49.8z"/>
				<path class="st0" d="M299.2,51.5l0.2,0.8h0.1l0.1-0.8l0.8-3h1.4l-1.6,4.8c-0.1,0.4-0.3,0.8-0.4,1.1s-0.3,0.6-0.4,0.8
					s-0.3,0.4-0.5,0.5s-0.4,0.2-0.6,0.2c-0.4,0-0.7-0.1-0.9-0.2l0.2-1.1c0.1,0,0.2,0.1,0.3,0.1c0.2,0,0.3-0.1,0.5-0.2
					s0.3-0.4,0.3-0.7l-2.2-5.3h1.6L299.2,51.5z"/>
			</g>
		</g>
		<g>
			<g>
				<path class="st0" d="M18.2,54c-0.2,0.2-0.5,0.3-0.9,0.3s-0.7,0.1-1.1,0.1s-0.9-0.1-1.3-0.2s-0.8-0.4-1.1-0.7s-0.5-0.7-0.7-1.2
					s-0.3-1.1-0.3-1.8s0.1-1.3,0.3-1.8s0.5-0.9,0.8-1.2s0.7-0.5,1.1-0.6c0.4-0.1,0.8-0.2,1.2-0.2s0.8,0,1.1,0.1s0.5,0.1,0.7,0.2
					l-0.3,1.2c-0.2-0.1-0.4-0.1-0.6-0.2s-0.5,0-0.8,0c-0.6,0-1.1,0.2-1.4,0.6c-0.4,0.4-0.5,1.1-0.5,1.9c0,0.4,0,0.7,0.1,1
					s0.2,0.6,0.4,0.8s0.4,0.4,0.6,0.5c0.3,0.1,0.5,0.2,0.9,0.2c0.3,0,0.6,0,0.8-0.1s0.4-0.1,0.6-0.2L18.2,54z"/>
				<path class="st0" d="M18.8,51.7c0-0.9,0.2-1.6,0.6-2.1s1-0.7,1.8-0.7c0.4,0,0.8,0.1,1.1,0.2s0.6,0.3,0.8,0.6s0.4,0.5,0.5,0.9
					c0.1,0.3,0.1,0.7,0.1,1.1c0,0.9-0.2,1.6-0.6,2.1s-1,0.7-1.8,0.7c-0.4,0-0.8-0.1-1.1-0.2s-0.6-0.3-0.8-0.6
					c-0.2-0.2-0.4-0.5-0.5-0.9S18.8,52.1,18.8,51.7z M20.3,51.7c0,0.2,0,0.5,0.1,0.6c0,0.2,0.1,0.4,0.2,0.5s0.2,0.3,0.3,0.3
					c0.1,0.1,0.3,0.1,0.5,0.1c0.4,0,0.6-0.1,0.8-0.4c0.2-0.2,0.3-0.7,0.3-1.2s-0.1-0.9-0.2-1.2s-0.6-0.4-1-0.4
					c-0.3,0-0.6,0.1-0.8,0.4C20.4,50.7,20.3,51.1,20.3,51.7z"/>
				<path class="st0" d="M27.8,54.3v-2.9c0-0.5,0-0.8-0.1-1s-0.3-0.3-0.6-0.3c-0.2,0-0.4,0.1-0.6,0.2c-0.1,0.1-0.3,0.3-0.3,0.5v3.5
					h-1.4V49h1.1l0.2,0.7l0,0c0.2-0.2,0.4-0.4,0.6-0.6c0.2-0.2,0.6-0.2,1-0.2c0.3,0,0.6,0.1,0.8,0.2c0.2,0.1,0.4,0.4,0.5,0.7
					c0.2-0.3,0.4-0.5,0.6-0.7s0.6-0.2,0.9-0.2s0.5,0,0.8,0.1c0.2,0.1,0.4,0.2,0.5,0.4s0.2,0.4,0.3,0.7s0.1,0.7,0.1,1.1v3.2h-1.4v-3
					c0-0.4,0-0.7-0.1-0.9s-0.3-0.3-0.6-0.3c-0.2,0-0.4,0.1-0.6,0.2s-0.2,0.3-0.3,0.5v3.5L27.8,54.3L27.8,54.3z"/>
				<path class="st0" d="M36.2,54.3v-2.9c0-0.5,0-0.8-0.1-1s-0.3-0.3-0.6-0.3c-0.2,0-0.4,0.1-0.6,0.2c-0.2,0.1-0.3,0.3-0.3,0.5v3.5
					h-1.4V49h1.1l0.2,0.7l0,0c0.2-0.2,0.4-0.4,0.6-0.6c0.2-0.2,0.6-0.2,1-0.2c0.3,0,0.6,0.1,0.8,0.2c0.2,0.1,0.4,0.4,0.5,0.7
					c0.2-0.3,0.4-0.5,0.6-0.7s0.6-0.2,0.9-0.2c0.3,0,0.5,0,0.8,0.1c0.2,0.1,0.4,0.2,0.5,0.4s0.2,0.4,0.3,0.7s0.1,0.7,0.1,1.1v3.2
					h-1.4v-3c0-0.4,0-0.7-0.1-0.9s-0.3-0.3-0.6-0.3c-0.2,0-0.4,0.1-0.6,0.2c-0.1,0.1-0.2,0.3-0.3,0.5v3.5L36.2,54.3L36.2,54.3z"/>
				<path class="st0" d="M43.1,49v3c0,0.4,0,0.7,0.2,0.9s0.3,0.3,0.6,0.3s0.5-0.1,0.7-0.2c0.2-0.2,0.3-0.3,0.4-0.6V49h1.4v3.7
					c0,0.3,0,0.6,0,0.8s0.1,0.5,0.1,0.8h-1l-0.2-0.8l0,0c-0.2,0.3-0.4,0.5-0.7,0.7s-0.6,0.3-1,0.3c-0.3,0-0.5,0-0.7-0.1
					s-0.4-0.2-0.5-0.3s-0.2-0.4-0.3-0.7s-0.1-0.6-0.1-1V49H43.1L43.1,49z"/>
				<path class="st0" d="M50.6,54.3v-3c0-0.4-0.1-0.7-0.2-0.9s-0.3-0.3-0.6-0.3s-0.5,0.1-0.7,0.2c-0.2,0.2-0.3,0.3-0.4,0.6v3.4h-1.4
					V49h1.1l0.2,0.7l0,0c0.2-0.2,0.4-0.4,0.6-0.6c0.3-0.2,0.6-0.2,1-0.2c0.3,0,0.5,0,0.7,0.1s0.4,0.2,0.5,0.3s0.2,0.4,0.3,0.7
					s0.1,0.6,0.1,1v3.3H50.6L50.6,54.3z"/>
				<path class="st0" d="M53.1,47.5c0-0.2,0.1-0.4,0.2-0.5c0.2-0.1,0.4-0.2,0.6-0.2s0.5,0.1,0.7,0.2c0.2,0.1,0.2,0.3,0.2,0.5
					s-0.1,0.4-0.2,0.5s-0.4,0.2-0.7,0.2s-0.5-0.1-0.6-0.2S53.1,47.8,53.1,47.5z M53.3,49h1.4v5.3h-1.4V49z"/>
				<path class="st0" d="M59.7,54c-0.2,0.2-0.5,0.3-0.8,0.3s-0.6,0.1-0.9,0.1c-0.4,0-0.8-0.1-1.1-0.2s-0.5-0.3-0.7-0.6
					s-0.3-0.5-0.4-0.9s-0.1-0.7-0.1-1.1c0-0.9,0.2-1.6,0.6-2.1c0.4-0.5,1-0.7,1.8-0.7c0.4,0,0.7,0,0.9,0.1s0.5,0.1,0.6,0.2l-0.3,1.1
					c-0.2-0.1-0.3-0.1-0.5-0.2s-0.3-0.1-0.5-0.1c-0.4,0-0.7,0.1-0.9,0.4s-0.3,0.7-0.3,1.2c0,0.2,0,0.4,0.1,0.6s0.1,0.4,0.2,0.5
					s0.2,0.2,0.4,0.3s0.3,0.1,0.5,0.1s0.4,0,0.6-0.1s0.3-0.1,0.4-0.2L59.7,54z"/>
				<path class="st0" d="M60.5,49.3c0.3-0.1,0.6-0.2,1-0.3s0.8-0.1,1.2-0.1s0.7,0,0.9,0.1s0.4,0.2,0.6,0.4c0.1,0.2,0.2,0.3,0.3,0.6
					s0.1,0.5,0.1,0.8s0,0.6,0,0.9s0,0.6,0,0.9c0,0.3,0,0.6,0,0.9s0.1,0.5,0.2,0.8h-1.1l-0.2-0.7l0,0c-0.1,0.2-0.3,0.4-0.6,0.6
					c-0.2,0.2-0.6,0.2-1,0.2c-0.2,0-0.5,0-0.7-0.1s-0.4-0.2-0.5-0.3s-0.2-0.3-0.3-0.5s-0.1-0.4-0.1-0.6c0-0.3,0.1-0.6,0.2-0.8
					c0.1-0.2,0.3-0.4,0.6-0.5s0.6-0.2,1-0.3s0.8-0.1,1.3,0c0-0.4,0-0.7-0.1-0.8S62.9,50,62.5,50c-0.3,0-0.6,0-0.9,0.1
					c-0.3,0.1-0.6,0.1-0.8,0.2L60.5,49.3z M62.3,53.3c0.3,0,0.5-0.1,0.7-0.2s0.3-0.2,0.4-0.4V52c-0.2,0-0.4,0-0.6,0
					c-0.2,0-0.4,0-0.5,0.1c-0.2,0-0.3,0.1-0.4,0.2s-0.1,0.2-0.1,0.3c0,0.2,0.1,0.3,0.2,0.5S62.1,53.3,62.3,53.3z"/>
				<path class="st0" d="M65.3,49H66v-1l1.4-0.4V49h1.3v1.2h-1.3v2c0,0.4,0,0.6,0.1,0.8s0.2,0.2,0.4,0.2c0.1,0,0.3,0,0.4,0
					s0.2-0.1,0.3-0.1l0.2,1c-0.2,0.1-0.4,0.2-0.7,0.2s-0.5,0.1-0.8,0.1c-0.5,0-0.8-0.1-1.1-0.4S66,53.4,66,52.9v-2.7h-0.7V49z"/>
				<path class="st0" d="M69.4,47.5c0-0.2,0.1-0.4,0.2-0.5s0.4-0.2,0.6-0.2s0.5,0.1,0.7,0.2c0.2,0.1,0.2,0.3,0.2,0.5
					S71,47.9,70.9,48s-0.4,0.2-0.7,0.2s-0.5-0.1-0.6-0.2S69.4,47.8,69.4,47.5z M69.6,49H71v5.3h-1.4V49z"/>
				<path class="st0" d="M72.1,51.7c0-0.9,0.2-1.6,0.7-2.1c0.4-0.5,1.1-0.7,1.8-0.7c0.4,0,0.8,0.1,1.1,0.2s0.6,0.3,0.8,0.6
					s0.4,0.5,0.5,0.9s0.2,0.7,0.2,1.1c0,0.9-0.2,1.6-0.7,2.1s-1,0.7-1.8,0.7c-0.4,0-0.8-0.1-1.1-0.2S73,54,72.8,53.7
					s-0.4-0.5-0.5-0.9S72.1,52.1,72.1,51.7z M73.5,51.7c0,0.2,0,0.5,0.1,0.6c0,0.2,0.1,0.4,0.2,0.5s0.2,0.3,0.3,0.3
					c0.1,0.1,0.3,0.1,0.5,0.1c0.4,0,0.6-0.1,0.8-0.4c0.2-0.3,0.3-0.7,0.3-1.2s-0.1-0.9-0.2-1.2c-0.2-0.3-0.4-0.5-0.8-0.5
					c-0.3,0-0.6,0.1-0.8,0.4C73.6,50.7,73.5,51.1,73.5,51.7z"/>
				<path class="st0" d="M81.2,54.3v-3c0-0.4-0.1-0.7-0.2-0.9s-0.3-0.3-0.6-0.3c-0.3,0-0.5,0.1-0.7,0.2c-0.2,0.2-0.3,0.3-0.4,0.6
					v3.4H78V49h1.1l0.2,0.7l0,0c0.2-0.2,0.4-0.4,0.6-0.6c0.3-0.2,0.6-0.2,1-0.2c0.3,0,0.5,0,0.7,0.1s0.4,0.2,0.5,0.3
					s0.2,0.4,0.3,0.7s0.1,0.6,0.1,1v3.3H81.2L81.2,54.3z"/>
				<path class="st0" d="M90.6,51.2h-2.7v3.1h-1.4v-7.4h1.4v3h2.7v-3H92v7.4h-1.4V51.2z"/>
				<path class="st0" d="M93.2,47.5c0-0.2,0.1-0.4,0.2-0.5s0.4-0.2,0.6-0.2s0.5,0.1,0.7,0.2c0.2,0.1,0.2,0.3,0.2,0.5
					s-0.1,0.4-0.2,0.5s-0.4,0.2-0.7,0.2s-0.5-0.1-0.6-0.2S93.2,47.8,93.2,47.5z M93.4,49h1.4v5.3h-1.4V49z"/>
				<path class="st0" d="M98.3,52.8c0-0.1-0.1-0.2-0.2-0.3s-0.3-0.2-0.4-0.2s-0.4-0.1-0.6-0.2s-0.4-0.2-0.6-0.3s-0.3-0.3-0.4-0.5
					s-0.2-0.5-0.2-0.8c0-0.5,0.2-0.9,0.5-1.2s0.8-0.4,1.3-0.4c0.4,0,0.8,0,1.1,0.1s0.6,0.2,0.8,0.3l-0.3,1c-0.2-0.1-0.4-0.1-0.6-0.2
					S98.1,50,97.9,50c-0.4,0-0.6,0.2-0.6,0.5c0,0.1,0.1,0.2,0.2,0.3s0.3,0.2,0.4,0.2c0.2,0.1,0.4,0.1,0.6,0.2s0.4,0.2,0.6,0.3
					s0.3,0.3,0.4,0.5s0.2,0.5,0.2,0.8c0,0.5-0.2,1-0.5,1.3s-0.8,0.5-1.5,0.5c-0.4,0-0.7,0-1.1-0.1c-0.3-0.1-0.6-0.2-0.8-0.3l0.4-1
					c0.2,0.1,0.4,0.2,0.6,0.3c0.3,0.1,0.5,0.1,0.8,0.1c0.2,0,0.4,0,0.5-0.1C98.2,53.2,98.3,53,98.3,52.8z"/>
				<path class="st0" d="M100,49h0.7v-1l1.4-0.4V49h1.3v1.2h-1.3v2c0,0.4,0,0.6,0.1,0.8s0.2,0.2,0.4,0.2c0.1,0,0.3,0,0.4,0
					s0.2-0.1,0.3-0.1l0.2,1c-0.2,0.1-0.4,0.2-0.7,0.2s-0.5,0.1-0.8,0.1c-0.5,0-0.8-0.1-1.1-0.4s-0.3-0.7-0.3-1.2v-2.7H100V49z"/>
				<path class="st0" d="M104,51.7c0-0.9,0.2-1.6,0.7-2.1c0.4-0.5,1.1-0.7,1.8-0.7c0.4,0,0.8,0.1,1.1,0.2s0.6,0.3,0.8,0.6
					s0.4,0.5,0.5,0.9s0.2,0.7,0.2,1.1c0,0.9-0.2,1.6-0.7,2.1s-1,0.7-1.8,0.7c-0.4,0-0.8-0.1-1.1-0.2s-0.6-0.3-0.8-0.6
					s-0.4-0.5-0.5-0.9S104,52.1,104,51.7z M105.4,51.7c0,0.2,0,0.5,0.1,0.6c0,0.2,0.1,0.4,0.2,0.5s0.2,0.3,0.3,0.3
					c0.1,0.1,0.3,0.1,0.5,0.1c0.4,0,0.6-0.1,0.8-0.4c0.2-0.3,0.3-0.7,0.3-1.2s-0.1-0.9-0.2-1.2c-0.2-0.3-0.4-0.5-0.8-0.5
					c-0.3,0-0.6,0.1-0.8,0.4C105.5,50.7,105.4,51.1,105.4,51.7z"/>
				<path class="st0" d="M112.8,50.3c-0.2-0.1-0.4-0.1-0.6-0.1s-0.4,0.1-0.6,0.2c-0.2,0.1-0.3,0.3-0.3,0.5v3.4h-1.4V49h1.1l0.2,0.7
					l0,0c0.1-0.3,0.3-0.5,0.5-0.6s0.4-0.2,0.7-0.2c0.2,0,0.4,0,0.6,0.1L112.8,50.3z"/>
				<path class="st0" d="M115.5,52l0.2,0.8h0.1l0.1-0.8l0.8-3h1.4l-1.6,4.8c-0.1,0.4-0.3,0.8-0.4,1.1s-0.3,0.6-0.4,0.8
					c-0.2,0.2-0.3,0.4-0.5,0.5s-0.4,0.2-0.6,0.2c-0.4,0-0.7-0.1-0.9-0.2l0.2-1.1c0.1,0,0.2,0.1,0.3,0.1c0.2,0,0.3-0.1,0.5-0.2
					s0.3-0.4,0.3-0.7l-2.2-5.3h1.7L115.5,52z"/>
			</g>
		</g>
		<g>
			<g>
				<path class="st0" d="M28.3,15.7c0-0.2-0.1-0.4-0.2-0.6s-0.4-0.3-0.6-0.4c-0.2-0.1-0.5-0.2-0.8-0.4c-0.3-0.1-0.6-0.3-0.8-0.4
					c-0.2-0.2-0.5-0.4-0.6-0.7s-0.2-0.6-0.2-1s0.1-0.7,0.2-0.9s0.3-0.5,0.5-0.7s0.5-0.3,0.8-0.4s0.6-0.1,1-0.1s0.8,0,1.2,0.1
					c0.4,0.1,0.7,0.2,0.9,0.3l-0.5,1.2c-0.2-0.1-0.4-0.2-0.7-0.3c-0.3-0.1-0.6-0.1-1-0.1c-0.3,0-0.6,0.1-0.8,0.2s-0.3,0.3-0.3,0.5
					s0.1,0.4,0.2,0.5s0.4,0.3,0.6,0.4s0.5,0.2,0.8,0.4c0.3,0.1,0.6,0.3,0.8,0.5s0.5,0.4,0.6,0.7s0.2,0.6,0.2,1s-0.1,0.7-0.2,1
					s-0.3,0.5-0.5,0.7s-0.5,0.3-0.9,0.4s-0.7,0.1-1.1,0.1c-0.5,0-1,0-1.4-0.1s-0.7-0.2-0.9-0.3l0.5-1.2c0.1,0,0.2,0.1,0.3,0.1
					c0.1,0.1,0.3,0.1,0.4,0.1s0.3,0.1,0.5,0.1s0.4,0,0.5,0c0.4,0,0.8-0.1,1-0.2C28.2,16.2,28.3,16,28.3,15.7z"/>
				<path class="st0" d="M34.9,17.3c-0.2,0.2-0.5,0.3-0.9,0.4s-0.8,0.2-1.2,0.2c-0.9,0-1.5-0.2-1.9-0.7s-0.6-1.2-0.6-2
					c0-0.9,0.2-1.6,0.7-2.1c0.4-0.5,1.1-0.7,1.9-0.7c0.3,0,0.5,0,0.8,0.1c0.2,0.1,0.5,0.2,0.7,0.3s0.3,0.4,0.5,0.6
					c0.1,0.3,0.2,0.6,0.2,1c0,0.1,0,0.3,0,0.5s0,0.3-0.1,0.5h-3.1c0,0.4,0.1,0.8,0.3,1s0.5,0.3,1,0.3c0.3,0,0.5,0,0.8-0.1
					s0.4-0.2,0.5-0.3L34.9,17.3z M32.9,13.4c-0.4,0-0.6,0.1-0.8,0.3s-0.3,0.5-0.3,0.9h1.9c0-0.4,0-0.7-0.2-0.9
					C33.5,13.5,33.2,13.4,32.9,13.4z"/>
				<path class="st0" d="M38.9,13.7c-0.2-0.1-0.4-0.1-0.6-0.1c-0.2,0-0.5,0.1-0.6,0.2c-0.2,0.1-0.3,0.3-0.3,0.5v3.4H36v-5.3h1.1
					l0.2,0.7l0,0c0.1-0.3,0.3-0.5,0.5-0.6s0.4-0.2,0.7-0.2c0.2,0,0.4,0,0.6,0.1L38.9,13.7z"/>
				<path class="st0" d="M41.6,15.2l0.2,0.8l0,0l0.2-0.8l0.9-2.7h1.5l-2.2,5.3h-0.8L39,12.5h1.6L41.6,15.2z"/>
				<path class="st0" d="M44.7,11c0-0.2,0.1-0.4,0.2-0.5c0.2-0.1,0.4-0.2,0.6-0.2s0.5,0.1,0.7,0.2c0.2,0.1,0.2,0.3,0.2,0.5
					s-0.1,0.4-0.2,0.5s-0.4,0.2-0.7,0.2s-0.5-0.1-0.6-0.2S44.7,11.2,44.7,11z M44.9,12.4h1.4v5.3h-1.4V12.4z"/>
				<path class="st0" d="M51.3,17.4c-0.2,0.1-0.5,0.3-0.8,0.4s-0.6,0.1-0.9,0.1c-0.4,0-0.8-0.1-1.1-0.2s-0.5-0.3-0.7-0.6
					s-0.3-0.5-0.4-0.9c-0.1-0.3-0.1-0.7-0.1-1.1c0-0.9,0.2-1.6,0.6-2.1c0.4-0.5,1-0.7,1.8-0.7c0.4,0,0.7,0,0.9,0.1s0.5,0.1,0.6,0.2
					l-0.3,1.1c-0.2-0.1-0.3-0.1-0.5-0.2s-0.3-0.1-0.5-0.1c-0.4,0-0.7,0.1-0.9,0.4s-0.3,0.6-0.3,1.2c0,0.2,0,0.4,0.1,0.6
					s0.1,0.4,0.2,0.5s0.2,0.2,0.4,0.3c0.2,0.1,0.3,0.1,0.5,0.1s0.4,0,0.6-0.1c0.2-0.1,0.3-0.1,0.4-0.2L51.3,17.4z"/>
				<path class="st0" d="M56.4,17.3c-0.2,0.2-0.5,0.3-0.9,0.4s-0.8,0.2-1.2,0.2c-0.8,0-1.5-0.2-1.9-0.7s-0.6-1.2-0.6-2
					c0-0.9,0.2-1.6,0.7-2.1c0.4-0.5,1.1-0.7,1.9-0.7c0.3,0,0.5,0,0.8,0.1s0.5,0.2,0.7,0.4s0.3,0.4,0.5,0.6c0.1,0.3,0.2,0.6,0.2,1
					c0,0.1,0,0.3,0,0.5s0,0.3-0.1,0.5h-3.2c0,0.4,0.1,0.8,0.3,1s0.5,0.3,1,0.3c0.3,0,0.5,0,0.8-0.1s0.4-0.2,0.5-0.3L56.4,17.3z
					 M54.4,13.4c-0.4,0-0.6,0.1-0.8,0.3s-0.3,0.5-0.3,0.9h2c0-0.4,0-0.7-0.2-0.9C55,13.5,54.7,13.4,54.4,13.4z"/>
				<path class="st0" d="M60.6,15.7c0-0.3,0-0.5,0.1-0.8s0.2-0.5,0.4-0.7s0.3-0.4,0.6-0.6c0.2-0.2,0.5-0.3,0.7-0.5
					c-0.2-0.2-0.3-0.5-0.4-0.7s-0.2-0.5-0.2-0.8c0-0.2,0-0.4,0.1-0.5c0.1-0.2,0.2-0.3,0.3-0.5c0.1-0.1,0.3-0.3,0.6-0.4
					s0.5-0.1,0.8-0.1s0.6,0,0.8,0.1s0.4,0.2,0.6,0.3s0.2,0.3,0.3,0.4c0.1,0.2,0.1,0.3,0.1,0.5c0,0.3-0.1,0.6-0.3,0.9
					c-0.2,0.3-0.6,0.6-1,0.9c0.2,0.4,0.5,0.7,0.7,1s0.5,0.6,0.8,0.9c0.2-0.2,0.3-0.4,0.4-0.7s0.2-0.5,0.3-0.8l1,0.5
					c0,0.1-0.1,0.3-0.2,0.4s-0.2,0.3-0.2,0.5c-0.1,0.1-0.2,0.3-0.3,0.4c-0.1,0.1-0.2,0.2-0.2,0.3c0.2,0.2,0.4,0.4,0.6,0.5
					c0.2,0.1,0.3,0.2,0.5,0.3l-0.7,1c-0.2-0.1-0.4-0.2-0.6-0.4c-0.2-0.1-0.4-0.3-0.6-0.5c-0.2,0.2-0.6,0.4-0.9,0.6
					c-0.4,0.2-0.8,0.3-1.4,0.3c-0.4,0-0.7,0-1-0.1s-0.6-0.2-0.8-0.4c-0.2-0.2-0.4-0.4-0.6-0.7C60.6,16.3,60.6,16,60.6,15.7z
					 M64.7,16.1c-0.4-0.4-0.7-0.7-1-1.1c-0.3-0.4-0.5-0.7-0.8-1.1c-0.3,0.3-0.6,0.5-0.8,0.8s-0.3,0.5-0.3,0.8c0,0.4,0.1,0.6,0.4,0.8
					c0.3,0.2,0.6,0.3,1,0.3c0.3,0,0.5-0.1,0.8-0.2C64.4,16.4,64.6,16.3,64.7,16.1z M63.1,11.8c0,0.3,0.1,0.6,0.4,0.9
					c0.3-0.2,0.5-0.3,0.6-0.5c0.1-0.1,0.2-0.3,0.2-0.4c0-0.2-0.1-0.3-0.1-0.4c-0.1-0.1-0.2-0.1-0.5-0.1c-0.2,0-0.3,0.1-0.4,0.1
					C63.1,11.5,63.1,11.6,63.1,11.8z"/>
				<path class="st0" d="M75.5,10.3h1.4v4.8c0,0.5-0.1,0.9-0.2,1.2c-0.1,0.3-0.3,0.6-0.5,0.9c-0.2,0.2-0.5,0.4-0.8,0.5
					s-0.7,0.2-1.1,0.2c-1.9,0-2.8-0.9-2.8-2.6v-5h1.4V15c0,0.3,0,0.5,0.1,0.7s0.1,0.4,0.2,0.5s0.2,0.2,0.4,0.3s0.4,0.1,0.6,0.1
					c0.4,0,0.8-0.1,1-0.4c0.2-0.2,0.3-0.6,0.3-1.2V10.3L75.5,10.3z"/>
				<path class="st0" d="M80.2,16.3c0-0.1-0.1-0.2-0.2-0.3c-0.1-0.1-0.3-0.2-0.4-0.2s-0.4-0.1-0.6-0.2s-0.4-0.2-0.6-0.3
					S78.1,15,78,14.8s-0.2-0.5-0.2-0.8c0-0.5,0.2-0.9,0.5-1.2s0.8-0.4,1.3-0.4c0.4,0,0.8,0,1.1,0.1s0.6,0.2,0.8,0.3l-0.3,1
					c-0.2-0.1-0.4-0.1-0.6-0.2s-0.5-0.1-0.8-0.1c-0.4,0-0.6,0.2-0.6,0.5c0,0.1,0.1,0.2,0.2,0.3s0.3,0.1,0.4,0.2
					c0.2,0.1,0.4,0.1,0.6,0.2s0.4,0.2,0.6,0.3s0.3,0.3,0.4,0.5s0.2,0.4,0.2,0.8c0,0.5-0.2,1-0.5,1.3s-0.8,0.5-1.5,0.5
					c-0.4,0-0.7,0-1.1-0.1c-0.3-0.1-0.6-0.2-0.8-0.3l0.4-1c0.2,0.1,0.4,0.2,0.6,0.3c0.3,0.1,0.5,0.1,0.8,0.1c0.2,0,0.4,0,0.5-0.1
					C80.2,16.6,80.2,16.5,80.2,16.3z"/>
				<path class="st0" d="M82.5,12.8c0.3-0.1,0.6-0.2,1-0.3s0.8-0.1,1.2-0.1c0.4,0,0.7,0,0.9,0.1s0.4,0.2,0.6,0.4s0.2,0.4,0.3,0.6
					s0.1,0.5,0.1,0.8s0,0.6,0,0.9s0,0.6,0,0.9c0,0.3,0,0.6,0,0.9s0.1,0.5,0.2,0.8h-1.1L85.4,17h-0.1c-0.1,0.2-0.3,0.4-0.6,0.6
					c-0.2,0.2-0.6,0.2-1,0.2c-0.2,0-0.5,0-0.7-0.1s-0.4-0.2-0.5-0.3s-0.2-0.3-0.3-0.5c-0.1-0.2-0.1-0.4-0.1-0.6
					c0-0.3,0.1-0.6,0.2-0.8s0.3-0.4,0.6-0.5c0.3-0.1,0.6-0.2,1-0.3s0.8-0.1,1.3-0.1c0.1-0.4,0-0.7-0.1-0.9s-0.3-0.3-0.7-0.3
					c-0.3,0-0.6,0-0.9,0.1s-0.6,0.1-0.8,0.2L82.5,12.8z M84.2,16.7c0.3,0,0.5-0.1,0.7-0.2s0.3-0.2,0.4-0.4v-0.7c-0.2,0-0.4,0-0.6,0
					s-0.4,0.1-0.5,0.1c-0.2,0.1-0.3,0.1-0.4,0.2c-0.1,0.1-0.1,0.2-0.1,0.4c0,0.2,0.1,0.4,0.2,0.5C83.8,16.6,84,16.7,84.2,16.7z"/>
				<path class="st0" d="M92.2,17.7c0,0.8-0.2,1.3-0.6,1.7c-0.4,0.4-1,0.5-1.7,0.5c-0.5,0-0.9,0-1.2-0.1s-0.5-0.1-0.7-0.2l0.3-1.1
					c0.2,0.1,0.3,0.1,0.6,0.2c0.2,0.1,0.5,0.1,0.8,0.1c0.5,0,0.8-0.1,1-0.3c0.2-0.2,0.3-0.5,0.3-0.9v-0.3l0,0
					c-0.2,0.3-0.7,0.5-1.3,0.5c-0.7,0-1.2-0.2-1.5-0.6s-0.5-1.1-0.5-2s0.2-1.7,0.7-2.1c0.4-0.5,1.1-0.7,2-0.7c0.4,0,0.8,0,1.2,0.1
					c0.3,0.1,0.6,0.1,0.9,0.2L92.2,17.7L92.2,17.7z M89.9,16.7c0.3,0,0.5-0.1,0.6-0.2s0.2-0.3,0.3-0.5v-2.4
					c-0.2-0.1-0.5-0.1-0.8-0.1s-0.6,0.1-0.8,0.4c-0.2,0.3-0.3,0.7-0.3,1.3c0,0.5,0.1,0.9,0.2,1.2S89.6,16.7,89.9,16.7z"/>
				<path class="st0" d="M97.6,17.3c-0.2,0.2-0.5,0.3-0.9,0.4s-0.8,0.2-1.2,0.2c-0.8,0-1.5-0.2-1.9-0.7S93,16,93,15.2
					c0-0.9,0.2-1.6,0.7-2.1c0.4-0.5,1.1-0.7,1.9-0.7c0.3,0,0.5,0,0.8,0.1s0.5,0.2,0.7,0.4s0.3,0.4,0.5,0.6c0.1,0.3,0.2,0.6,0.2,1
					c0,0.1,0,0.3,0,0.5s0,0.3-0.1,0.5h-3.2c0,0.4,0.1,0.8,0.3,1s0.5,0.3,1,0.3c0.3,0,0.5,0,0.8-0.1s0.4-0.2,0.5-0.3L97.6,17.3z
					 M95.6,13.4c-0.4,0-0.6,0.1-0.8,0.3s-0.3,0.5-0.3,0.9h1.9c0-0.4,0-0.7-0.2-0.9C96.2,13.5,96,13.4,95.6,13.4z"/>
				<path class="st0" d="M105.6,14.6h-2.7v3.1h-1.4v-7.4h1.4v3h2.7v-3h1.4v7.4h-1.4V14.6z"/>
				<path class="st0" d="M108.2,11c0-0.2,0.1-0.4,0.2-0.5c0.2-0.1,0.4-0.2,0.6-0.2s0.5,0.1,0.7,0.2c0.2,0.1,0.2,0.3,0.2,0.5
					s-0.1,0.4-0.2,0.5s-0.4,0.2-0.7,0.2s-0.5-0.1-0.6-0.2S108.2,11.2,108.2,11z M108.4,12.4h1.4v5.3h-1.4V12.4z"/>
				<path class="st0" d="M113.3,16.3c0-0.1-0.1-0.2-0.2-0.3c-0.1-0.1-0.3-0.2-0.4-0.2s-0.4-0.1-0.6-0.2s-0.4-0.2-0.6-0.3
					s-0.3-0.3-0.4-0.5s-0.2-0.5-0.2-0.8c0-0.5,0.2-0.9,0.5-1.2s0.8-0.4,1.3-0.4c0.4,0,0.8,0,1.1,0.1s0.6,0.2,0.8,0.3l-0.3,1
					c-0.2-0.1-0.4-0.1-0.6-0.2s-0.5-0.1-0.8-0.1c-0.4,0-0.6,0.2-0.6,0.5c0,0.1,0.1,0.2,0.2,0.3s0.3,0.1,0.4,0.2
					c0.2,0.1,0.4,0.1,0.6,0.2s0.4,0.2,0.6,0.3s0.3,0.3,0.4,0.5s0.2,0.4,0.2,0.8c0,0.5-0.2,1-0.5,1.3s-0.8,0.5-1.5,0.5
					c-0.4,0-0.7,0-1.1-0.1c-0.3-0.1-0.6-0.2-0.8-0.3l0.4-1c0.2,0.1,0.4,0.2,0.6,0.3c0.3,0.1,0.5,0.1,0.8,0.1c0.2,0,0.4,0,0.5-0.1
					C113.2,16.6,113.3,16.5,113.3,16.3z"/>
				<path class="st0" d="M115,12.4h0.7v-1l1.4-0.4v1.4h1.3v1.2h-1.3v2c0,0.4,0,0.6,0.1,0.8s0.2,0.2,0.4,0.2c0.1,0,0.3,0,0.4,0
					s0.2-0.1,0.3-0.1l0.2,1.1c-0.2,0.1-0.4,0.2-0.7,0.2s-0.5,0.1-0.8,0.1c-0.5,0-0.8-0.1-1.1-0.4s-0.3-0.7-0.3-1.2v-2.7H115
					C115,13.6,115,12.4,115,12.4z"/>
				<path class="st0" d="M119,15.1c0-0.9,0.2-1.6,0.7-2.1c0.4-0.5,1.1-0.7,1.8-0.7c0.4,0,0.8,0.1,1.1,0.2s0.6,0.3,0.8,0.6
					c0.2,0.2,0.4,0.5,0.5,0.9s0.2,0.7,0.2,1.1c0,0.9-0.2,1.6-0.7,2.1c-0.4,0.5-1,0.7-1.8,0.7c-0.4,0-0.8-0.1-1.1-0.2
					s-0.6-0.3-0.8-0.6s-0.4-0.5-0.5-0.9C119,15.9,119,15.5,119,15.1z M120.4,15.1c0,0.2,0,0.4,0.1,0.6c0,0.2,0.1,0.4,0.2,0.5
					s0.2,0.3,0.3,0.3c0.1,0.1,0.3,0.1,0.5,0.1c0.4,0,0.6-0.1,0.8-0.4c0.2-0.3,0.3-0.7,0.3-1.2s-0.1-0.9-0.2-1.2
					c-0.2-0.3-0.4-0.4-0.8-0.4c-0.3,0-0.6,0.1-0.8,0.4C120.5,14.1,120.4,14.5,120.4,15.1z"/>
				<path class="st0" d="M127.8,13.7c-0.2-0.1-0.4-0.1-0.6-0.1s-0.4,0.1-0.6,0.2c-0.2,0.1-0.3,0.3-0.3,0.5v3.4h-1.4v-5.3h1.1
					l0.2,0.7l0,0c0.1-0.3,0.3-0.5,0.5-0.6s0.4-0.2,0.7-0.2c0.2,0,0.4,0,0.6,0.1L127.8,13.7z"/>
				<path class="st0" d="M130.5,15.4l0.2,0.8h0.1l0.1-0.8l0.8-2.9h1.4l-1.6,4.8c-0.1,0.4-0.3,0.8-0.4,1.1c-0.1,0.3-0.3,0.6-0.4,0.9
					c-0.1,0.2-0.3,0.4-0.5,0.5s-0.4,0.2-0.6,0.2c-0.4,0-0.7-0.1-0.9-0.2l0.2-1.1c0.1,0,0.2,0.1,0.3,0.1c0.2,0,0.3-0.1,0.5-0.2
					s0.3-0.4,0.3-0.7l-2.2-5.3h1.6L130.5,15.4z"/>
			</g>
		</g>
		<g>
			<g>
				<path class="st0" d="M187.8,84.4c0.3-0.1,0.6-0.1,1-0.1s0.7-0.1,1.1-0.1c0.4,0,0.7,0,1.1,0.1s0.7,0.2,1,0.4
					c0.3,0.2,0.5,0.4,0.7,0.8s0.3,0.7,0.3,1.2s-0.1,0.9-0.2,1.2s-0.4,0.6-0.6,0.8c-0.3,0.2-0.6,0.3-0.9,0.4s-0.7,0.1-1.1,0.1
					c0,0-0.1,0-0.2,0s-0.2,0-0.2,0c-0.1,0-0.2,0-0.2,0c-0.1,0-0.1,0-0.2,0v2.5H188L187.8,84.4L187.8,84.4z M189.9,85.5
					c-0.1,0-0.3,0-0.4,0c-0.1,0-0.2,0-0.3,0v2.4h0.1c0.1,0,0.1,0,0.2,0s0.1,0,0.2,0s0.1,0,0.1,0c0.2,0,0.4,0,0.6-0.1
					c0.2,0,0.4-0.1,0.5-0.2s0.3-0.2,0.4-0.4s0.1-0.4,0.1-0.7c0-0.2,0-0.4-0.1-0.6s-0.2-0.3-0.3-0.4s-0.3-0.2-0.5-0.2
					S190.1,85.5,189.9,85.5z"/>
				<path class="st0" d="M196.7,87.7c-0.2-0.1-0.4-0.1-0.6-0.1c-0.2,0-0.4,0.1-0.6,0.2c-0.2,0.1-0.3,0.3-0.3,0.5v3.4h-1.4v-5.3h1.1
					l0.2,0.7l0,0c0.1-0.3,0.3-0.5,0.5-0.6s0.4-0.2,0.7-0.2c0.2,0,0.4,0,0.6,0.1L196.7,87.7z"/>
				<path class="st0" d="M197.2,89.1c0-0.9,0.2-1.6,0.6-2.1c0.4-0.5,1.1-0.7,1.8-0.7c0.4,0,0.8,0.1,1.1,0.2s0.6,0.3,0.8,0.6
					s0.4,0.5,0.5,0.9s0.1,0.7,0.1,1.1c0,0.9-0.2,1.6-0.6,2.1s-1,0.7-1.8,0.7c-0.4,0-0.8-0.1-1.1-0.2s-0.6-0.3-0.8-0.6
					c-0.2-0.2-0.4-0.5-0.5-0.9S197.2,89.5,197.2,89.1z M198.7,89.1c0,0.2,0,0.4,0.1,0.6c0,0.2,0.1,0.4,0.2,0.5
					c0.1,0.2,0.2,0.3,0.3,0.3c0.1,0.1,0.3,0.1,0.5,0.1c0.4,0,0.6-0.1,0.8-0.4s0.3-0.7,0.3-1.2s-0.1-0.9-0.2-1.2s-0.4-0.4-0.8-0.4
					c-0.3,0-0.6,0.1-0.8,0.4C198.7,88.1,198.7,88.5,198.7,89.1z"/>
				<path class="st0" d="M203.2,86.5h1l0.2,0.6l0,0c0.2-0.3,0.4-0.5,0.6-0.6s0.6-0.2,0.9-0.2c0.7,0,1.2,0.2,1.5,0.6s0.5,1.1,0.5,2
					c0,0.4-0.1,0.9-0.2,1.2s-0.3,0.7-0.5,0.9s-0.5,0.4-0.8,0.6s-0.6,0.2-1,0.2c-0.2,0-0.4,0-0.5-0.1c-0.1,0-0.3-0.1-0.4-0.2v2.2
					h-1.4L203.2,86.5L203.2,86.5z M205.5,87.5c-0.3,0-0.5,0.1-0.6,0.2s-0.3,0.3-0.4,0.6v2.2c0.1,0.1,0.2,0.1,0.3,0.2
					s0.3,0.1,0.5,0.1c0.4,0,0.7-0.1,0.9-0.4s0.3-0.7,0.3-1.4c0-0.5-0.1-0.8-0.2-1.1C206.1,87.6,205.9,87.5,205.5,87.5z"/>
				<path class="st0" d="M213.1,91.3c-0.2,0.2-0.5,0.3-0.9,0.4s-0.8,0.2-1.1,0.2c-0.9,0-1.5-0.2-1.9-0.7s-0.6-1.2-0.6-2
					c0-0.9,0.2-1.6,0.7-2.1c0.4-0.5,1.1-0.7,1.9-0.7c0.3,0,0.5,0,0.8,0.1s0.5,0.2,0.7,0.3c0.2,0.2,0.4,0.4,0.5,0.7
					c0.1,0.3,0.2,0.6,0.2,1c0,0.2,0,0.3,0,0.5s0,0.3-0.1,0.5H210c0,0.4,0.1,0.8,0.3,1s0.5,0.3,1,0.3c0.3,0,0.5,0,0.8-0.1
					s0.4-0.2,0.5-0.3L213.1,91.3z M211.1,87.4c-0.4,0-0.6,0.1-0.8,0.3s-0.3,0.5-0.3,0.9h1.9c0-0.4,0-0.7-0.2-0.9
					C211.6,87.5,211.4,87.4,211.1,87.4z"/>
				<path class="st0" d="M217.4,91.7v-3c0-0.4-0.1-0.7-0.2-0.9s-0.3-0.3-0.6-0.3s-0.5,0.1-0.7,0.2c-0.2,0.2-0.3,0.3-0.4,0.6v3.4
					h-1.4v-5.3h1.1l0.2,0.7l0,0c0.2-0.2,0.4-0.4,0.6-0.6c0.3-0.2,0.6-0.2,1-0.2c0.3,0,0.5,0,0.7,0.1s0.4,0.2,0.5,0.3
					c0.1,0.2,0.2,0.4,0.3,0.7s0.1,0.6,0.1,1v3.3L217.4,91.7L217.4,91.7z"/>
				<path class="st0" d="M222.1,90.3c0-0.1-0.1-0.2-0.2-0.3c-0.1-0.1-0.3-0.2-0.4-0.2s-0.4-0.1-0.6-0.2s-0.4-0.2-0.6-0.3
					c-0.2-0.1-0.3-0.3-0.4-0.5s-0.2-0.5-0.2-0.8c0-0.5,0.1-0.9,0.5-1.2c0.3-0.3,0.8-0.4,1.3-0.4c0.4,0,0.8,0,1.1,0.1
					s0.6,0.2,0.8,0.3l-0.3,1c-0.2-0.1-0.4-0.1-0.6-0.2s-0.5-0.1-0.8-0.1c-0.4,0-0.6,0.2-0.6,0.5c0,0.1,0.1,0.2,0.2,0.3
					c0.1,0.1,0.3,0.2,0.4,0.2c0.2,0.1,0.4,0.1,0.6,0.2s0.4,0.2,0.6,0.3s0.3,0.3,0.4,0.5c0.1,0.2,0.2,0.4,0.2,0.8
					c0,0.5-0.2,0.9-0.5,1.3c-0.3,0.3-0.9,0.5-1.5,0.5c-0.4,0-0.7-0.1-1.1-0.1c-0.3-0.1-0.6-0.2-0.8-0.3l0.4-1
					c0.2,0.1,0.4,0.2,0.6,0.3c0.3,0.1,0.5,0.1,0.8,0.1c0.2,0,0.4,0,0.5-0.1C222.1,90.6,222.1,90.5,222.1,90.3z"/>
				<path class="st0" d="M224.3,85c0-0.2,0.1-0.4,0.2-0.5s0.4-0.2,0.6-0.2s0.5,0.1,0.6,0.2c0.2,0.1,0.2,0.3,0.2,0.5
					s-0.1,0.4-0.2,0.5s-0.4,0.2-0.6,0.2s-0.5-0.1-0.6-0.2S224.3,85.2,224.3,85z M224.5,86.5h1.4v5.3h-1.4V86.5z"/>
				<path class="st0" d="M226.7,86.5h0.7v-1l1.4-0.4v1.4h1.3v1.2h-1.3v2c0,0.4,0,0.6,0.1,0.8s0.2,0.2,0.4,0.2c0.1,0,0.3,0,0.4,0
					s0.2-0.1,0.3-0.1l0.2,1.1c-0.2,0.1-0.4,0.2-0.7,0.2S229,92,228.7,92c-0.5,0-0.8-0.1-1.1-0.4s-0.3-0.7-0.3-1.2v-2.7h-0.7
					L226.7,86.5L226.7,86.5z"/>
				<path class="st0" d="M232.8,89.4l0.2,0.8h0.1l0.1-0.8l0.8-2.9h1.4l-1.6,4.8c-0.1,0.4-0.3,0.8-0.4,1.1c-0.1,0.3-0.3,0.6-0.4,0.8
					c-0.1,0.2-0.3,0.4-0.5,0.6c-0.2,0.1-0.4,0.2-0.6,0.2c-0.4,0-0.7-0.1-0.9-0.2l0.2-1.1c0.1,0,0.2,0.1,0.3,0.1
					c0.2,0,0.3-0.1,0.5-0.2s0.3-0.4,0.3-0.7l-2.2-5.3h1.6L232.8,89.4z"/>
				<path class="st0" d="M244.4,87.9l0.2-1.5h-0.1l-0.4,1.2l-1.6,2.8H242l-1.7-2.8l-0.5-1.2h-0.1l0.2,1.5v3.8h-1.4v-7.4h1.3l2,3.4
					l0.4,0.8l0,0l0.3-0.9l1.9-3.3h1.3v7.4h-1.4L244.4,87.9L244.4,87.9z"/>
				<path class="st0" d="M246.8,89.1c0-0.9,0.2-1.6,0.6-2.1c0.4-0.5,1.1-0.7,1.8-0.7c0.4,0,0.8,0.1,1.1,0.2s0.6,0.3,0.8,0.6
					s0.4,0.5,0.5,0.9s0.1,0.7,0.1,1.1c0,0.9-0.2,1.6-0.6,2.1s-1,0.7-1.8,0.7c-0.4,0-0.8-0.1-1.1-0.2s-0.6-0.3-0.8-0.6
					c-0.2-0.2-0.4-0.5-0.5-0.9S246.8,89.5,246.8,89.1z M248.2,89.1c0,0.2,0,0.4,0.1,0.6c0,0.2,0.1,0.4,0.2,0.5
					c0.1,0.2,0.2,0.3,0.3,0.3c0.1,0.1,0.3,0.1,0.5,0.1c0.4,0,0.6-0.1,0.8-0.4s0.3-0.7,0.3-1.2s-0.1-0.9-0.2-1.2s-0.4-0.4-0.8-0.4
					c-0.3,0-0.6,0.1-0.8,0.4C248.3,88.1,248.2,88.5,248.2,89.1z"/>
				<path class="st0" d="M257.2,89.9c0,0.3,0,0.6,0,0.9s0,0.6,0.1,1h-1l-0.2-0.7l0,0c-0.1,0.2-0.3,0.4-0.6,0.6s-0.6,0.2-0.9,0.2
					c-0.7,0-1.2-0.2-1.5-0.7c-0.4-0.4-0.6-1.1-0.6-2.1c0-0.9,0.2-1.6,0.6-2.1s1-0.8,1.8-0.8c0.2,0,0.4,0,0.5,0s0.3,0.1,0.4,0.1v-2.2
					h1.4V89.9L257.2,89.9z M254.9,90.7c0.3,0,0.5-0.1,0.6-0.2s0.3-0.3,0.3-0.6v-2.2c-0.1-0.1-0.2-0.1-0.3-0.2
					c-0.1,0-0.3-0.1-0.5-0.1c-0.4,0-0.7,0.1-0.9,0.4s-0.3,0.7-0.3,1.3c0,0.4,0.1,0.8,0.2,1.1S254.5,90.7,254.9,90.7z"/>
				<path class="st0" d="M262.6,91.3c-0.2,0.2-0.5,0.3-0.9,0.4s-0.8,0.2-1.1,0.2c-0.9,0-1.5-0.2-1.9-0.7s-0.6-1.2-0.6-2
					c0-0.9,0.2-1.6,0.7-2.1c0.4-0.5,1.1-0.7,1.9-0.7c0.3,0,0.5,0,0.8,0.1s0.5,0.2,0.7,0.3c0.2,0.2,0.4,0.4,0.5,0.7
					c0.1,0.3,0.2,0.6,0.2,1c0,0.2,0,0.3,0,0.5s0,0.3-0.1,0.5h-3.1c0,0.4,0.1,0.8,0.3,1s0.5,0.3,1,0.3c0.3,0,0.5,0,0.8-0.1
					s0.4-0.2,0.5-0.3L262.6,91.3z M260.7,87.4c-0.4,0-0.6,0.1-0.8,0.3s-0.3,0.5-0.3,0.9h2c0-0.4,0-0.7-0.2-0.9S261,87.4,260.7,87.4z
					"/>
				<path class="st0" d="M265.2,90c0,0.2,0,0.4,0.1,0.5s0.2,0.2,0.3,0.2c0.1,0,0.2,0,0.2,0c0.1,0,0.2-0.1,0.3-0.1l0.1,1.1
					c-0.1,0.1-0.3,0.1-0.5,0.2S265.2,92,265,92c-0.4,0-0.7-0.1-0.9-0.3s-0.3-0.5-0.3-0.9v-6.3h1.4V90L265.2,90z"/>
				<path class="st0" d="M269.1,90.3c0-0.1-0.1-0.2-0.2-0.3c-0.1-0.1-0.3-0.2-0.4-0.2s-0.4-0.1-0.6-0.2s-0.4-0.2-0.6-0.3
					s-0.3-0.3-0.4-0.5s-0.2-0.5-0.2-0.8c0-0.5,0.1-0.9,0.5-1.2c0.3-0.3,0.8-0.4,1.3-0.4c0.4,0,0.8,0,1.1,0.1s0.6,0.2,0.8,0.3l-0.3,1
					c-0.2-0.1-0.4-0.1-0.6-0.2s-0.5-0.1-0.8-0.1c-0.4,0-0.6,0.2-0.6,0.5c0,0.1,0.1,0.2,0.2,0.3c0.1,0.1,0.3,0.2,0.4,0.2
					c0.2,0.1,0.4,0.1,0.6,0.2s0.4,0.2,0.6,0.3s0.3,0.3,0.4,0.5s0.2,0.4,0.2,0.8c0,0.5-0.2,0.9-0.5,1.3c-0.3,0.3-0.9,0.5-1.5,0.5
					c-0.4,0-0.7-0.1-1-0.1c-0.3-0.1-0.6-0.2-0.8-0.3l0.4-1c0.2,0.1,0.4,0.2,0.6,0.3c0.3,0.1,0.5,0.1,0.8,0.1c0.2,0,0.4,0,0.5-0.1
					C269,90.6,269.1,90.5,269.1,90.3z"/>
			</g>
		</g>
		<g>
			<g>
				<path class="st0" d="M223.3,127.1c-0.2,0.2-0.5,0.3-0.9,0.3s-0.7,0.1-1.1,0.1c-0.4,0-0.9-0.1-1.3-0.2s-0.8-0.4-1.1-0.7
					c-0.3-0.3-0.5-0.7-0.7-1.2s-0.3-1.1-0.3-1.8c0-0.7,0.1-1.3,0.3-1.8s0.5-0.9,0.8-1.2c0.3-0.3,0.7-0.5,1.1-0.6
					c0.4-0.1,0.8-0.2,1.2-0.2s0.8,0,1.1,0.1s0.5,0.1,0.7,0.2l-0.3,1.2c-0.2-0.1-0.4-0.1-0.6-0.2s-0.5-0.1-0.8-0.1
					c-0.6,0-1.1,0.2-1.4,0.6c-0.4,0.4-0.5,1.1-0.5,1.9c0,0.4,0,0.7,0.1,1s0.2,0.6,0.4,0.8s0.4,0.4,0.6,0.5c0.3,0.1,0.6,0.2,0.9,0.2
					c0.3,0,0.6,0,0.8-0.1s0.4-0.1,0.6-0.2L223.3,127.1z"/>
				<path class="st0" d="M224,124.8c0-0.9,0.2-1.6,0.6-2.1c0.4-0.5,1.1-0.7,1.8-0.7c0.4,0,0.8,0.1,1.1,0.2s0.6,0.3,0.8,0.6
					s0.4,0.5,0.5,0.9s0.1,0.7,0.1,1.1c0,0.9-0.2,1.6-0.6,2.1s-1,0.7-1.8,0.7c-0.4,0-0.8-0.1-1.1-0.2s-0.6-0.3-0.8-0.6
					c-0.2-0.2-0.4-0.5-0.5-0.9S224,125.2,224,124.8z M225.4,124.8c0,0.2,0,0.4,0.1,0.6c0,0.2,0.1,0.4,0.2,0.5
					c0.1,0.2,0.2,0.3,0.3,0.3c0.1,0.1,0.3,0.1,0.5,0.1c0.4,0,0.6-0.1,0.8-0.4s0.3-0.7,0.3-1.2s-0.1-0.9-0.2-1.2s-0.4-0.4-0.8-0.4
					c-0.3,0-0.6,0.1-0.8,0.4C225.5,123.8,225.4,124.2,225.4,124.8z"/>
				<path class="st0" d="M233.1,127.4v-3c0-0.4-0.1-0.7-0.2-0.9s-0.3-0.3-0.6-0.3s-0.5,0.1-0.7,0.2c-0.2,0.2-0.3,0.3-0.4,0.6v3.4
					h-1.4v-5.3h1.1l0.2,0.7l0,0c0.2-0.2,0.4-0.4,0.6-0.6c0.3-0.2,0.6-0.2,1-0.2c0.3,0,0.5,0,0.7,0.1s0.4,0.2,0.5,0.3
					c0.1,0.2,0.2,0.4,0.3,0.7s0.1,0.6,0.1,1v3.3L233.1,127.4L233.1,127.4z"/>
				<path class="st0" d="M237.8,126c0-0.1-0.1-0.2-0.2-0.3c-0.1-0.1-0.3-0.2-0.4-0.2s-0.4-0.1-0.6-0.2s-0.4-0.2-0.6-0.3
					c-0.2-0.1-0.3-0.3-0.4-0.5s-0.2-0.5-0.2-0.8c0-0.5,0.1-0.9,0.5-1.2c0.3-0.3,0.8-0.4,1.3-0.4c0.4,0,0.8,0,1.1,0.1
					s0.6,0.2,0.8,0.3l-0.3,1c-0.2-0.1-0.4-0.1-0.6-0.2s-0.5-0.1-0.8-0.1c-0.4,0-0.6,0.2-0.6,0.5c0,0.1,0.1,0.2,0.2,0.3
					c0.1,0.1,0.3,0.2,0.4,0.2c0.2,0.1,0.4,0.1,0.6,0.2s0.4,0.2,0.6,0.3s0.3,0.3,0.4,0.5c0.1,0.2,0.2,0.4,0.2,0.8
					c0,0.5-0.2,0.9-0.5,1.3c-0.3,0.3-0.9,0.5-1.5,0.5c-0.4,0-0.7-0.1-1.1-0.1c-0.3-0.1-0.6-0.2-0.8-0.3l0.4-1
					c0.2,0.1,0.4,0.2,0.6,0.3c0.3,0.1,0.5,0.1,0.8,0.1c0.2,0,0.4,0,0.5-0.1C237.7,126.3,237.8,126.2,237.8,126z"/>
				<path class="st0" d="M244.3,127c-0.2,0.2-0.5,0.3-0.9,0.4s-0.8,0.2-1.1,0.2c-0.9,0-1.5-0.2-1.9-0.7s-0.6-1.2-0.6-2
					c0-0.9,0.2-1.6,0.7-2.1c0.4-0.5,1.1-0.7,1.9-0.7c0.3,0,0.5,0,0.8,0.1s0.5,0.2,0.7,0.3c0.2,0.2,0.4,0.4,0.5,0.7
					c0.1,0.3,0.2,0.6,0.2,1c0,0.2,0,0.3,0,0.5s0,0.3-0.1,0.5h-3.1c0,0.4,0.1,0.8,0.3,1s0.5,0.3,1,0.3c0.3,0,0.5,0,0.8-0.1
					s0.4-0.2,0.5-0.3L244.3,127z M242.3,123.1c-0.4,0-0.6,0.1-0.8,0.3s-0.3,0.5-0.3,0.9h1.9c0-0.4,0-0.7-0.2-0.9
					C242.9,123.2,242.6,123.1,242.3,123.1z"/>
				<path class="st0" d="M248.7,127.4v-3c0-0.4-0.1-0.7-0.2-0.9s-0.3-0.3-0.6-0.3s-0.5,0.1-0.7,0.2c-0.2,0.2-0.3,0.3-0.4,0.6v3.4
					h-1.4v-5.3h1.1l0.2,0.7l0,0c0.2-0.2,0.4-0.4,0.6-0.6c0.3-0.2,0.6-0.2,1-0.2c0.3,0,0.5,0,0.7,0.1s0.4,0.2,0.5,0.3
					c0.1,0.2,0.2,0.4,0.3,0.7s0.1,0.6,0.1,1v3.3L248.7,127.4L248.7,127.4z"/>
				<path class="st0" d="M250.6,122.2h0.7v-1l1.4-0.4v1.4h1.3v1.2h-1.3v2c0,0.4,0,0.6,0.1,0.8s0.2,0.2,0.4,0.2c0.1,0,0.3,0,0.4,0
					s0.2-0.1,0.3-0.1l0.2,1.1c-0.2,0.1-0.4,0.2-0.7,0.2s-0.5,0.1-0.8,0.1c-0.5,0-0.8-0.1-1.1-0.4s-0.3-0.7-0.3-1.2v-2.7h-0.7
					L250.6,122.2L250.6,122.2z"/>
			</g>
		</g>
		<g>
			<g>
				<path class="st0" d="M36.8,121.1c0.2,0,0.3,0,0.5-0.1s0.4,0,0.6,0s0.4,0,0.6,0s0.3,0,0.5,0c0.7,0,1.2,0.1,1.7,0.3
					c0.5,0.2,0.8,0.4,1.1,0.8s0.5,0.7,0.6,1.2s0.2,1,0.2,1.5s-0.1,1-0.2,1.4c-0.1,0.5-0.3,0.9-0.6,1.2c-0.3,0.4-0.7,0.7-1.2,0.9
					s-1.1,0.3-1.8,0.3c-0.1,0-0.3,0-0.5,0s-0.4,0-0.6,0c-0.2,0-0.4,0-0.6,0c-0.2,0-0.3,0-0.4,0L36.8,121.1L36.8,121.1z M39.1,122.2
					c-0.2,0-0.3,0-0.5,0s-0.3,0-0.3,0v4.9h0.1c0.1,0,0.1,0,0.2,0s0.2,0,0.2,0s0.1,0,0.2,0c0.4,0,0.8-0.1,1-0.2
					c0.3-0.1,0.5-0.3,0.6-0.6c0.2-0.2,0.3-0.5,0.3-0.8s0.1-0.6,0.1-1c0-0.3,0-0.6-0.1-0.9s-0.2-0.6-0.3-0.8
					c-0.2-0.2-0.4-0.4-0.6-0.6S39.5,122.2,39.1,122.2z"/>
				<path class="st0" d="M43.4,125.8c0-0.9,0.2-1.6,0.7-2.1c0.4-0.5,1-0.7,1.8-0.7c0.4,0,0.8,0.1,1.1,0.2s0.6,0.3,0.8,0.6
					s0.4,0.5,0.5,0.9s0.2,0.7,0.2,1.1c0,0.9-0.2,1.6-0.7,2.1c-0.4,0.5-1,0.7-1.8,0.7c-0.4,0-0.8-0.1-1.1-0.2
					c-0.3-0.1-0.6-0.3-0.8-0.6s-0.4-0.5-0.5-0.9S43.4,126.2,43.4,125.8z M44.8,125.8c0,0.2,0,0.4,0.1,0.6c0,0.2,0.1,0.4,0.2,0.5
					c0.1,0.2,0.2,0.3,0.3,0.3c0.1,0.1,0.3,0.1,0.5,0.1c0.4,0,0.6-0.1,0.8-0.4s0.3-0.7,0.3-1.2s-0.1-0.9-0.2-1.2s-0.4-0.4-0.8-0.4
					c-0.3,0-0.6,0.1-0.8,0.4C44.9,124.8,44.8,125.2,44.8,125.8z"/>
				<path class="st0" d="M53.8,124.6l-0.6-1.2l0,0l0.2,1.2v3.8H52V121h1l2.8,3.9l0.6,1.1l0,0l-0.2-1.1V121h1.4v7.4h-1L53.8,124.6z"
					/>
				<path class="st0" d="M58.6,125.8c0-0.9,0.2-1.6,0.7-2.1c0.4-0.5,1-0.7,1.8-0.7c0.4,0,0.8,0.1,1.1,0.2s0.6,0.3,0.8,0.6
					s0.4,0.5,0.5,0.9s0.2,0.7,0.2,1.1c0,0.9-0.2,1.6-0.7,2.1c-0.4,0.5-1,0.7-1.8,0.7c-0.4,0-0.8-0.1-1.1-0.2
					c-0.3-0.1-0.6-0.3-0.8-0.6s-0.4-0.5-0.5-0.9S58.6,126.2,58.6,125.8z M60,125.8c0,0.2,0,0.4,0.1,0.6c0,0.2,0.1,0.4,0.2,0.5
					c0.1,0.2,0.2,0.3,0.3,0.3c0.1,0.1,0.3,0.1,0.5,0.1c0.4,0,0.6-0.1,0.8-0.4s0.3-0.7,0.3-1.2s-0.1-0.9-0.2-1.2s-0.4-0.4-0.8-0.4
					c-0.3,0-0.6,0.1-0.8,0.4C60.1,124.8,60,125.2,60,125.8z"/>
				<path class="st0" d="M64,123.2h0.7v-1l1.4-0.4v1.4h1.3v1.2h-1.3v2c0,0.4,0,0.6,0.1,0.8s0.2,0.2,0.4,0.2c0.1,0,0.3,0,0.4,0
					s0.2-0.1,0.3-0.1l0.2,1.1c-0.2,0.1-0.4,0.2-0.7,0.2c-0.2,0.1-0.5,0.1-0.8,0.1c-0.5,0-0.8-0.1-1.1-0.4s-0.3-0.7-0.3-1.2v-2.7H64
					V123.2z"/>
				<path class="st0" d="M75.9,128.1c-0.2,0.2-0.5,0.3-0.9,0.4s-0.7,0.1-1.1,0.1s-0.9-0.1-1.3-0.2s-0.8-0.4-1.1-0.7
					c-0.3-0.3-0.5-0.7-0.7-1.2s-0.3-1.1-0.3-1.8c0-0.7,0.1-1.3,0.3-1.8c0.2-0.5,0.5-0.9,0.8-1.2s0.7-0.5,1.1-0.6s0.8-0.2,1.2-0.2
					c0.4,0,0.8,0,1.1,0.1s0.5,0.1,0.7,0.2l-0.3,1.2c-0.2-0.1-0.3-0.1-0.6-0.2s-0.5-0.1-0.8-0.1c-0.6,0-1.1,0.2-1.4,0.6
					c-0.4,0.4-0.5,1.1-0.5,1.9c0,0.4,0,0.7,0.1,1s0.2,0.6,0.4,0.8s0.4,0.4,0.6,0.5c0.3,0.1,0.6,0.2,0.9,0.2s0.6,0,0.8-0.1
					s0.4-0.1,0.6-0.2L75.9,128.1z"/>
				<path class="st0" d="M76.8,123.5c0.3-0.1,0.6-0.2,1-0.3s0.8-0.1,1.2-0.1c0.4,0,0.7,0,0.9,0.1s0.4,0.2,0.6,0.4s0.2,0.3,0.3,0.6
					s0.1,0.5,0.1,0.8s0,0.6,0,0.9s0,0.6,0,0.9s0,0.6,0,0.9c0,0.3,0.1,0.6,0.2,0.8H80l-0.2-0.7h-0.1c-0.1,0.2-0.3,0.4-0.6,0.6
					c-0.2,0.2-0.6,0.2-1,0.2c-0.2,0-0.5,0-0.7-0.1s-0.4-0.2-0.5-0.3s-0.2-0.3-0.3-0.5c-0.1-0.2-0.1-0.4-0.1-0.6
					c0-0.3,0.1-0.6,0.2-0.8c0.1-0.2,0.3-0.4,0.6-0.5c0.3-0.1,0.6-0.2,1-0.3c0.4-0.1,0.8-0.1,1.3-0.1c0.1-0.4,0-0.7-0.1-0.8
					s-0.3-0.3-0.7-0.3c-0.3,0-0.6,0-0.9,0.1s-0.6,0.1-0.8,0.2L76.8,123.5z M78.5,127.4c0.3,0,0.5-0.1,0.7-0.2s0.3-0.2,0.4-0.4v-0.7
					c-0.2,0-0.4,0-0.6,0s-0.4,0.1-0.5,0.1c-0.2,0.1-0.3,0.1-0.4,0.2s-0.1,0.2-0.1,0.3c0,0.2,0.1,0.3,0.2,0.5S78.3,127.4,78.5,127.4z
					"/>
				<path class="st0" d="M83.4,126.7c0,0.2,0,0.4,0.1,0.5s0.2,0.2,0.3,0.2c0.1,0,0.2,0,0.2,0c0.1,0,0.2-0.1,0.3-0.1l0.2,1.1
					c-0.1,0.1-0.3,0.1-0.5,0.2c-0.2,0.1-0.5,0.1-0.7,0.1c-0.4,0-0.7-0.1-0.9-0.3s-0.3-0.5-0.3-0.9v-6.3h1.4L83.4,126.7L83.4,126.7z"
					/>
				<path class="st0" d="M86.5,126.7c0,0.2,0,0.4,0.1,0.5s0.2,0.2,0.3,0.2c0.1,0,0.2,0,0.2,0c0.1,0,0.2-0.1,0.3-0.1l0.2,1.1
					c-0.1,0.1-0.3,0.1-0.5,0.2c-0.2,0.1-0.5,0.1-0.7,0.1c-0.4,0-0.7-0.1-0.9-0.3s-0.3-0.5-0.3-0.9v-6.3h1.4L86.5,126.7L86.5,126.7z"
					/>
			</g>
		</g>
		<path class="st1" d="M21.7,129.6c-0.1,0-0.1,0-0.2,0c-0.1-0.1-0.2-0.2-0.2-0.4v-9.9c0-0.2,0.1-0.3,0.2-0.4c0,0,0.1,0,0.2,0h9.9
			c0.2,0,0.4,0.2,0.4,0.4v9.9c0,0.2-0.2,0.4-0.4,0.4H21.7z M32.8,117.8h-0.2h-12c-0.1,0-0.1,0-0.2,0c-0.1,0.1-0.2,0.2-0.2,0.4v12.2
			c0,0.2,0.1,0.3,0.2,0.4c0,0,0.1,0,0.2,0h12h0.1c0.2,0,0.4-0.2,0.4-0.4v-0.2v-11.8v-0.1C33.2,118,33,117.8,32.8,117.8z"/>
		<g>
			<g>
				<path class="st0" d="M41.9,89.8c0-0.2-0.1-0.4-0.2-0.6s-0.4-0.3-0.6-0.4c-0.2-0.1-0.5-0.2-0.8-0.4s-0.6-0.3-0.8-0.4
					s-0.5-0.4-0.6-0.7s-0.2-0.6-0.2-1s0.1-0.7,0.2-0.9s0.3-0.5,0.5-0.7s0.5-0.3,0.8-0.4s0.6-0.1,1-0.1s0.8,0,1.2,0.1
					s0.7,0.2,0.9,0.3l-0.4,1.2c-0.2-0.1-0.4-0.2-0.7-0.3c-0.3-0.1-0.6-0.1-1-0.1c-0.3,0-0.6,0.1-0.8,0.2S40,86,40,86.2
					s0.1,0.4,0.2,0.5s0.4,0.3,0.6,0.4s0.5,0.2,0.8,0.4c0.3,0.1,0.6,0.3,0.8,0.5s0.5,0.4,0.6,0.7s0.2,0.6,0.2,1s-0.1,0.7-0.2,1
					c-0.1,0.3-0.3,0.5-0.5,0.7s-0.5,0.3-0.8,0.4s-0.7,0.1-1.1,0.1c-0.5,0-1-0.1-1.4-0.2s-0.7-0.2-0.9-0.3l0.5-1.2
					c0.1,0,0.2,0.1,0.3,0.1s0.3,0.1,0.4,0.1c0.2,0,0.3,0.1,0.5,0.1s0.3,0,0.5,0c0.4,0,0.8-0.1,1-0.2C41.8,90.3,41.9,90,41.9,89.8z"
					/>
				<path class="st0" d="M48.5,91.3c-0.2,0.2-0.5,0.3-0.9,0.4s-0.8,0.2-1.2,0.2c-0.8,0-1.5-0.2-1.9-0.7s-0.6-1.2-0.6-2
					c0-0.9,0.2-1.6,0.7-2.1c0.4-0.5,1.1-0.7,1.9-0.7c0.3,0,0.5,0,0.8,0.1s0.5,0.2,0.7,0.3c0.2,0.2,0.3,0.4,0.5,0.7
					c0.1,0.3,0.2,0.6,0.2,1c0,0.2,0,0.3,0,0.5s0,0.3-0.1,0.5h-3.2c0,0.4,0.1,0.8,0.3,1s0.5,0.3,1,0.3c0.3,0,0.5,0,0.8-0.1
					s0.4-0.2,0.5-0.3L48.5,91.3z M46.5,87.4c-0.4,0-0.6,0.1-0.8,0.3c-0.2,0.2-0.3,0.5-0.3,0.9h2c0-0.4,0-0.7-0.2-0.9
					S46.8,87.4,46.5,87.4z"/>
				<path class="st0" d="M52.8,91.7v-3c0-0.4-0.1-0.7-0.2-0.9s-0.3-0.3-0.6-0.3s-0.5,0.1-0.7,0.2S51,88,50.9,88.3v3.4h-1.4v-5.3h1.1
					l0.2,0.7l0,0c0.2-0.2,0.4-0.4,0.6-0.6c0.3-0.2,0.6-0.2,1-0.2c0.3,0,0.5,0,0.7,0.1s0.4,0.2,0.5,0.3c0.1,0.2,0.2,0.4,0.3,0.7
					s0.1,0.6,0.1,1v3.3L52.8,91.7L52.8,91.7z"/>
				<path class="st0" d="M54.8,86.5h0.7v-1l1.4-0.4v1.4h1.3v1.2h-1.3v2c0,0.4,0,0.6,0.1,0.8s0.2,0.2,0.4,0.2c0.1,0,0.3,0,0.4,0
					c0.1,0,0.2-0.1,0.3-0.1l0.2,1.1c-0.2,0.1-0.4,0.2-0.7,0.2S57.1,92,56.8,92c-0.5,0-0.8-0.1-1.1-0.4s-0.3-0.7-0.3-1.2v-2.7h-0.7
					L54.8,86.5L54.8,86.5z"/>
				<path class="st0" d="M59,85c0-0.2,0.1-0.4,0.2-0.5c0.2-0.1,0.4-0.2,0.6-0.2s0.5,0.1,0.7,0.2s0.2,0.3,0.2,0.5s-0.1,0.4-0.2,0.5
					s-0.4,0.2-0.7,0.2s-0.5-0.1-0.6-0.2S59,85.2,59,85z M59.2,86.5h1.4v5.3h-1.4V86.5z"/>
				<path class="st0" d="M64.9,91.7v-2.9c0-0.5-0.1-0.8-0.1-1s-0.3-0.3-0.6-0.3c-0.2,0-0.4,0.1-0.6,0.2c-0.2,0.1-0.3,0.3-0.3,0.5
					v3.5h-1.4v-5.3H63l0.2,0.7l0,0c0.2-0.2,0.4-0.4,0.6-0.6s0.6-0.2,1-0.2c0.3,0,0.6,0.1,0.8,0.2c0.2,0.1,0.4,0.4,0.5,0.7
					c0.2-0.3,0.4-0.5,0.6-0.7s0.6-0.2,0.9-0.2s0.6,0,0.8,0.1c0.2,0.1,0.4,0.2,0.5,0.4c0.1,0.2,0.2,0.4,0.3,0.7s0.1,0.7,0.1,1.1v3.2
					h-1.4v-3c0-0.4,0-0.7-0.1-0.9s-0.3-0.3-0.6-0.3c-0.2,0-0.4,0.1-0.6,0.2s-0.2,0.3-0.3,0.6v3.5L64.9,91.7L64.9,91.7z"/>
				<path class="st0" d="M74.6,91.3c-0.2,0.2-0.5,0.3-0.9,0.4s-0.8,0.2-1.2,0.2c-0.8,0-1.5-0.2-1.9-0.7S70,90,70,89.2
					c0-0.9,0.2-1.6,0.7-2.1c0.4-0.5,1.1-0.7,1.9-0.7c0.3,0,0.5,0,0.8,0.1s0.5,0.2,0.7,0.3c0.2,0.2,0.3,0.4,0.5,0.7
					c0.1,0.3,0.2,0.6,0.2,1c0,0.2,0,0.3,0,0.5s0,0.3-0.1,0.5h-3.2c0,0.4,0.1,0.8,0.3,1s0.5,0.3,1,0.3c0.3,0,0.5,0,0.8-0.1
					s0.4-0.2,0.5-0.3L74.6,91.3z M72.6,87.4c-0.4,0-0.6,0.1-0.8,0.3s-0.3,0.5-0.3,0.9h1.9c0-0.4,0-0.7-0.2-0.9
					C73.2,87.5,72.9,87.4,72.6,87.4z"/>
				<path class="st0" d="M78.9,91.7v-3c0-0.4-0.1-0.7-0.2-0.9s-0.3-0.3-0.6-0.3c-0.3,0-0.5,0.1-0.7,0.2S77.1,88,77,88.3v3.4h-1.4
					v-5.3h1.1l0.2,0.7l0,0c0.2-0.2,0.4-0.4,0.6-0.6c0.3-0.2,0.6-0.2,1-0.2c0.3,0,0.5,0,0.7,0.1s0.4,0.2,0.5,0.3
					c0.1,0.2,0.2,0.4,0.3,0.7s0.1,0.6,0.1,1v3.3L78.9,91.7L78.9,91.7z"/>
				<path class="st0" d="M80.9,86.5h0.7v-1l1.4-0.4v1.4h1.3v1.2H83v2c0,0.4,0,0.6,0.1,0.8s0.2,0.2,0.4,0.2c0.1,0,0.3,0,0.4,0
					s0.2-0.1,0.3-0.1l0.2,1.1c-0.2,0.1-0.4,0.2-0.7,0.2S83.2,92,82.9,92c-0.5,0-0.8-0.1-1.1-0.4s-0.3-0.7-0.3-1.2v-2.7h-0.7
					L80.9,86.5L80.9,86.5z"/>
				<path class="st0" d="M92.3,89.9c0,0.3,0,0.6,0,0.9s0,0.6,0.1,1h-1l-0.2-0.7l0,0c-0.1,0.2-0.3,0.4-0.6,0.6s-0.6,0.2-0.9,0.2
					c-0.7,0-1.2-0.2-1.5-0.7c-0.4-0.4-0.6-1.1-0.6-2.1c0-0.9,0.2-1.6,0.6-2.1s1-0.8,1.8-0.8c0.2,0,0.4,0,0.5,0s0.3,0.1,0.4,0.1v-2.2
					h1.4C92.3,84.3,92.3,89.9,92.3,89.9z M90,90.7c0.3,0,0.5-0.1,0.6-0.2c0.2-0.1,0.3-0.3,0.3-0.6v-2.2c-0.1-0.1-0.2-0.1-0.3-0.2
					c-0.1,0-0.3-0.1-0.5-0.1c-0.4,0-0.7,0.1-0.9,0.4S89,88.6,89,89.2c0,0.4,0.1,0.8,0.2,1.1S89.6,90.7,90,90.7z"/>
				<path class="st0" d="M93.5,86.8c0.3-0.1,0.6-0.2,1-0.3s0.8-0.1,1.2-0.1c0.4,0,0.7,0,0.9,0.1s0.4,0.2,0.6,0.4s0.2,0.3,0.3,0.6
					s0.1,0.5,0.1,0.8s0,0.6,0,0.9s0,0.6,0,0.9s0,0.6,0,0.9s0.1,0.6,0.2,0.8h-1.1L96.4,91h-0.1c-0.1,0.2-0.3,0.4-0.6,0.6
					c-0.2,0.2-0.6,0.2-1,0.2c-0.2,0-0.5,0-0.7-0.1s-0.4-0.2-0.5-0.3s-0.2-0.3-0.3-0.5c-0.1-0.2-0.1-0.4-0.1-0.6
					c0-0.3,0.1-0.6,0.2-0.8c0.1-0.2,0.3-0.4,0.6-0.5c0.3-0.1,0.6-0.2,1-0.3c0.4-0.1,0.8-0.1,1.3-0.1c0.1-0.4,0-0.7-0.1-0.8
					s-0.3-0.3-0.7-0.3c-0.3,0-0.6,0-0.9,0.1s-0.6,0.1-0.8,0.2L93.5,86.8z M95.2,90.7c0.3,0,0.5-0.1,0.7-0.2s0.3-0.2,0.4-0.4v-0.7
					c-0.2,0-0.4,0-0.6,0s-0.4,0.1-0.5,0.1c-0.2,0.1-0.3,0.1-0.4,0.2s-0.1,0.2-0.1,0.3c0,0.2,0.1,0.3,0.2,0.5S95,90.7,95.2,90.7z"/>
				<path class="st0" d="M98.2,86.5h0.7v-1l1.4-0.4v1.4h1.3v1.2h-1.3v2c0,0.4,0,0.6,0.1,0.8s0.2,0.2,0.4,0.2c0.1,0,0.3,0,0.4,0
					s0.2-0.1,0.3-0.1l0.2,1.1c-0.2,0.1-0.4,0.2-0.7,0.2s-0.5,0.1-0.8,0.1c-0.5,0-0.8-0.1-1.1-0.4s-0.3-0.7-0.3-1.2v-2.7h-0.7
					L98.2,86.5L98.2,86.5z"/>
				<path class="st0" d="M102.4,86.8c0.3-0.1,0.6-0.2,1-0.3s0.8-0.1,1.2-0.1c0.4,0,0.7,0,0.9,0.1s0.4,0.2,0.6,0.4s0.2,0.3,0.3,0.6
					s0.1,0.5,0.1,0.8s0,0.6,0,0.9s0,0.6,0,0.9s0,0.6,0,0.9s0.1,0.6,0.2,0.8h-1.1l-0.2-0.7h-0.1c-0.1,0.2-0.3,0.4-0.6,0.6
					c-0.2,0.2-0.6,0.2-1,0.2c-0.2,0-0.5,0-0.7-0.1s-0.4-0.2-0.5-0.3s-0.2-0.3-0.3-0.5c-0.1-0.2-0.1-0.4-0.1-0.6
					c0-0.3,0.1-0.6,0.2-0.8c0.1-0.2,0.3-0.4,0.6-0.5c0.3-0.1,0.6-0.2,1-0.3c0.4-0.1,0.8-0.1,1.3-0.1c0.1-0.4,0-0.7-0.1-0.8
					s-0.3-0.3-0.7-0.3c-0.3,0-0.6,0-0.9,0.1s-0.6,0.1-0.8,0.2L102.4,86.8z M104.1,90.7c0.3,0,0.5-0.1,0.7-0.2s0.3-0.2,0.4-0.4v-0.7
					c-0.2,0-0.4,0-0.6,0s-0.4,0.1-0.5,0.1c-0.2,0.1-0.3,0.1-0.4,0.2s-0.1,0.2-0.1,0.3c0,0.2,0.1,0.3,0.2,0.5S103.9,90.7,104.1,90.7z
					"/>
			</g>
		</g>
		<g>
			<path class="st1" d="M211.2,124.7v4.5c0,0.2-0.2,0.4-0.4,0.4h-9.9c-0.2,0-0.4-0.2-0.4-0.4v-9.9c0-0.2,0.2-0.4,0.4-0.4h10
				c0.1,0,0.1,0,0.1-0.1l0.8-0.7c0.1-0.1,0-0.3-0.1-0.3h-11.9c-0.2,0-0.4,0.2-0.4,0.4v12.1c0,0.2,0.2,0.4,0.4,0.4h12.1
				c0.2,0,0.4-0.2,0.4-0.4V124c0-0.2-0.2-0.3-0.3-0.2l-0.7,0.7C211.2,124.6,211.2,124.7,211.2,124.7z"/>
			<path class="st1" d="M206,127.5L206,127.5l-3.4-3.4c0,0,0-0.1,0-0.2l1.2-1.1h0.1h0.1l1.9,1.9c0.1,0.1,0.2,0.2,0.4,0.2
				c0.1,0,0.2-0.1,0.3-0.1l6.1-5.3h0.1h0.1l1.1,1.1v0.1v0.1L206,127.5C206.1,127.5,206.1,127.5,206,127.5z"/>
		</g>
		<g>
			<g>
				<path class="st2" d="M157.2,252.9c-4.9,0-8.8-4-8.8-8.9v-32.4c0-5,3.8-9.2,8.8-9.8l0.3-0.1l0.2-0.3c0.4-0.8,1.3-1.3,2.2-1.3
					c1.4,0,2.5,1.1,2.5,2.5s-1.1,2.5-2.4,2.5c0,0,0,0-0.1,0c-0.8,0-1.6-0.4-2-1.1l-0.2-0.3l-0.4,0.1c-3.9,0.5-6.8,3.8-6.8,7.8V244
					c0,3.8,3.1,6.9,6.9,6.9h0.4c3.8,0,6.9-3.1,6.9-6.9v-7.6c0-0.6,0.5-1,1-1c0.6,0,1,0.4,1,1l0,0v4.1c0,2.1,1.8,3.9,3.9,3.9h1.2
					c3.9,0,7-3.1,7-7v-1.1l-0.1-0.1c-0.1-0.1-0.1-0.3-0.1-0.4c0-0.1,0-0.3,0.1-0.4l0.1-0.1v-0.8c0-3.9-3.1-7-7-7H162
					c-0.6,0-1-0.5-1-1s0.4-1,1-1c0,0,0,0,0.1,0h9.8c4.9,0,8.8,3.9,8.9,8.7v0.6h5.4c3,0,5.5-2.5,5.5-5.5V216c0-3-2.5-5.5-5.5-5.5h-14
					c-0.6,0-1-0.5-1-1s0.4-1,1-1c0,0,0,0,0.1,0h14c4.1,0,7.5,3.3,7.5,7.4v0.8l0.7-0.2c3.5-0.8,6-3.9,6-7.5v-17.4
					c0-4.9-4-7.7-10.9-7.7c-0.6,0-1-0.5-1-1s0.4-1,1-1c0,0,0,0,0.1,0c1.6,0,3.2,0.1,4.8,0.4l0.7,0.2v-9.1c0.1-1.3-0.4-2.5-1.4-3.3
					c-0.6-0.6-1.5-1-2.4-1.2l-0.7-0.1v0.8c-0.1,4.1-3.4,7.3-7.5,7.3h-23.6c-0.6,0-1-0.5-1-1s0.4-1,1-1c0,0,0,0,0.1,0h23.6
					c3,0,5.4-2.4,5.5-5.4v-10.9c-0.1-3-2.5-5.3-5.5-5.3H180l-0.2,0.4c-1.5,3.1-4.6,5.1-8.1,5.1h-5.9h-0.1c-0.4-0.2-0.6-0.5-0.6-0.9
					c0-0.6,0.4-1,1-1c0,0,0,0,0.1,0h5.6c3.9,0,7-3.1,7-7v-3c0-3.9-3.1-7-7-7h-1.2c-2.1,0-3.9,1.6-3.9,3.8v0.1v1.3
					c0,0.1,0,0.2-0.1,0.3v0.1v1.4c0,0.6-0.5,1-1,1c-0.6,0-1-0.4-1-1c0,0,0,0,0-0.1v-4.4c0-3.8-3.1-6.9-6.9-6.9h-0.4
					c-3.8,0-6.9,3.1-6.9,6.9v35.8c0,2.4,1.9,4.4,4.4,4.4h5.3c3.5,0,6.3,2.8,6.3,6.3v3.4c0,2.4,1.9,4.4,4.4,4.4H181c0.6,0,1,0.5,1,1
					c0,0.6-0.4,1-1,1l0,0h-10.3c-3.5,0-6.3-2.8-6.3-6.3v-3.5c0-2.4-2-4.4-4.4-4.4h-5.3c-3.5,0-6.3-2.8-6.3-6.3v-35.8
					c0-4.9,4-8.9,8.9-8.9h0.4c3.6,0,6.8,2.2,8.2,5.5l0.3,0.8l0.6-0.5c1-0.8,2.3-1.3,3.7-1.3h1.2c4.9,0,8.9,4,8.9,8.9v3
					c0,0.3,0,0.5,0,0.8l-0.1,0.7h2.5c4.1,0,7.4,3.2,7.5,7.3v8.4l0.6,0.1c1.4,0.1,2.8,0.8,3.8,1.8c1.3,1.2,2.1,3,2.1,4.8v9.7l0.4,0.2
					c3.4,1.6,5.1,4.4,5.1,8.3v17.4c0,4.8-3.5,8.9-8.2,9.6l-0.5,0.1v10.6c0,4.1-3.4,7.5-7.5,7.5h-5.4v0.6c-0.1,4.9-4,8.8-8.9,8.9
					h-2.1c-0.8-0.1-1.6-0.4-2.2-0.8l-0.7-0.5l-0.2,0.9c-0.8,4-4.2,6.9-8.3,7.1L157.2,252.9z"/>
				<path class="st2" d="M180.1,167.8c-0.9,0-1.7-0.5-2.2-1.2l-0.2-0.3h-12.6v-0.1h-0.6c-4.4,0-8-3.5-8.1-7.9v-11.8l-0.3-0.2
					c-1.2-0.7-1.6-2.3-0.9-3.5s2.4-1.6,3.6-0.8c0.8,0.5,1.2,1.3,1.2,2.2s-0.5,1.7-1.2,2.2l-0.3,0.2v11.8c0,3.2,2.7,5.9,6,5.9h13.2
					l0.2-0.3c0.8-1.2,2.4-1.6,3.6-0.8c1.2,0.7,1.6,2.3,0.9,3.5C181.8,167.4,181,167.9,180.1,167.8L180.1,167.8z"/>
				<path class="st2" d="M193.1,207.1c-1.4,0-2.6-1.1-2.6-2.5c0-0.9,0.5-1.7,1.2-2.2l0.3-0.2v-8.9c0-2.2-1.9-4.1-4.2-4.1h-13.3
					l-0.2,0.3c-0.5,0.8-1.3,1.3-2.2,1.3c-1.4-0.1-2.6-1.3-2.5-2.7c0.1-1.3,1.1-2.3,2.5-2.4c0.9,0,1.7,0.4,2.2,1.1l0.2,0.3h13.4
					c3.5,0,6.3,2.7,6.3,6.1v8.9l0.3,0.2c0.8,0.4,1.3,1.3,1.3,2.1C195.8,206,194.6,207.1,193.1,207.1
					C193.2,207.1,193.1,207.1,193.1,207.1z"/>
				<path class="st2" d="M183.3,221.8c-0.9,0-1.7-0.4-2.2-1.1l-0.2-0.3H166v-0.1h-0.6c-3,0-5.5-2.3-5.5-5.1v-1.9l-0.3-0.2
					c-0.8-0.4-1.3-1.2-1.3-2.1c0.1-1.4,1.3-2.4,2.7-2.3c1.3,0.1,2.4,1.1,2.5,2.3c0,0.8-0.4,1.6-1.2,2.1l-0.3,0.2v1.9
					c0,1.8,1.5,3.2,3.4,3.2h15.5l0.2-0.3c0.4-0.8,1.3-1.2,2.2-1.2c1.4-0.1,2.7,1,2.7,2.3s-1,2.5-2.5,2.6
					C183.4,221.9,183.3,221.9,183.3,221.8L183.3,221.8z"/>
				<path class="st2" d="M134.7,253c-3.7-0.5-6.8-3.2-7.6-6.9l-0.2-0.8l-0.7,0.5c-0.9,0.6-2,0.9-3.2,0.9h-0.3l-1.1-0.1
					c-4.9,0-8.9-4-8.9-8.9V237h-5.5c-4.2,0-7.5-3.4-7.5-7.5v-10.6l-0.5-0.1c-4.7-0.7-8.2-4.8-8.2-9.6v-17.4c0-2.7,0.9-6.3,5-8.2
					l0.3-0.2v-9.8c0-1.8,0.8-3.5,2.1-4.8c1.1-1,2.5-1.7,3.9-1.8h0.6v-8.2c0.1-4.1,3.4-7.3,7.4-7.3h2.5l-0.1-0.7c0-0.3,0-0.6,0-0.9
					v-3c0-4.9,4-8.9,8.9-8.9h1.2c1.3,0,2.6,0.4,3.6,1.2l0.6,0.5l0.3-0.7c1.4-3.3,4.6-5.5,8.2-5.5h0.4c4.9,0,8.9,4,8.9,8.9v35.8
					c0,3.5-2.8,6.3-6.3,6.3h-5.3c-2.4,0-4.4,1.9-4.4,4.4v3.4c0,3.5-2.8,6.3-6.3,6.3H112l0,0c-0.4-0.2-0.6-0.5-0.6-0.9
					c0-0.5,0.4-1,0.9-1c0,0,0,0,0.1,0h10.4c2.4,0,4.4-2,4.4-4.4v-3.4c0-3.5,2.8-6.3,6.3-6.3h5.3c2.4,0,4.4-2,4.4-4.4v-35.8
					c0-3.8-3.1-6.9-6.9-6.9l0,0h-0.4c-3.8,0-6.9,3.1-6.9,6.9v4.4c0,0.6-0.5,1-1,1c-0.6,0-1-0.4-1-1c0,0,0,0,0-0.1v-3
					c0-2.1-1.8-3.9-3.9-3.9h-1.2c-3.8,0-7,3.1-7,7v3c0,3.9,3.1,7,7,7h5.6c0.6,0,1,0.5,1,1c0,0.6-0.4,1-1,1l0,0h-4.9v-0.1H122
					c-3.4,0-6.5-2-8-5l-0.2-0.3h-3.1c-3,0-5.4,2.4-5.5,5.4v10.9c0.1,3,2.5,5.4,5.5,5.4H134c0.6,0,1,0.4,1,1s-0.4,1-1,1l0,0h-22.5
					l-1.1-0.1c-1.9,0-3.8-0.8-5.2-2.2c-1.4-1.4-2.2-3.2-2.2-5.1v-0.9l-0.7,0.1c-0.9,0.1-1.7,0.5-2.4,1.2c-0.9,0.9-1.4,2.1-1.4,3.3
					v9.2l0.7-0.2c1.5-0.3,3.1-0.4,4.7-0.4c0.6,0,1,0.5,1,1c0,0.6-0.4,1-1,1l0,0c-6.9,0-10.8,2.8-10.8,7.7v17.4
					c0,3.6,2.5,6.7,6.1,7.5l0.7,0.2v-0.7c0.1-4.1,3.4-7.4,7.5-7.4h14c0.6,0,1,0.5,1,1c0,0.6-0.4,1-1,1l0,0h-14c-3,0-5.5,2.5-5.5,5.5
					v13.3c0,3,2.5,5.5,5.5,5.5h5.5v-0.6c0.1-4.8,4.1-8.7,8.9-8.7h9.7c0.6,0,1,0.5,1,1c0,0.6-0.4,1-1,1l0,0h-9.7c-3.8,0-7,3.1-7,7
					v0.9l0,0c0,0.1,0.1,0.2,0.1,0.3s0,0.2-0.1,0.3v0.1v1.3c0,3.9,3.1,7,7,7h1.2c2.1,0,3.9-1.6,3.9-3.8v-0.1v-4.2c0-0.6,0.5-1,1-1
					c0.5,0,1,0.4,1,1c0,0,0,0,0,0.1v7.6c0,3.8,3.1,6.9,6.9,6.9h0.4c3.8,0,6.9-3.1,6.9-6.9v-32.4c0-4.4-3.5-7.9-7.9-7.9h-0.4
					l-0.2,0.3c-0.5,1-1.5,1.6-2.6,1.6c-1.6,0-2.9-1.3-2.9-2.9c0-1.6,1.3-2.9,2.9-2.9c1.1,0,2.1,0.6,2.6,1.6l0.2,0.3h0.4
					c5.4,0,9.8,4.4,9.8,9.9v32.4c0,4.9-4,8.9-8.9,8.9H135h-0.2L134.7,253z"/>
				<path class="st2" d="M113.6,167.9c-1.6,0-3-1.3-3-2.9c0-1.6,1.3-2.9,3-2.9c1.1,0,2.1,0.6,2.6,1.6l0.2,0.3h12.3
					c3.2,0,5.8-2.6,5.8-5.7v-11l-0.3-0.2c-1.4-0.7-2-2.5-1.3-3.9c0.5-1,1.5-1.6,2.6-1.6c1.6,0,2.9,1.3,3,2.9c0,1.1-0.6,2.1-1.6,2.6
					l-0.3,0.2v11c0,4.2-3.5,7.6-7.8,7.6h-12.3l-0.2,0.3C115.8,167.2,114.7,167.9,113.6,167.9z"/>
				<path class="st2" d="M100.6,207.1c-1.6,0-3-1.3-3-2.8c0-1,0.6-2,1.5-2.5l0.3-0.2v-8.1c0-3.2,2.7-5.8,6.1-5.8H118l0.2-0.3
					c0.5-1,1.5-1.6,2.7-1.6c1.6,0,3,1.3,3,2.8c0,1.6-1.3,2.8-2.9,2.8c0,0,0,0-0.1,0c-1.1,0-2.1-0.6-2.6-1.5l-0.2-0.3h-12.5
					c-2.2,0-4.1,1.7-4.1,3.9v8l0.4,0.2c1.1,0.5,1.7,1.5,1.7,2.6C103.5,205.9,102.2,207.1,100.6,207.1z"/>
				<path class="st2" d="M110.4,221.9c-1.6,0-3-1.3-3-3s1.3-3,2.9-3c1.1,0,2.2,0.6,2.7,1.7l0.2,0.3H128c1.8,0,3.3-1.5,3.3-3.4V213
					l-0.3-0.2c-1.4-0.8-2-2.6-1.3-4.1c0.8-1.5,2.5-2.1,4-1.3c1.4,0.8,2,2.6,1.3,4.1c-0.3,0.6-0.7,1-1.3,1.3l-0.3,0.2v1.4
					c0,3-2.4,5.4-5.3,5.4h-14.8l-0.2,0.4C112.5,221.2,111.5,221.9,110.4,221.9z"/>
			</g>
			<g>
				<polygon class="st0" points="94.2,304.9 91.1,305 121.1,281.5 121.1,258 123,258 123,282.4 				"/>
				<polygon class="st0" points="202.2,304.9 173.5,282.4 173.5,258 175.3,258 175.3,281.5 205.3,305 				"/>
				<polygon class="st0" points="147.4,305 146.5,260.4 148.4,260.4 149.3,305 				"/>
			</g>
		</g>
	</g>
	<path class="st0" d="M276.8,78.1v20.8h-95.6V78.1H276.8 M278.7,76.3h-99.3v24.5h99.3V76.3L278.7,76.3z"/>
	<path class="st0" d="M99.4,113.9v20.8H14.3v-20.8L99.4,113.9 M101.3,112H12.5v24.5h88.8V112L101.3,112z"/>
	<path class="st0" d="M114.1,78.1v20.8H30.7V78.1H114.1 M115.9,76.3H28.8v24.5h87.1L115.9,76.3L115.9,76.3z"/>
	<path class="st0" d="M308.1,40.2V61h-141V40.2H308.1 M310,38.3H165.3v24.5H310V38.3L310,38.3z"/>
	<path class="st0" d="M127.7,40.2V61H3.9V40.2H127.7 M129.5,38.3H2v24.5h127.5V38.3L129.5,38.3z"/>
	<path class="st0" d="M287.8,4.1v20.8H154.5V4.1H287.8 M289.6,2.3h-137v24.5h137V2.3L289.6,2.3z"/>
	<path class="st0" d="M141.3,4.1v20.8H15.8V4.1H141.3 M143.2,2.3H13.9v24.5h129.2V2.3H143.2z"/>
	<rect x="99.4" y="135.7" class="st0" width="1.9" height="13.4"/>
	<rect x="114.1" y="98.9" class="st0" width="1.9" height="33.7"/>
	<rect x="179.4" y="98.9" class="st0" width="1.9" height="33.7"/>
	<rect x="127.7" y="61" class="st0" width="1.9" height="66.1"/>
	<rect x="165.3" y="61" class="st0" width="1.9" height="66.1"/>
	<rect x="141.3" y="24.9" class="st0" width="1.9" height="100.1"/>
	<rect x="152.6" y="24.9" class="st0" width="1.9" height="100.1"/>
	<g>
		<path class="st0" d="M193.5,113.9h66.1v20.8h-66.1V113.9 M191.7,112v24.5h69.8V112H191.7L191.7,112z"/>
		<rect x="191.7" y="135.7" class="st0" width="1.9" height="13.4"/>
	</g>
</g>
</svg>
