<?xml version="1.0" encoding="utf-8"?>
<!-- Generator: Adobe Illustrator 24.1.0, SVG Export Plug-In . SVG Version: 6.00 Build 0)  -->
<svg version="1.1" id="Layer_1" xmlns="http://www.w3.org/2000/svg" xmlns:xlink="http://www.w3.org/1999/xlink" x="0px" y="0px"
	 viewBox="0 0 312 305" style="enable-background:new 0 0 312 305;" xml:space="preserve">
<style type="text/css">
	.st0{fill:#841D80;}
	.st1{fill-rule:evenodd;clip-rule:evenodd;fill:#841D80;}
	.st2{fill:none;}
	.st3{fill:#333E48;}
</style>
<g>
	<path class="st0" d="M253.3,212.3c-17.8,0-32.3-14.5-32.3-32.3s14.5-32.3,32.3-32.3s32.3,14.5,32.3,32.3S271.1,212.3,253.3,212.3z
		 M253.3,149.8c-16.7,0-30.2,13.6-30.2,30.2s13.6,30.2,30.2,30.2s30.2-13.6,30.2-30.2S269.9,149.8,253.3,149.8z"/>
	<path class="st0" d="M59,212.3c-17.8,0-32.3-14.5-32.3-32.3s14.5-32.3,32.3-32.3s32.3,14.5,32.3,32.3S76.9,212.3,59,212.3z
		 M59,149.8c-16.7,0-30.2,13.6-30.2,30.2s13.6,30.2,30.2,30.2s30.2-13.6,30.2-30.2S75.7,149.8,59,149.8z"/>
	<path class="st0" d="M63.1,121.8c-18.3,0-33.2-14.5-33.2-32.3s14.9-32.3,33.2-32.3s33.1,14.5,33.1,32.3
		C96.3,107.3,81.4,121.8,63.1,121.8z M63.1,59.3c-17.1,0-31,13.6-31,30.2s13.9,30.2,31,30.2s31-13.6,31-30.2S80.3,59.3,63.1,59.3z"
		/>
	<path class="st1" d="M59,197.4c-0.5,0-1-0.4-1-1s0.4-1,1-1s1,0.4,1,1S59.6,197.4,59,197.4z"/>
	<path class="st0" d="M59,185.9c-4.2,0-7.5-3.4-7.5-7.6s3.4-7.6,7.5-7.6s7.5,3.4,7.5,7.6S63.2,185.9,59,185.9z M55.1,175.1
		c0.3,1.8,1.2,3.5,2.6,4.7c1.2,1.4,2.8,2.2,4.6,2.5c0.3-0.5,0.5-1,0.7-1.6c-0.5-0.5-1.1-0.9-1.7-1.2l-0.8,0.8h-0.1
		c-0.8-0.3-1.5-0.8-2-1.4c-0.6-0.5-1.1-1.2-1.3-2v-0.1l0.8-0.8c-0.3-0.6-0.7-1.2-1.2-1.7C56.1,174.6,55.6,174.8,55.1,175.1z"/>
	<path class="st1" d="M50.1,200.7c-2,0-3.6-1.6-3.6-3.5v-32.8c0-1.9,1.6-3.5,3.6-3.5H68c2,0,3.6,1.6,3.6,3.5v32.8
		c0,1.9-1.6,3.5-3.6,3.5H50.1z M50.1,162.7c-1,0-1.8,0.8-1.8,1.8v32.7c0,1,0.8,1.8,1.8,1.8H68c1,0,1.8-0.8,1.8-1.8v-32.7
		c0-1-0.8-1.8-1.8-1.8h-2v0.9c0,1.2-1,2.2-2.2,2.2h-9.6c-0.6,0-1.2-0.2-1.6-0.7c-0.4-0.4-0.6-1-0.6-1.6v-0.8L50.1,162.7z
		 M53.8,163.5c0,0.3,0.2,0.5,0.5,0.5h9.6c0.2,0,0.3-0.1,0.4-0.1l0.2-0.2v-1H54L53.8,163.5L53.8,163.5z"/>
	<polygon class="st1" points="48.2,194.1 48.2,192.2 69.8,192.2 69.9,194.1 	"/>
	
		<rect x="90.2" y="179.1" transform="matrix(0.9997 -2.270288e-02 2.270288e-02 0.9997 -4.0646 2.2621)" class="st0" width="14.8" height="2.1"/>
	<path class="st0" d="M153.7,67.5c-18.3,0-33.2-14.5-33.2-32.3s14.9-32.3,33.2-32.3s33.1,14.5,33.1,32.3S172,67.5,153.7,67.5z
		 M153.7,4.9c-17.1,0-31.1,13.6-31.1,30.2s13.9,30.2,31.1,30.2s31.1-13.6,31.1-30.2S170.8,4.9,153.7,4.9z"/>
	<path class="st1" d="M137.4,47.6c-1.1,0-2-0.9-2-2v-21c0-1.1,0.9-2,2-2h32.5c1.1,0,2,0.9,2,2v21c0,1.1-0.9,2-2,2H137.4L137.4,47.6z
		 M137.4,24.5C137.4,24.5,137.3,24.5,137.4,24.5l-0.1,21c0,0,0,0.1,0.1,0.1h32.5c0,0,0.1,0,0.1-0.1V24.7c0,0,0-0.1-0.1-0.1
		L137.4,24.5z"/>
	<path class="st1" d="M153.8,37.8c-0.2,0-0.4-0.1-0.6-0.2l-17.4-13.3c-0.2-0.2-0.3-0.4-0.4-0.6c0-0.2,0-0.5,0.2-0.7s0.5-0.4,0.8-0.4
		c0.2,0,0.4,0.1,0.6,0.2l16.7,12.8l16.6-12.8c0.2-0.1,0.4-0.2,0.6-0.2c0.3,0,0.6,0.1,0.8,0.3c0.2,0.2,0.2,0.4,0.2,0.7
		c0,0.2-0.1,0.5-0.3,0.6l-17.2,13.3C154.2,37.7,154,37.7,153.8,37.8L153.8,37.8L153.8,37.8z"/>
	
		<rect x="145.3" y="72.9" transform="matrix(2.000000e-02 -0.9998 0.9998 2.000000e-02 75.9838 225.4903)" class="st0" width="15.4" height="2.1"/>
	
		<rect x="94.4" y="103.3" transform="matrix(0.6203 -0.7844 0.7844 0.6203 -49.9684 116.6211)" class="st0" width="2.1" height="13.3"/>
	
		<rect x="212.2" y="110.6" transform="matrix(0.7843 -0.6204 0.6204 0.7843 -22.0669 159.8647)" class="st0" width="13.3" height="2.1"/>
	
		<rect x="207" y="182.4" transform="matrix(0.9997 -2.270288e-02 2.270288e-02 0.9997 -4.1095 4.91)" class="st0" width="14.4" height="2.1"/>
	<path class="st0" d="M73.5,102.1l-27-0.1l0.1-25.1l33.3,0.2l-0.2,31.5L73.5,102.1z M74.4,100l3.2,3.3l0.1-24.2L48.6,79v20.9
		L74.4,100z"/>
	<path class="st0" d="M70.7,93.8c-0.9,0-1.8-0.4-2.5-1s-1-1.6-1-2.5c0-1.9,1.6-3.5,3.5-3.5c2,0,3.5,1.6,3.5,3.5
		C74.3,92.2,72.7,93.8,70.7,93.8L70.7,93.8z M70.7,88.9c-0.8,0-1.4,0.6-1.4,1.4c0,0.4,0.2,0.7,0.4,1c0.3,0.3,0.6,0.4,1,0.4
		c0.8,0,1.4-0.6,1.4-1.4c0-0.4-0.1-0.7-0.4-1C71.5,89,71.1,88.9,70.7,88.9z"/>
	<path class="st0" d="M63,93.8c-0.9,0-1.8-0.4-2.5-1s-1-1.6-1-2.5s0.4-1.8,1-2.5c0.7-0.7,1.5-1,2.5-1c2,0,3.5,1.6,3.5,3.5
		S64.9,93.8,63,93.8L63,93.8z M63,88.9c-0.4,0-0.7,0.1-1,0.4s-0.4,0.6-0.4,1s0.2,0.7,0.4,1c0.3,0.3,0.6,0.4,1,0.4
		c0.8,0,1.4-0.6,1.4-1.4c0-0.4-0.1-0.7-0.4-1C63.7,89,63.4,88.9,63,88.9L63,88.9L63,88.9z"/>
	<path class="st0" d="M55.1,93.8c-0.9,0-1.8-0.4-2.5-1c-0.7-0.7-1-1.6-1-2.5c0-1.9,1.6-3.5,3.5-3.5c2,0,3.5,1.6,3.5,3.5
		S57,93.8,55.1,93.8L55.1,93.8z M55.1,88.9c-0.8,0-1.4,0.6-1.4,1.4c0,0.4,0.1,0.7,0.4,1c0.3,0.3,0.6,0.4,1,0.4
		c0.8,0,1.4-0.6,1.4-1.4c0-0.4-0.1-0.7-0.4-1C55.8,89,55.5,88.9,55.1,88.9z"/>
	<path class="st0" d="M247.5,120.2c-18.3,0-33.2-14.9-33.2-33.2s14.9-33.1,33.2-33.1s33.1,14.9,33.1,33.2S265.8,120.2,247.5,120.2z
		 M247.5,56c-17.1,0-31.1,13.9-31.1,31s13.9,31,31.1,31s31.1-13.9,31.1-31.1S264.6,56,247.5,56z"/>
	<path class="st1" d="M233.7,105.2c-2.5,0-4.5-2-4.5-4.5v-6.8c0-0.6,0.4-1,1-1s1,0.4,1,1v6.9c0,1.3,1.1,2.4,2.5,2.5h6.9
		c0.6,0,1,0.4,1,1s-0.4,1-1,1L233.7,105.2z M254.4,105.2c-0.6,0-1-0.4-1-1s0.4-1,1-1h6.9c1.4,0,2.5-1.1,2.5-2.5v-6.8
		c0-0.6,0.5-1,1-1s1,0.4,1,1v6.9c0,2.5-2,4.5-4.5,4.5L254.4,105.2L254.4,105.2z M264.7,81.1c-0.5,0-1-0.5-1-1v-6.9
		c0-1.3-1.1-2.4-2.5-2.5h-6.9c-0.6,0-1-0.4-1-1s0.4-1,1-1h6.9c2.5,0,4.5,2,4.5,4.5v6.9c0,0.3-0.1,0.5-0.3,0.7
		C265.2,81,265,81.1,264.7,81.1L264.7,81.1z M230.2,81.1c-0.6,0-1-0.5-1-1v-6.9c0-2.5,2-4.5,4.5-4.5h6.9c0.6,0,1,0.4,1,1s-0.4,1-1,1
		h-6.9c-1.4,0-2.4,1.1-2.5,2.5v6.9C231.2,80.6,230.8,81.1,230.2,81.1L230.2,81.1z"/>
	<path class="st1" d="M258.1,100.3c-0.2,0-0.3,0-0.5-0.1c-1.4-0.7-2.9-1.3-4.5-1.6c-1.9-0.4-3.3-2-3.5-3.9l-0.1-1
		c0-0.4,0.1-0.7,0.4-1c1.5-1.2,2.6-2.8,3.4-4.5c0.2-0.4,0.5-0.6,0.9-0.6h0.1c0.3,0,1.2-0.8,1.5-2.5c0.3-1.5-0.1-2.5-0.4-2.8
		c-0.2-0.2-0.4-0.5-0.4-0.8c0-4.2-3.4-7.6-7.5-7.6s-7.5,3.4-7.5,7.6c0,0.3-0.1,0.6-0.4,0.8c-0.3,0.2-0.7,1.3-0.4,2.8
		c0.3,1.7,1.2,2.5,1.5,2.5h0.1c0.4,0,0.8,0.2,0.9,0.6c0.8,1.7,1.9,3.3,3.4,4.5c0.3,0.2,0.5,0.7,0.4,1.1c-0.1,0.3-0.1,0.6-0.1,0.9
		c-0.2,1.9-1.6,3.5-3.5,4c-1.6,0.4-3.1,0.9-4.5,1.6c-0.1,0.1-0.3,0.1-0.4,0.1c-0.4,0-0.8-0.2-0.9-0.6c-0.2-0.5-0.1-1.1,0.5-1.4
		c1.6-0.8,3.3-1.4,5-1.8c1.1-0.2,1.8-1.1,1.9-2.2c0-0.2,0-0.3,0.1-0.4v-0.1c-1.4-1.2-2.4-2.7-3.2-4.3c-1.4-0.3-2.6-2-3-4.1
		c-0.3-1.8,0-3.5,0.8-4.5c0.3-5,4.5-8.9,9.5-8.9c0.2,0,0.4,0,0.6,0c4.8,0.3,8.7,4.2,9,9c0.8,0.9,1.1,2.6,0.8,4.4
		c-0.4,2.1-1.6,3.7-2.9,4.1c-0.8,1.7-1.9,3.1-3.3,4.3l0.1,0.5c0.1,1.1,0.9,1.9,1.9,2.2c1.7,0.4,3.4,1,5,1.8c0.5,0.3,0.7,0.9,0.4,1.4
		C258.9,100,258.5,100.3,258.1,100.3L258.1,100.3L258.1,100.3z"/>
	<path class="st1" d="M246.5,87.1c-0.3,0-0.5-0.1-0.7-0.4l-1.6-2.2c-0.3-0.4-0.2-1,0.1-1.3c0.2-0.1,0.4-0.2,0.6-0.2
		c0.3,0,0.5,0.1,0.7,0.4l0.9,1.2l2.8-3.9c0.2-0.2,0.4-0.4,0.7-0.4c0.2,0,0.4,0.1,0.6,0.2c0.4,0.3,0.4,0.9,0.2,1.3l-3.5,4.9
		C247.1,87,246.8,87.1,246.5,87.1L246.5,87.1L246.5,87.1z"/>
	<path class="st1" d="M247.4,187.5c-0.9,0-1.7-0.8-1.7-1.7V178c0-0.6,0.4-1.2,1-1.5v-1.9c0-3,2.5-5.5,5.7-5.5h0.2
		c3.1,0,5.7,2.5,5.7,5.5v1.9c0.6,0.3,1,0.9,1,1.5v7.8c0,0.9-0.8,1.7-1.7,1.7H247.4z M252.4,179.6c-0.4,0-0.8,0.2-1.1,0.5
		c-0.2,0.3-0.3,0.6-0.3,0.9c0,0.3,0.2,0.6,0.5,0.9h0.1v1.6c0,0.4,0.4,0.7,0.8,0.7s0.8-0.3,0.8-0.7v-1.6l0.1-0.1
		c0.1-0.1,0.2-0.1,0.2-0.2c0.2-0.3,0.3-0.6,0.3-0.9c0-0.3-0.2-0.6-0.5-0.9C253,179.7,252.7,179.6,252.4,179.6z M252.3,171.2
		c-1.9,0-3.5,1.5-3.5,3.4v1.8h7.2v-1.8c0-1.9-1.6-3.4-3.5-3.4H252.3z"/>
	<path class="st2" d="M119.6,156l-0.5-1.3c-1.3-3.2-2.1-5.2-2.5-6.1l-0.5-2.4c-0.8-4.4-2.3-12.5-3-18c-1.2-5.9-0.9-12.1,0.7-17.9
		c1.7-4.8,5.4-8.7,10.1-10.6c0.5-0.1,1.1-0.6,3.3-2.5c2.9-2.5,6-5.2,7.3-5.3c2.8-0.2,5.8-0.3,8.8-0.3c1.5,0,3,0,4.5,0.1h0.2
		c3.8-0.7,7.7-1.2,11.5-1.4c4.8-0.2,9.4-0.9,13.9-1.5s8.8-1.2,13.1-1.4h0.3l-0.6,1l1.5-0.1c1.5-0.1,3.1-0.7,4.9-2.1l0.2-0.2l0.1,0.8
		c0.1,0.7,0.1,1.4,0.1,2l-0.3,2.6l1.6-2c0.8-1,1.9-1.7,3.2-1.9h0.1v0.1c1.8,5.5,1.6,10.3-0.4,14.2l-0.2,0.5l0.4,0.4
		c1.2,1.3,2.3,2.8,3.2,4.3c1.2,2.3,1.9,6.6,1.9,12.2v0.2c0.1,0.2,0.1,0.4,0.1,0.6c1,6.2,0.4,19.3,0.1,24.3l-0.1,1.1l-0.1,0.1
		l-0.2,0.1c-0.2,0.1-0.5,0.4-0.7,0.7c-1.3,1.9-1.9,6.9-2.2,9.6v0.3l-1.3-1.1V155c0-1.1-0.1-4.3-0.1-8l-0.1-1.9
		c-0.2-8-0.5-13.1-0.9-14.9c-0.1-0.3-0.1-0.6-0.2-0.9c-0.1-0.2-0.1-0.3-0.1-0.5c-0.4-1.7-1-3.2-1.6-4.6c-0.4-0.9-1-1.8-1.6-2.8
		c-0.5-0.8-1-1.5-1.5-2.1c-0.1-0.1-0.2-0.2-0.2-0.3c-0.1-0.1-0.1-0.2-0.2-0.2c-2.4-2.9-5.3-5.1-8.6-6.7l-0.2-0.1l-0.3-0.1l-0.2,0.1
		c-4.4,1.1-8.9,1.8-13.4,1.9c-0.4,0-0.7,0-1.2,0c-7.9,0-26.6-2.3-35.1-4.3c-0.4-0.1-0.8-0.2-1.2-0.3c-0.4-0.1-0.7-0.2-1.1-0.3
		l-0.3-0.1l-0.8-0.3l-0.1,0.8l-0.6,3.2c-0.1,0.4-0.2,0.8-0.2,1.2c-0.9,4.4-1.9,8.6-2.8,12.2c-1.6,6.6-3.3,13.5-3.9,20.7
		c0,0-0.2,1.7-0.2,1.9c-0.1,1.8-0.2,3.7-0.2,5.9v0.7c0,0.6,0,1.1,0,1.7v0.1l-1.2,0.3L119.6,156z"/>
	<path class="st2" d="M122.5,172.2c-0.9-0.2-1.7-0.5-2.6-0.8c-2.2-0.9-6-2.9-7.7-7.1c-2.8-6.9-1.6-14.1,2.5-16l0.2-0.1l0.1,0.7
		l0.1,0.2c0.5,1.1,1.6,3.9,2.3,5.7l0.6,1.6l0.2,0.9c0.1,0.4,0.2,0.9,0.3,1.4l0.2,0.8l1-0.3v0.2c0.6,4.4,1.5,8.6,2.8,12.6V172.2
		L122.5,172.2z"/>
	<path class="st2" d="M141.2,203.9v-1.7c0-0.7,0.1-1.5,0.3-2.2c0.1-0.3,0.2-0.6,0.3-0.8l0.1-0.3c0.1-0.2,0.2-0.4,0.4-0.6
		c0.2-0.3,0.3-0.5,0.5-0.7c1-1.2,2.3-1.9,3.7-1.9l21.3,0.2c0.1,0,0.3,0,0.5,0c2.4,0,5,1,6.7,2.5l0.2,0.2l-0.2,0.2
		c-1.2-0.9-2.6-1.3-4.1-1.3h-22.5c-1.6,0.1-3.2,0.7-4.5,2c-0.2,0.2-0.5,0.5-0.7,0.8s-0.3,0.5-0.5,0.7c-0.1,0.2-0.3,0.5-0.4,0.7
		c-0.4,0.8-0.7,1.6-0.8,2.4L141.2,203.9z"/>
	<path class="st2" d="M159.4,212.1c-0.1,0-0.2,0-0.2,0c-0.6-0.1-1.2-0.4-1.6-0.8c-0.3-0.3-0.4-0.6-0.6-1c-0.1-0.3-0.1-0.6-0.1-0.9
		c0.1-1.3,1.2-2.3,2.5-2.3h0.2c1.4,0.1,2.4,1.4,2.3,2.8c0,0.1-0.1,0.3-0.1,0.4l-0.1,0.1c-0.1,0.4-0.3,0.7-0.6,1l-0.2,0.2
		C160.6,211.9,160,212.1,159.4,212.1L159.4,212.1z"/>
	<path class="st2" d="M197.5,171.7c0.1-0.8,0.1-1.5,0.2-2.3c0.1-2.7,0.3-7,0.3-12.1V157l2.8,2.3l0.1-1.5c0.3-4.5,1.2-9.6,2.1-10.6
		v-0.1l0.4-0.8l0.2,0.1c0.2,0.1,0.4,0.1,0.6,0.2c4.1,2.3,5.1,10.2,2.1,17.5c-1.4,3.4-4.4,6.1-8.3,7.5L197.5,171.7L197.5,171.7z"/>
	<path class="st2" d="M139.3,210.1c-0.5-0.4-1-0.7-1.3-1l-0.2-0.2l1.8-0.3v1.6L139.3,210.1z"/>
	<path class="st2" d="M178.2,208.6l0.4-0.2c0.2-0.1,0.4-0.2,0.6-0.3l8,1.2l-0.3,0.2c-1.9,1.3-3.9,2.4-6,3.2
		c-0.7,0.3-1.5,0.5-2.5,0.7l-0.2,0.1V208.6z"/>
	<path class="st2" d="M147.8,263.2c-2.2,0-4.3-1.5-5.3-4l-0.1-0.2l0.5-0.1c7.5-1.2,12.5-2,13-2.3c0.9-0.4,8.7-4,10.3-5.1l0.2-0.2
		c0.8-1,1.5-2.2,1.8-3.5v-0.1v-0.2l0.7-0.3l2.1-1c1.2-0.5,1.8-0.9,2.1-1c0.1-0.1,0.3-0.2,0.4-0.4c0.1-0.2,0.2-0.4,0.2-0.6
		c0.1-0.4,0.1-0.7,0-0.9s-0.1-0.4-0.1-0.6l-0.1-0.1c-0.1-0.3-0.2-0.6-0.4-0.8c-0.3-0.4-0.6-0.5-0.8-0.5h-0.2c-0.3,0-1,0.2-2.6,0.7
		l-2,0.6c-1.6,0.5-2.4,0.7-2.7,0.7s-1.5,0.2-2.9,0.4l-0.1-0.3c1.4-0.6,2.2-0.9,2.4-1c0,0,1.3-0.5,3-1.1c0.6-0.2,1.2-0.5,1.8-0.7
		c0,0,0.9-0.4,1.2-0.5c0.4-0.1,0.7-0.3,1.1-0.5c1.1-0.5,1.9-0.9,2.4-1.2s0.7-0.5,0.7-0.6c0.1-0.1,0.1-0.2,0.1-0.3l0.1-0.2
		c0.1-0.2,0.1-0.5,0.1-0.7c0-0.3,0-0.6,0-0.8l-0.2-0.6c-0.1-0.2-0.3-0.4-0.5-0.6c-0.2-0.1-0.3-0.1-0.5-0.2l0,0c-0.2,0-0.3,0-0.6,0.1
		s-0.7,0.2-1.2,0.3c-0.4,0.1-0.9,0.3-1.6,0.4l-1.5,0.4l-3,0.9c-1.9,0.6-2.9,0.9-3.1,0.9c-0.2,0-1,0.2-2,0.3l-2,0.3l-0.1-0.3
		c1.3-0.5,2.7-1,4-1.5l8.6-4l1.1-0.5c0.4-0.2,0.8-0.4,0.9-0.4c0.4-0.2,0.6-0.7,0.5-1.2c0-0.1-0.1-0.3-0.1-0.5
		c-0.1-0.4-0.3-0.7-0.5-1c-0.4-0.6-0.9-1-1.4-1.1c-0.1,0-0.2,0-0.4,0c-0.4,0-0.9,0.1-1.7,0.3c-0.5,0.1-1.1,0.3-1.8,0.5
		s-1.4,0.4-2.4,0.7l-2.6,0.8c-0.7,0.2-2,0.8-3.8,1.4l-0.2-0.1l0.1,0.1c-3,1.2-7.1,2.8-8.4,3c-0.6,0.1-1.8,0.3-3.3,0.6
		c-1.1,0.2-3.1,0.6-4.9,0.9h-0.2l0.5-30.7c0-0.5,0-0.9,0.1-1.5c0.2-0.9,0.5-1.7,1-2.5c0.2-0.2,0.3-0.5,0.5-0.7
		c0.3-0.3,0.5-0.6,0.8-0.8c0.9-0.7,2-1.2,3.1-1.2h22.5c2,0,3.8,1.1,4.9,2.9c0.2,0.3,0.3,0.6,0.4,0.8c0.1,0.3,0.2,0.6,0.3,0.9
		l0.1,0.4c0.1,0.4,0.1,0.8,0.1,1.2v0.9l-0.8,50.4c0.1,3.6-2.4,6.6-5.5,6.7h-22.4l-0.1-0.1v0.1L147.8,263.2z M159.5,205.6
		c-0.5,0-1.1,0.1-1.6,0.3c-0.3,0.1-0.5,0.2-0.8,0.4l-0.4,0.3c-0.8,0.7-1.3,1.6-1.4,2.7c0,0.3,0,0.6,0,0.9c0,0.3,0.1,0.6,0.2,0.9
		c0.1,0.3,0.3,0.6,0.5,0.9c0.7,1,1.8,1.6,2.9,1.7h0.4c0.9,0,1.9-0.3,2.6-0.9c0.2-0.2,0.4-0.4,0.7-0.7c0.2-0.3,0.4-0.6,0.5-0.9
		c0.1-0.3,0.2-0.6,0.2-0.9l0.1-0.3c0.1-0.9-0.2-1.9-0.8-2.7c-0.2-0.4-0.5-0.7-0.9-0.9c-0.3-0.2-0.6-0.4-0.9-0.5
		c-0.4-0.2-0.8-0.2-1.1-0.3C159.7,205.6,159.6,205.6,159.5,205.6z"/>
	<path class="st2" d="M250.3,198.2c-7.8-3.4-12.9-11.3-12.9-19.9v-10.8l14.8-8.2l15.2,8.2v10.6c0,8.8-5.2,16.6-13.1,20l-2.2,0.9
		L250.3,198.2z"/>
	<path class="st2" d="M208.9,253.6c-0.9-1.3-2-2.9-3.2-4.5c-5-7.1-8.4-11.9-9.4-12.6c-5-2.4-10.2-4.6-15.5-6.3
		c-0.4-0.1-1.4-0.4-2.7-0.7H178l0.2-14.3h0.1c1.2-0.3,2.2-0.6,3.1-0.9c2.9-1.1,5.6-2.7,8-4.6h0.1l4.8,1c1.9,0.4,24.9,5.9,26.3,6.7
		c2.7,1.8,5.2,3.9,7.6,6.1c2.9,9.7,11.7,39.1,18.6,64.4l0.1,0.5L208.9,253.6z"/>
	<path class="st2" d="M178.1,200.4c0-0.1-0.1-0.3-0.2-0.4l-0.1-0.1c-0.4-1-1-1.9-1.9-2.6c-2-1.8-4.9-2.9-7.6-2.9c-0.2,0-0.4,0-0.6,0
		l-21.3-0.2c-1.2,0.1-2.4,0.5-3.5,1.3c-0.3,0.2-0.6,0.5-0.9,0.8c-0.3,0.3-0.6,0.7-0.9,1l-0.2,0.3l-0.1-0.1
		c-7.3-5.5-12.7-13.3-16.1-23c-0.1-0.2-0.1-0.4-0.2-0.6c0,0-0.3-1-0.4-1.3c-1.3-4.1-2.2-8.6-2.8-13.4v-0.1c0,0,0.8-0.2,0.9-0.2
		l0.6-0.1v-0.6c-0.1-2.7-0.1-5.4,0-8.1c0-0.2,0-0.4,0.1-0.6l0.1-1.4c0.6-7.4,2.3-14.4,4-21.2c1.1-4.5,2.3-9.6,3.4-15.3l0.4-0.4
		l0.1-0.1h0.1c8.3,2.2,29,4.6,36.9,4.6c0.4,0,0.8,0,1.1,0c4.5-0.1,9-0.8,13.4-1.9c6.5,3.1,11.2,8.9,12.9,15.9
		c0.6,4.6,1,10.2,1.1,16.5v2.1c0.1,6.5,0,13.6-0.3,21.3c0,0.9-0.1,1.8-0.2,2.9v0.2c0,0.2-0.1,0.5-0.1,0.7c0,0.3-0.1,0.5-0.1,0.8v0.2
		c-1.5,9-6,17-12.9,23c-0.9,0.8-1.8,1.5-2.9,2.3c-0.2,0.1-0.4,0.3-0.6,0.4l-0.5,0.3c-0.2,0.1-0.4,0.2-0.6,0.4l-0.2,0.1L178.1,200.4z
		"/>
	<path class="st0" d="M252.2,200.7c-0.1,0-0.2,0-0.4-0.1l-2.1-0.9c-8.4-3.7-13.8-12.1-13.8-21.4v-11.2c0-0.4,0.2-0.7,0.5-0.8
		l15.4-8.6c0.1-0.1,0.3-0.1,0.4-0.1c0.1,0,0.3,0,0.4,0.1l15.9,8.6c0.3,0.2,0.5,0.5,0.5,0.8v11c0,9.4-5.5,17.8-14.1,21.5l-2.4,1.1
		C252.4,200.7,252.3,200.7,252.2,200.7z M237.7,178.4c0,8.5,5,16.2,12.7,19.6l1.8,0.8l2.1-0.9c7.9-3.4,13-11.1,13-19.7v-10.4
		l-14.9-8.1l-14.5,8.1v10.6L237.7,178.4L237.7,178.4z"/>
	<g>
		<path class="st3" d="M159,213.9c-1.2-0.1-2.4-0.8-3.1-1.8c-0.2-0.3-0.4-0.6-0.5-1c-0.1-0.3-0.2-0.6-0.2-0.9c-0.1-0.3-0.1-0.7,0-1
			c0.1-1.1,0.6-2.1,1.5-2.9l0.4-0.3c0.3-0.2,0.5-0.3,0.8-0.4c0.6-0.2,1.1-0.4,1.7-0.4c0.1,0,0.2,0,0.4,0c0.4,0,0.8,0.1,1.2,0.3
			c0.4,0.1,0.7,0.3,1,0.6c0.4,0.3,0.7,0.6,0.9,1c0.6,0.9,0.9,1.9,0.8,2.9l-0.1,0.3c-0.1,0.3-0.1,0.6-0.2,0.9c-0.1,0.4-0.3,0.7-0.5,1
			s-0.5,0.6-0.7,0.8c-0.8,0.6-1.8,1-2.8,1L159,213.9z M159.4,207.4c-1.1,0-2.1,0.9-2.2,2c0,0.3,0,0.6,0.1,0.8
			c0.1,0.3,0.3,0.6,0.5,0.9c0.4,0.4,0.9,0.7,1.4,0.7c0.1,0,0.1,0,0.2,0c0.5,0,1-0.2,1.4-0.5l0.1-0.2c0.2-0.2,0.4-0.5,0.5-0.9
			l0.1-0.1c0-0.1,0.1-0.2,0.1-0.3c0.1-1.2-0.8-2.3-2-2.4H159.4z"/>
		<path class="st3" d="M252.8,304.9l-0.4-1.4l-0.7-2.3c-0.6-1.5-1.2-3.1-2-4.7c-0.6-1.2-1.2-2.5-1.9-3.7c-0.8-1.5-1.4-2.5-1.5-2.6
			l-38.8-35.4c-0.9-1.2-1.9-2.7-3-4.2l-0.3-0.4c-3.2-4.6-8.1-11.5-8.9-12.1c-4.8-2.4-9.9-4.4-15-6.1c-0.3-0.1-1.1-0.3-2.1-0.5
			l-0.1,3.8c1.6,1,3,1.9,4.3,2.9l4.3,3.1l-0.1,0.3l-5-1.4c-0.3-0.1-1.7-0.5-3.5-1.1l-0.1,4.5c1.2,0.8,1.2,1.1,1.1,1.7
			c-0.1,0.3-0.4,0.7-1.1,0.8l-0.1,8.5c1,0.6,2,1.3,2.9,1.8c1.3,0.8,2.9,1.8,3.1,2c0.5,0.2,3.4,1.1,6.4,2.1l0.8,0.2
			c2.1,0.7,4.4,1.4,6.4,2.1l0.4,0.1l23.3,41.1l0.5,1h-2.4l-1.3-2.3l-21.6-38.1c-1.7-0.6-3.6-1.2-5.3-1.7l-1.1-0.4
			c-4.1-1.3-6.4-2.1-6.9-2.3c-0.4-0.2-1.4-0.8-3.5-2.1c-0.6-0.4-1.2-0.8-1.8-1.1c-0.1,4.3-3.3,8-7.3,8.1h-22.6
			c-3.1,0-5.9-2.1-7.1-5.4c-4.6,0.7-8.8,1.3-11.1,1.6l-23.2,43.6H104l1.8-3.2l22.6-42.4l0.5-0.1c2.4-0.3,6.4-0.9,11.1-1.6l2.2-0.4
			c7.1-1.1,12.5-2,13.1-2.2c0.9-0.4,8.2-3.8,9.8-4.8c0.3-0.4,0.6-0.8,0.8-1.3c-0.2,0.1-0.5,0.1-0.8,0.2H165l-0.7-2l3.8-1.5l1.6-0.7
			c0.8-0.4,1.7-0.8,2.1-1l0,0c0-0.1,0-0.3,0-0.4c-0.2,0.1-0.5,0.1-0.8,0.2c-0.4,0.1-3.2,0.9-3.2,0.9c-1.5,0.4-2.3,0.7-2.7,0.7
			c-0.9,0.1-9.7,1.2-9.7,1.2l-6.7,0.9l-0.1-0.3l6.4-2.7c5.2-2.1,8.2-3.4,8.7-3.5c0.4-0.1,1.9-0.7,3.4-1.3l1.1-0.4
			c0.4-0.1,0.7-0.3,1.1-0.4c2-0.8,3.3-1.4,3.7-1.7c0.1-0.1,0.1-0.3,0.1-0.5c-0.3,0.1-0.8,0.2-1.3,0.4c-1.1,0.3-2.6,0.8-3.9,1.2
			l-1.7,0.5c-2,0.6-3,0.9-3.4,0.9c-0.2,0-0.8,0.1-1.5,0.3l-0.4,0.1c-5.3,0.9-7.4,1.2-8.4,1.2c-0.6,0-0.7-0.1-0.9-0.3l-0.4-0.3v-0.5
			c0.1-0.8,0.1-1.1,10.6-5l8.2-3.8c0.7-0.3,1.2-0.6,1.6-0.8c-0.2-0.3-0.5-0.7-0.6-0.7c-0.2,0-0.9,0.1-3.1,0.8
			c-0.4,0.1-0.9,0.3-1.3,0.4l-1.3,0.4l-2,0.6c-0.6,0.2-2.1,0.8-3.7,1.4c-4.1,1.6-7.4,2.9-8.8,3.1c-0.5,0.1-1.7,0.3-2.9,0.6h-0.2
			c-2.3,0.5-4,0.8-5.2,1c-0.3,0.1-0.6,0.1-0.9,0.1c-0.3,0-0.6,0.1-0.8,0.1h-0.1c-0.3,0-0.6,0.1-0.8,0.1s-0.3,0-0.4,0
			c-0.2,0-0.4,0-0.5,0c-0.3,0-0.6-0.1-0.8-0.3l-0.4-0.3l-0.1-0.6c0-0.2,0-0.8,0-1.7v-0.6c0-1.4,0.1-3.8,0.1-5.4
			c-2.2,1.7-6.8,5.7-8.5,7.7c-0.3,0.5-2.9,5.3-5,9.1c-2.6,4.9-4.2,7.9-4.7,8.6c-0.1,0.1-0.2,0.2-44.2,42c-0.2,0.5-1,2.5-1.8,5.2
			l-0.1,0.4v0.1l-0.6,2.3h-2.1l0.1-0.5l0.4-1.4v-0.1l1.2-4.8c6.6-25.8,15.5-59.6,19.8-74.2l0.2-0.3c0.6-0.8,3-2.7,6.9-5.8l1.2-0.9
			v-0.2l1.6-0.7c0.6-0.3,19.8-5.5,37.1-9.4l0.1-4.3c0-1.1,0.2-2.2,0.5-3.3c-7.4-5.7-13.2-14.3-16.8-24.8c-1.3-0.2-2.6-0.6-3.8-1.1
			c-4.2-1.7-7.2-4.6-8.7-8.1c-3.2-8-1.6-16.1,3.6-18.4l0.2-0.1c-0.7-3.6-2.3-12.2-3-18.1c-1.2-6.2-0.9-12.6,0.8-18.7
			c1.9-5.4,6-9.7,11.3-11.7c0.3-0.2,1.6-1.3,2.6-2.2c3.6-3.2,6.5-5.6,8.3-5.7c2.9-0.2,5.9-0.3,8.9-0.3c1.5,0,2.9,0,4.4,0.1
			c3.8-0.7,7.7-1.2,11.6-1.4c4.7-0.2,9.3-0.9,13.8-1.5c5-0.7,10.1-1.4,15.2-1.5h1.6l-0.1,0.3c1-0.6,2-1.3,3-2.2l2.1-1.8l-0.4,2.7
			c-0.1,0.6,0,1.3,0.1,2l0,0c1-0.7,2.2-1,3.4-1.1l0.8-0.1l0.3,0.8c2.1,6,2.1,11.3,0.1,15.7c1.1,1.3,2.1,2.7,3,4.2
			c1.7,3.2,2.1,8.9,2.1,13c0.1,0.2,0.1,0.4,0.1,0.7c1,6.3,0.4,19.6,0.2,24.6v0.4c0,0,0.1,0,0.1,0.1c0.1,0.1,0.3,0.1,0.4,0.2
			c5,2.8,6.2,11.5,2.9,19.8c-1.6,3.9-5,7-9.3,8.5c-0.4,0.1-0.7,0.2-1.1,0.3c-1.5,9.7-6.2,18.2-13.6,24.7c-1.1,1-2.4,2-3.9,3l0.2,4.3
			l14.5,3.1v0.1c4.7,0.7,26.7,6.8,26.8,6.8c2.9,1.9,5.6,4.1,8,6.5l0.2,0.2l0.1,0.3c3.2,10.7,12.9,43.1,19.9,69.2
			c1.1,2,2.7,5.2,4,8.6l1.2,4.3L252.8,304.9L252.8,304.9z M135.8,209.5c-16.1,3.8-32.1,8.1-32.8,8.4l-0.9,0.4
			c-0.2,0.2-0.7,0.6-1.4,1.1l-0.1,0.1c-1.7,1.3-5.6,4.4-6.4,5.2c-4.2,14.1-12.5,45.6-18.5,69.1l2.9-2.7
			c10.7-10.1,38.9-36.9,39.5-37.5c0.3-0.4,2.4-4.4,4.3-7.9l0.2-0.3c3.3-6.1,4.9-9.1,5.2-9.5c1.3-1.5,9.3-9,11-9.2h0.3l0.2-14.5
			C137.7,211.3,136.4,210.3,135.8,209.5z M178.2,229.2c1.3,0.3,2.2,0.6,2.6,0.7c5.3,1.8,10.6,3.9,15.5,6.4c1.1,0.8,4.4,5.3,9.5,12.7
			c1.1,1.6,2.2,3.2,3.2,4.5l37.2,34c-6.9-25.2-15.6-54.3-18.5-63.9c-2.2-2.2-4.8-4.2-7.5-6c-1.4-0.8-24.4-6.2-26.2-6.7l-4.7-1
			c-2.4,1.9-5.1,3.5-8,4.6c-0.9,0.3-1.9,0.6-3.1,0.9V229.2z M142.9,259.3c0.9,2.2,2.8,3.6,4.9,3.6h22.6c3-0.1,5.3-3,5.2-6.4
			l0.8-51.3c0-0.5-0.1-0.9-0.1-1.2l-0.1-0.4c-0.1-0.3-0.2-0.6-0.3-0.9c-0.1-0.3-0.3-0.6-0.4-0.8c-1.1-1.7-2.8-2.8-4.7-2.8h-22.5
			c-1,0-2.1,0.4-2.9,1.1c-0.3,0.2-0.5,0.4-0.8,0.7c-0.2,0.2-0.3,0.4-0.5,0.7c-0.5,0.7-0.8,1.5-0.9,2.4c-0.1,0.5-0.1,1-0.1,1.4
			l-0.5,30.4c1.7-0.3,3.6-0.7,4.7-0.9c1.5-0.3,2.7-0.5,3.3-0.6c1.2-0.2,5.3-1.8,8.3-3h0.1c1.8-0.7,3.1-1.2,3.8-1.4l2.6-0.8
			c1-0.3,1.8-0.5,2.4-0.7c0.7-0.2,1.3-0.4,1.8-0.5c0.8-0.2,1.4-0.3,1.8-0.3c0.2,0,0.3,0,0.5,0.1c0.5,0.1,1.1,0.6,1.5,1.2
			c0.2,0.4,0.4,0.7,0.6,1.1c0.1,0.2,0.1,0.4,0.1,0.5c0.1,0.6-0.2,1.2-0.7,1.5c-0.1,0.1-0.4,0.2-0.9,0.4l-2.4,1.1l-4.3,2l-3.1,1.4
			c-0.9,0.3-1.8,0.7-2.6,1l0.6-0.1c1-0.2,1.8-0.3,2-0.3c0.3,0,1.9-0.5,3.1-0.9l3-0.9l1.5-0.4c0.6-0.2,1.1-0.3,1.6-0.4
			c0.6-0.1,0.9-0.2,1.2-0.3s0.5-0.1,0.6-0.1c0.3,0,0.5,0.1,0.7,0.2c0.3,0.2,0.5,0.4,0.7,0.7l0.2,0.7c0.1,0.3,0.1,0.6,0,0.9
			c0,0.3-0.1,0.5-0.1,0.8l-0.1,0.1c-0.1,0.2-0.1,0.3-0.2,0.5c-0.1,0.2-0.4,0.4-0.8,0.6c-0.6,0.3-1.4,0.7-2.5,1.2
			c-0.4,0.1-0.7,0.3-1.1,0.5c-0.4,0.1-1.2,0.5-1.2,0.5c-0.6,0.2-1.2,0.5-1.8,0.7c-1.7,0.7-3,1.1-3,1.1c-0.1,0-0.4,0.2-1.4,0.5
			c0.9-0.1,1.6-0.2,1.8-0.2c0.3,0,2-0.5,2.6-0.7l2-0.6c1.7-0.5,2.3-0.6,2.7-0.7h0.2c0.2,0,0.6,0.1,1,0.7c0.2,0.2,0.3,0.5,0.4,0.9
			l0.1,0.1c0,0.1,0.1,0.4,0.1,0.6c0,0.2,0,0.6-0.1,1c-0.1,0.2-0.1,0.5-0.3,0.7c-0.1,0.2-0.3,0.4-0.5,0.5s-0.9,0.4-2,1l-2.1,1
			l-0.5,0.2v0.1v0.1c-0.3,1.3-1,2.6-1.9,3.6l-0.2,0.2c-1.6,1-9.4,4.7-10.3,5.1c-0.9,0.4-10.2,1.8-13.1,2.3L142.9,259.3z
			 M178.5,213.2c0.9-0.2,1.6-0.4,2.3-0.7c2-0.8,3.9-1.8,5.7-2.9l-7.1-1.1c-0.2,0.1-0.4,0.2-0.6,0.3l-0.2,0.1L178.5,213.2z
			 M138.4,209.1c0.2,0.2,0.5,0.4,0.8,0.6v-0.8L138.4,209.1z M146.5,195.8c-1.3,0.1-2.5,0.7-3.5,1.8c-0.2,0.2-0.3,0.5-0.5,0.7
			c-0.1,0.2-0.2,0.4-0.3,0.6l-0.1,0.3c-0.1,0.3-0.2,0.5-0.3,0.8c-0.2,0.7-0.3,1.4-0.3,2.1v0.4c0.1-0.4,0.3-0.8,0.5-1.3
			c0.1-0.3,0.3-0.5,0.4-0.8c0.1-0.2,0.3-0.4,0.4-0.6c0.3-0.4,0.6-0.6,0.8-0.9c1.3-1.3,3-2,4.7-2.1h22.5c0.9,0,1.9,0.2,2.7,0.5
			c-1.5-1-3.5-1.5-5.3-1.5c-0.2,0-0.3,0-0.5,0H146.5z M168.3,193.9c2.8,0,5.8,1.1,7.8,3c0.9,0.8,1.5,1.7,1.9,2.8
			c0,0,0.1,0.3,0.2,0.4c0.1-0.1,0.9-0.6,0.9-0.6c0.2-0.1,0.4-0.2,0.6-0.4c1.1-0.8,2-1.5,2.9-2.2c6.9-6,11.3-13.9,12.8-22.8v-0.2
			c0-0.3,0.1-0.5,0.1-0.8c0-0.2,0.1-0.5,0.1-0.7v-0.2c0.1-1.1,0.2-2,0.2-2.9c0.3-7.6,0.4-14.8,0.3-21.2V146
			c-0.2-6.3-0.5-11.8-1.1-16.4c-1.7-6.9-6.4-12.6-12.7-15.7c-4.3,1.1-8.9,1.8-13.4,1.9c-0.3,0-0.7,0-1.1,0c-7.8,0-28.5-2.4-36.9-4.6
			l-0.3,0.3c-1,5.6-2.3,10.7-3.4,15.2c-1.6,6.7-3.3,13.7-4,21.1c0,0-0.1,0.8-0.1,1v0.4c0,0.2,0,0.4-0.1,0.6c-0.2,2.7-0.2,5.4,0,8.1
			l0.1,0.9l-0.9,0.2c-0.1,0-0.6,0.1-0.6,0.1c0.6,4.7,1.5,9.1,2.8,13.2c0.1,0.3,0.2,0.6,0.3,0.9l0.1,0.4c0.1,0.2,0.1,0.4,0.2,0.6
			c3.4,9.6,8.7,17.3,15.9,22.8l0.1-0.1c0.3-0.4,0.6-0.7,0.9-1.1c0.3-0.3,0.6-0.6,0.9-0.8c1.1-0.8,2.4-1.3,3.7-1.3l21.3,0.2
			C167.9,193.9,168.1,193.9,168.3,193.9z M114.8,148.6c-3.9,2-4.9,9-2.2,15.6c1.6,4.1,5.4,6.1,7.5,6.9c0.7,0.3,1.5,0.5,2.3,0.7
			c-1.2-3.9-2.1-8-2.7-12.3l-1,0.3l-0.2-1.1c-0.1-0.5-0.2-0.9-0.3-1.4l-0.2-0.9l-0.6-1.6c-0.8-1.9-1.9-4.6-2.3-5.7l-0.1-0.2
			C114.9,149,114.8,148.9,114.8,148.6z M198.3,157.7c-0.1,4.9-0.2,9.1-0.3,11.8c0,0.7-0.1,1.4-0.1,2.1h0.1c3.8-1.4,6.7-4,8.1-7.4
			c2.9-7.2,2.1-14.9-1.9-17.1c-0.2-0.1-0.4-0.2-0.6-0.2l-0.3,0.5l0,0c-0.7,0.4-1.7,5.1-2.1,10.6l-0.2,1.9L198.3,157.7z M143.3,92
			c-3,0-6,0.1-8.8,0.3c-1.2,0.1-5.2,3.5-7.1,5.2c-2.2,1.9-2.8,2.4-3.4,2.6c-4.6,1.8-8.2,5.6-9.9,10.4c-1.6,5.7-1.8,11.9-0.7,17.8
			c0.7,5.6,2.2,13.7,3,18l0.4,2.3c0.4,0.9,1.2,2.9,2.5,6.1l0.5,1.3l0.3,1.4l0.7-0.2c0-0.5,0-1.1,0-1.6v-0.7c0-2.3,0-4.2,0.2-6
			c0-0.2,0-0.4,0.1-0.5l0.1-1.4c0.7-7.3,2.3-14.1,4-20.8c0.9-3.7,1.9-7.8,2.8-12.2c0.1-0.4,0.1-0.8,0.2-1.2l0.6-3.2l0.2-1.2l1.1,0.4
			l0.3,0.1c0.3,0.1,0.7,0.2,1,0.3c0.4,0.1,0.8,0.2,1.2,0.3c8.4,2,27.1,4.3,35,4.3c0.4,0,0.8,0,1.1,0c4.5-0.1,9-0.8,13.4-1.9l0.3-0.1
			h0.1l0.3,0.1l0.2,0.1c3.3,1.6,6.2,3.9,8.6,6.8c0.1,0.1,0.1,0.2,0.2,0.2c0.1,0.1,0.2,0.2,0.3,0.3c0.5,0.6,1,1.3,1.5,2.1
			c0.6,0.9,1.1,1.9,1.6,2.8c0.7,1.4,1.2,2.9,1.7,4.6c0,0.2,0.1,0.3,0.1,0.5c0.1,0.3,0.2,0.6,0.2,0.9c0.5,2.2,0.8,9.4,0.9,15l0.1,1.9
			c0.1,3.6,0.1,6.8,0.1,7.9l0.7,0.6c0.3-3.4,1-7.6,2.2-9.5c0.3-0.4,0.5-0.6,0.8-0.8l0.1-0.1c0-0.3,0-1,0-1c0.2-5,0.8-18.1-0.1-24.2
			c0-0.2-0.1-0.4-0.1-0.6v-0.2c0-5.6-0.6-9.9-1.8-12.1c-0.9-1.5-2-3-3.2-4.3l-0.5-0.5l0.3-0.6c1.9-3.8,2.1-8.5,0.4-13.9
			c-1.1,0.3-2.2,0.9-2.9,1.8l-2.3,2.8l0.4-3.6c0.1-0.5,0-1.2-0.1-1.9v-0.2c-1.1,0.8-2.8,1.9-4.8,2l-2,0.1l0.6-1
			c-4.2,0.2-8.4,0.8-12.8,1.4c-4.6,0.6-9.2,1.2-14,1.5c-3.8,0.2-7.7,0.7-11.5,1.4h-0.1C146.3,92,144.8,92,143.3,92z"/>
	</g>
</g>
</svg>
