<?xml version="1.0" encoding="UTF-8"?>
<!-- Generator: Adobe Illustrator 24.1.0, SVG Export Plug-In . SVG Version: 6.00 Build 0)  -->
<svg version="1.1" id="Layer_1" xmlns="http://www.w3.org/2000/svg" xmlns:xlink="http://www.w3.org/1999/xlink" x="0px" y="0px" viewBox="0 0 115 115" style="enable-background:new 0 0 115 115;" xml:space="preserve">
<style type="text/css">
	.st0{fill-rule:evenodd;clip-rule:evenodd;fill:#FFFFFF;}
</style>
<g>
	<path class="st0" d="M29,50C17,50,7.2,40.2,7.2,28.2c0-5.8,2.3-11.3,6.4-15.4s9.6-6.4,15.4-6.4c12,0,21.8,9.8,21.8,21.8   C50.7,40.2,41,50,29,50L29,50z M29,9C18.4,9,9.8,17.6,9.8,28.2S18.4,47.4,29,47.4s19.2-8.6,19.2-19.2C48.1,17.7,39.5,9.1,29,9V8.9   V9z"/>
	<path class="st0" d="M86,50c-12,0-21.8-9.8-21.8-21.8c0-5.8,2.3-11.3,6.4-15.4c4.1-4.1,9.6-6.4,15.4-6.4c12,0,21.8,9.8,21.8,21.8   C107.8,40.2,98,50,86,50L86,50z M86,9c-10.6,0-19.2,8.6-19.2,19.2S75.5,47.4,86,47.4s19.2-8.6,19.2-19.2C105.2,17.7,96.6,9.1,86,9   V8.9V9z"/>
	<path class="st0" d="M29,108.6c-12,0-21.8-9.8-21.8-21.8c0-5.8,2.3-11.3,6.4-15.4c4.1-4.1,9.6-6.4,15.4-6.4   c12,0,21.8,9.8,21.8,21.8C50.7,98.8,41,108.6,29,108.6L29,108.6z M29,67.6c-10.6,0-19.2,8.6-19.2,19.2S18.4,106,29,106   s19.2-8.6,19.2-19.2C48.1,76.3,39.5,67.7,29,67.6L29,67.6z"/>
	<path class="st0" d="M86,108.6c-12,0-21.8-9.8-21.8-21.8c0-5.8,2.3-11.3,6.4-15.4C74.7,67.3,80.2,65,86,65c12,0,21.8,9.8,21.8,21.8   C107.8,98.8,98,108.6,86,108.6L86,108.6z M86,67.6c-10.6,0-19.2,8.6-19.2,19.2S75.5,106,86,106s19.2-8.6,19.2-19.2   C105.2,76.3,96.6,67.7,86,67.6L86,67.6z"/>
	<polygon class="st0" points="19.7,33.8 20.9,31.8 27.1,35.5 35.5,18 37.8,19.3 28.3,39.1  "/>
	<polygon class="st0" points="76.8,33.8 78.2,31.7 84.8,35.5 93.8,18 96.3,19.2 86.1,39.1  "/>
	<polygon class="st0" points="19.7,92.5 20.9,90.4 27.1,94.1 35.5,76.6 37.8,77.8 28.3,97.7  "/>
	<polygon class="st0" points="76.8,92.4 78.2,90.3 84.8,94.1 93.8,76.6 96.3,77.8 86.1,97.7  "/>
</g>
</svg>