<?xml version="1.0" encoding="UTF-8"?>
<!-- Generator: Adobe Illustrator 24.1.0, SVG Export Plug-In . SVG Version: 6.00 Build 0)  -->
<svg version="1.1" id="Layer_1" xmlns="http://www.w3.org/2000/svg" xmlns:xlink="http://www.w3.org/1999/xlink" x="0px" y="0px" viewBox="0 0 115 115" style="enable-background:new 0 0 115 115;" xml:space="preserve">
<style type="text/css">
	.st0{fill-rule:evenodd;clip-rule:evenodd;fill:#FFFFFF;}
</style>
<g>
	<path class="st0" d="M37.4,50.2c-0.7,0-1.3-0.6-1.3-1.2V37.6c-0.2-0.5-0.3-1-0.3-1.5v-10c0-0.3,0.1-0.5,0.2-0.8v-1.1   c0-0.7,0.6-1.2,1.3-1.2s1.3,0.6,1.3,1.2v12.9l0,0c0.2,0.2,0.5,0.3,0.8,0.3c0.7,0,1.1-0.6,1.1-1.4V22.5c0-2.7-2.1-4.9-4.7-4.9h-1.6   c-1,0-2-0.7-2.3-1.8v-0.1c-0.1,0-0.4,0-0.4,0s-0.2,0-0.4,0v0.1c-0.3,1.1-1.2,1.8-2.3,1.8h-1.6c-2.6,0-4.6,2.2-4.6,4.9v13.7   c0,0.7,0.3,1.4,1.1,1.4c0.2,0,0.5-0.1,0.7-0.3l0,0v-13c0-0.7,0.6-1.2,1.4-1.2s1.3,0.5,1.4,1.2v1.3c0.2,0.2,0.2,0.4,0.3,0.7v9.9   c0,0.5-0.1,1-0.3,1.5v11.4c0,0.7-0.6,1.2-1.4,1.2c-0.7,0-1.4-0.6-1.4-1.2v-8.9h-0.1c-0.2,0-0.5,0.1-0.7,0.1c-2,0-3.5-1.7-3.5-4   V22.5c0-4.1,3.2-7.5,7.1-7.5h1.1L28,14.8c-2.2-1.3-3.6-3.6-3.6-6.2c0-3.9,3.2-7.1,7.1-7.1s7.1,3.2,7.1,7.1c0,2.5-1.4,4.9-3.6,6.2   L34.9,15H36c3.9,0,7.1,3.4,7.1,7.5v13.7c0,1.2-0.4,2.3-1.2,3c-0.6,0.6-1.5,1-2.4,1c-0.2,0-0.5,0-0.7-0.1h-0.1V49   C38.7,49.6,38.1,50.2,37.4,50.2z M31.6,4.2c-2.5,0-4.5,2-4.5,4.5c0,1.2,0.5,2.3,1.3,3.2s2,1.3,3.2,1.3c2.5,0,4.5-2,4.5-4.5   S34.1,4.2,31.6,4.2V4V4.2z"/>
	<path class="st0" d="M31.6,50.2c-0.7,0-1.4-0.6-1.4-1.3v-8.8c0-0.7,0.6-1.2,1.4-1.2c0.8,0,1.3,0.5,1.4,1.2v8.8   C33,49.6,32.4,50.2,31.6,50.2z"/>
	<path class="st0" d="M50.3,113.4L50.3,113.4l-7-8.5V93.6v-0.9v-0.3v-6.3L43.2,86l0.1-2l3.3-0.1c1.5,0,2.9,0.4,4.1,1.2l1.5,0.9   l-0.1-18.7h-25C13.8,67.5,3,56.9,3,43.9c0-8.5,4.7-16.4,12.3-20.6c0.2-0.1,0.4-0.2,0.6-0.2c0.5,0,0.9,0.2,1.1,0.6   c0.2,0.3,0.2,0.6,0.1,0.9s-0.3,0.6-0.6,0.8c-5.1,2.8-8.7,7.3-10.3,12.8c-1.5,5.4-0.8,11.1,2,15.9c3.8,6.7,11,10.8,18.8,10.8h25   v-0.1c-0.1-3.2,2.4-5.8,5.4-5.9h0.1c3,0,5.5,2.5,5.6,5.5c0,0.1,0,0.6,0,0.9h32.3c0.7,0,1.2,0.5,1.2,1.2V72l12.2-11.6l-12-11.6v5.3   c0,0.7-0.6,1.2-1.2,1.2H26.9c-6,0-11-4.8-10.9-10.6c0-1.3,0.2-2.5,0.7-3.7c0.2-0.4,0.6-0.7,1.1-0.7c0.2,0,0.3,0,0.5,0.1   c0.6,0.2,0.9,0.9,0.7,1.5c-0.4,0.9-0.5,1.9-0.5,2.9c0,4.5,3.8,8.1,8.5,8.2h67.3v-7c0-0.7,0.6-1.2,1.2-1.2c0.3,0,0.7,0.1,0.9,0.3   l15.2,14.5c0.2,0.2,0.4,0.5,0.4,0.8s-0.1,0.6-0.4,0.8L96.4,75.7c-0.2,0.2-0.6,0.3-0.9,0.3c-0.2,0-0.3,0-0.5-0.1   c-0.5-0.2-0.8-0.6-0.8-1.1v-7h-31v9.1l1.2-0.6c0.6-0.2,1.2-0.4,1.9-0.4c1.9,0,3.6,1,4.6,2.6l0.5,0.8l0.7-0.5   c0.8-0.5,1.8-0.8,2.7-0.8c1.8,0,3.5,0.9,4.5,2.4l0.4,0.7l0.6-0.4c0.9-0.4,1.8-0.5,2.8-0.5h0.2c3,0,5.4,2.5,5.4,5.6l0.2,4.4v13.1   c0,3.9-1.5,7.5-4,9.8l-0.1,0.1h-0.2l0,0v0.1L50.3,113.4L50.3,113.4z M45.6,93.3l0.1,1l-0.1,0.2l-0.1,9.5l5.6,6.8l32.8-0.1l0,0   c1.6-2.2,2.6-4.9,2.6-7.3v-13L86.4,86c0-1.7-1.3-3.2-3-3.2c-1.1,0-2.4,0.2-2.9,1.1V84h-0.1H78v-0.1c-0.1-1.8-1.4-3.2-3.2-3.2   c-1.3,0-2.5,0.9-2.9,2.1v0.1h-0.1h-2.3l-0.1-1.3c0.1-1.7-1.3-3.2-3-3.2h-0.1c-1.7,0-3,1.3-3.1,3v5L61.4,85C61,84.7,61,84.6,61,84   v-0.7V67.9h-0.2v-2.4H61v-0.6c0-1.8-1.5-3.3-3.2-3.3s-3.2,1.5-3.2,3.3V65h0.1v2.5h-0.1v28.6l-2.3,0.1L52,94.9v-3.2   c0-3-2.4-5.4-5.3-5.4h-1.1L45.6,93.3z"/>
	<rect x="60.5" y="37.5" class="st0" width="28.5" height="2.7"/>
	<rect x="60.5" y="28.9" class="st0" width="28.5" height="2.7"/>
	<polygon class="st0" points="61.9,15.9 64,13.9 68.7,18.7 79.8,7.4 81.8,9.5 68.7,22.9  "/>
	<rect x="51.9" y="37.5" class="st0" width="4.1" height="2.7"/>
	<rect x="60.5" y="45.5" class="st0" width="28.5" height="2.7"/>
	<rect x="51.9" y="45.5" class="st0" width="4.1" height="2.7"/>
	<rect x="51.9" y="28.9" class="st0" width="4.1" height="2.7"/>
</g>
</svg>